<svg width="301" height="285" viewBox="0 0 301 285" fill="none" xmlns="http://www.w3.org/2000/svg">
<path d="M149.91 0.431839C150.261 0.174672 150.739 0.174674 151.09 0.43184L197.516 34.3906C197.654 34.4916 197.816 34.5555 197.986 34.5762L256.153 41.6441C256.605 41.699 256.962 42.0517 257.023 42.5025L264.478 97.504C264.503 97.6867 264.578 97.859 264.694 98.0019L300.484 141.868C300.784 142.236 300.784 142.764 300.484 143.132L264.694 186.998C264.578 187.141 264.503 187.313 264.478 187.496L257.023 242.497C256.962 242.948 256.605 243.301 256.153 243.356L197.986 250.424C197.816 250.444 197.654 250.508 197.516 250.609L151.09 284.568C150.739 284.825 150.261 284.825 149.91 284.568L103.484 250.609C103.346 250.508 103.184 250.444 103.014 250.424L44.847 243.356C44.3955 243.301 44.0378 242.948 43.9767 242.497L36.5219 187.496C36.4971 187.313 36.4223 187.141 36.3058 186.998L0.515789 143.132C0.215555 142.764 0.215556 142.236 0.515789 141.868L36.3058 98.0019C36.4223 97.859 36.4971 97.6867 36.5219 97.504L43.9767 42.5025C44.0378 42.0517 44.3954 41.699 44.847 41.6441L103.014 34.5762C103.184 34.5555 103.346 34.4916 103.484 34.3906L149.91 0.431839Z" fill="#FAFCB7"/>
<path d="M84.1053 212.022L87.014 214.887L89.8786 211.978L86.9699 209.113L84.1053 212.022ZM216.887 211.008L213.978 208.144L211.114 211.053L214.022 213.917L216.887 211.008ZM86.9958 212.5L214.004 211.531L213.996 210.531L86.9881 211.5L86.9958 212.5Z" fill="#EBAF14"/>
<path d="M101.183 95H99.6526V89.339H93.4306V95H91.9006V82.862H93.4306V87.996H99.6526V82.862H101.183V95ZM112.627 95L111.165 91.243H106.354L104.909 95H103.362L108.105 82.811H109.482L114.208 95H112.627ZM109.346 86.211C109.312 86.1203 109.256 85.956 109.176 85.718C109.097 85.48 109.018 85.2363 108.938 84.987C108.87 84.7263 108.814 84.528 108.768 84.392C108.712 84.6187 108.649 84.851 108.581 85.089C108.525 85.3157 108.462 85.5253 108.394 85.718C108.338 85.9107 108.287 86.075 108.241 86.211L106.864 89.883H110.706L109.346 86.211ZM121.62 95V82.862H130.732V95H129.219V84.205H123.15V95H121.62ZM137.778 82.862C139.364 82.862 140.52 83.1737 141.246 83.797C141.971 84.4203 142.334 85.2987 142.334 86.432C142.334 86.9307 142.249 87.4123 142.079 87.877C141.92 88.3303 141.654 88.7383 141.28 89.101C140.906 89.4637 140.407 89.7527 139.784 89.968C139.16 90.172 138.395 90.274 137.489 90.274H136.095V95H134.565V82.862H137.778ZM137.642 84.171H136.095V88.965H137.319C138.089 88.965 138.73 88.8857 139.24 88.727C139.75 88.557 140.129 88.2907 140.379 87.928C140.628 87.5653 140.753 87.0893 140.753 86.5C140.753 85.718 140.503 85.1343 140.005 84.749C139.506 84.3637 138.718 84.171 137.642 84.171ZM152.137 95L150.675 91.243H145.864L144.419 95H142.872L147.615 82.811H148.992L153.718 95H152.137ZM148.856 86.211C148.822 86.1203 148.765 85.956 148.686 85.718C148.607 85.48 148.527 85.2363 148.448 84.987C148.38 84.7263 148.323 84.528 148.278 84.392C148.221 84.6187 148.159 84.851 148.091 85.089C148.034 85.3157 147.972 85.5253 147.904 85.718C147.847 85.9107 147.796 86.075 147.751 86.211L146.374 89.883H150.216L148.856 86.211ZM164.745 95H162.909L157.418 88.846V95H155.888V82.862H157.418V88.744L162.773 82.862H164.507L159.237 88.761L164.745 95ZM170.749 95H169.219V84.205H165.428V82.862H174.523V84.205H170.749V95ZM176.88 82.862H178.308V89.526C178.308 89.8093 178.303 90.121 178.291 90.461C178.291 90.7897 178.286 91.1183 178.274 91.447C178.263 91.7757 178.246 92.0703 178.223 92.331C178.212 92.5803 178.201 92.773 178.189 92.909H178.257L184.938 82.862H186.638V95H185.21V88.404C185.21 88.098 185.216 87.7693 185.227 87.418C185.239 87.0553 185.25 86.7097 185.261 86.381C185.284 86.041 185.301 85.7407 185.312 85.48C185.324 85.2193 185.335 85.0267 185.346 84.902H185.278L178.58 95H176.88V82.862ZM199.279 95H197.443L191.952 88.846V95H190.422V82.862H191.952V88.744L197.307 82.862H199.041L193.771 88.761L199.279 95ZM208.224 95H201.441V82.862H208.224V84.205H202.971V87.996H207.918V89.322H202.971V93.657H208.224V95ZM77.3164 115.914C77.3164 116.855 77.1974 117.71 76.9594 118.481C76.7214 119.24 76.3644 119.898 75.8884 120.453C75.4237 121.008 74.84 121.433 74.1374 121.728C73.446 122.023 72.6414 122.17 71.7234 122.17C70.7714 122.17 69.944 122.023 69.2414 121.728C68.5387 121.422 67.955 120.997 67.4904 120.453C67.0257 119.898 66.68 119.235 66.4534 118.464C66.2267 117.693 66.1134 116.838 66.1134 115.897C66.1134 114.65 66.3174 113.562 66.7254 112.633C67.1334 111.704 67.751 110.978 68.5784 110.457C69.417 109.936 70.471 109.675 71.7404 109.675C72.953 109.675 73.973 109.936 74.8004 110.457C75.6277 110.967 76.251 111.692 76.6704 112.633C77.101 113.562 77.3164 114.656 77.3164 115.914ZM67.7284 115.914C67.7284 116.934 67.87 117.812 68.1534 118.549C68.4367 119.286 68.873 119.852 69.4624 120.249C70.063 120.646 70.8167 120.844 71.7234 120.844C72.6414 120.844 73.3894 120.646 73.9674 120.249C74.5567 119.852 74.993 119.286 75.2764 118.549C75.5597 117.812 75.7014 116.934 75.7014 115.914C75.7014 114.384 75.384 113.188 74.7494 112.327C74.1147 111.454 73.1117 111.018 71.7404 111.018C70.8224 111.018 70.063 111.216 69.4624 111.613C68.873 111.998 68.4367 112.559 68.1534 113.296C67.87 114.021 67.7284 114.894 67.7284 115.914ZM80.5166 122V109.862H89.6286V122H88.1156V111.205H82.0466V122H80.5166ZM96.6742 109.862C98.2609 109.862 99.4169 110.174 100.142 110.797C100.868 111.42 101.23 112.299 101.23 113.432C101.23 113.931 101.145 114.412 100.975 114.877C100.817 115.33 100.55 115.738 100.176 116.101C99.8022 116.464 99.3035 116.753 98.6802 116.968C98.0569 117.172 97.2919 117.274 96.3852 117.274H94.9912V122H93.4612V109.862H96.6742ZM96.5382 111.171H94.9912V115.965H96.2152C96.9859 115.965 97.6262 115.886 98.1362 115.727C98.6462 115.557 99.0259 115.291 99.2752 114.928C99.5245 114.565 99.6492 114.089 99.6492 113.5C99.6492 112.718 99.3999 112.134 98.9012 111.749C98.4025 111.364 97.6149 111.171 96.5382 111.171ZM114.855 115.914C114.855 116.855 114.736 117.71 114.498 118.481C114.26 119.24 113.903 119.898 113.427 120.453C112.962 121.008 112.379 121.433 111.676 121.728C110.985 122.023 110.18 122.17 109.262 122.17C108.31 122.17 107.483 122.023 106.78 121.728C106.077 121.422 105.494 120.997 105.029 120.453C104.564 119.898 104.219 119.235 103.992 118.464C103.765 117.693 103.652 116.838 103.652 115.897C103.652 114.65 103.856 113.562 104.264 112.633C104.672 111.704 105.29 110.978 106.117 110.457C106.956 109.936 108.01 109.675 109.279 109.675C110.492 109.675 111.512 109.936 112.339 110.457C113.166 110.967 113.79 111.692 114.209 112.633C114.64 113.562 114.855 114.656 114.855 115.914ZM105.267 115.914C105.267 116.934 105.409 117.812 105.692 118.549C105.975 119.286 106.412 119.852 107.001 120.249C107.602 120.646 108.355 120.844 109.262 120.844C110.18 120.844 110.928 120.646 111.506 120.249C112.095 119.852 112.532 119.286 112.815 118.549C113.098 117.812 113.24 116.934 113.24 115.914C113.24 114.384 112.923 113.188 112.288 112.327C111.653 111.454 110.65 111.018 109.279 111.018C108.361 111.018 107.602 111.216 107.001 111.613C106.412 111.998 105.975 112.559 105.692 113.296C105.409 114.021 105.267 114.894 105.267 115.914ZM118.055 122V109.862H125.263V111.205H119.585V114.996H121.387C122.6 114.996 123.541 115.149 124.209 115.455C124.878 115.75 125.343 116.158 125.603 116.679C125.864 117.189 125.994 117.778 125.994 118.447C125.994 119.184 125.847 119.818 125.552 120.351C125.269 120.884 124.804 121.292 124.158 121.575C123.512 121.858 122.662 122 121.608 122H118.055ZM121.455 120.691C122.543 120.691 123.308 120.51 123.75 120.147C124.192 119.773 124.413 119.206 124.413 118.447C124.413 117.926 124.306 117.512 124.09 117.206C123.886 116.889 123.546 116.662 123.07 116.526C122.606 116.39 121.982 116.322 121.2 116.322H119.585V120.691H121.455ZM134.107 118.549C133.745 119.354 133.376 120.028 133.002 120.572C132.64 121.105 132.209 121.507 131.71 121.779C131.212 122.04 130.577 122.17 129.806 122.17C129.489 122.17 129.189 122.147 128.905 122.102C128.633 122.057 128.384 121.994 128.157 121.915V120.402C128.384 120.504 128.628 120.589 128.888 120.657C129.149 120.714 129.421 120.742 129.704 120.742C130.124 120.742 130.481 120.685 130.775 120.572C131.081 120.447 131.348 120.249 131.574 119.977C131.812 119.705 132.033 119.342 132.237 118.889L127.562 109.862H129.245L132.628 116.543C132.674 116.622 132.719 116.719 132.764 116.832C132.81 116.934 132.855 117.042 132.9 117.155C132.957 117.268 133.002 117.376 133.036 117.478H133.104C133.138 117.399 133.172 117.308 133.206 117.206C133.252 117.093 133.291 116.985 133.325 116.883C133.371 116.77 133.41 116.673 133.444 116.594L136.368 109.862H137.983L134.107 118.549ZM146.926 122H140.143V109.862H146.926V111.205H141.673V114.996H146.62V116.322H141.673V120.657H146.926V122ZM155.454 122L151.459 111.358H151.391C151.414 111.585 151.431 111.874 151.442 112.225C151.465 112.576 151.482 112.962 151.493 113.381C151.504 113.789 151.51 114.208 151.51 114.639V122H150.099V109.862H152.36L156.1 119.807H156.168L159.976 109.862H162.22V122H160.707V114.537C160.707 114.14 160.713 113.749 160.724 113.364C160.735 112.967 160.752 112.599 160.775 112.259C160.798 111.908 160.815 111.613 160.826 111.375H160.758L156.712 122H155.454ZM166.542 120.206C167.228 120.206 167.57 120.623 167.57 121.456C167.57 122.028 167.491 122.589 167.332 123.139C167.179 123.694 166.967 124.207 166.695 124.678H165.862C166.06 124.168 166.21 123.709 166.312 123.301C166.42 122.898 166.485 122.502 166.508 122.111C166.213 122.099 165.978 122.006 165.802 121.83C165.632 121.654 165.547 121.428 165.547 121.15C165.547 120.861 165.635 120.631 165.811 120.461C165.992 120.291 166.236 120.206 166.542 120.206ZM185.007 122H183.171L177.68 115.846V122H176.15V109.862H177.68V115.744L183.035 109.862H184.769L179.499 115.761L185.007 122ZM194.784 122L193.322 118.243H188.511L187.066 122H185.519L190.262 109.811H191.639L196.365 122H194.784ZM191.503 113.211C191.469 113.12 191.413 112.956 191.333 112.718C191.254 112.48 191.175 112.236 191.095 111.987C191.027 111.726 190.971 111.528 190.925 111.392C190.869 111.619 190.806 111.851 190.738 112.089C190.682 112.316 190.619 112.525 190.551 112.718C190.495 112.911 190.444 113.075 190.398 113.211L189.021 116.883H192.863L191.503 113.211ZM207.393 122H205.557L200.066 115.846V122H198.536V109.862H200.066V115.744L205.421 109.862H207.155L201.885 115.761L207.393 122ZM219.814 115.914C219.814 116.855 219.695 117.71 219.457 118.481C219.219 119.24 218.862 119.898 218.386 120.453C217.921 121.008 217.337 121.433 216.635 121.728C215.943 122.023 215.139 122.17 214.221 122.17C213.269 122.17 212.441 122.023 211.739 121.728C211.036 121.422 210.452 120.997 209.988 120.453C209.523 119.898 209.177 119.235 208.951 118.464C208.724 117.693 208.611 116.838 208.611 115.897C208.611 114.65 208.815 113.562 209.223 112.633C209.631 111.704 210.248 110.978 211.076 110.457C211.914 109.936 212.968 109.675 214.238 109.675C215.45 109.675 216.47 109.936 217.298 110.457C218.125 110.967 218.748 111.692 219.168 112.633C219.598 113.562 219.814 114.656 219.814 115.914ZM210.226 115.914C210.226 116.934 210.367 117.812 210.651 118.549C210.934 119.286 211.37 119.852 211.96 120.249C212.56 120.646 213.314 120.844 214.221 120.844C215.139 120.844 215.887 120.646 216.465 120.249C217.054 119.852 217.49 119.286 217.774 118.549C218.057 117.812 218.199 116.934 218.199 115.914C218.199 114.384 217.881 113.188 217.247 112.327C216.612 111.454 215.609 111.018 214.238 111.018C213.32 111.018 212.56 111.216 211.96 111.613C211.37 111.998 210.934 112.559 210.651 113.296C210.367 114.021 210.226 114.894 210.226 115.914ZM231.293 106.088C231.247 106.655 231.106 107.131 230.868 107.516C230.641 107.901 230.301 108.19 229.848 108.383C229.394 108.576 228.805 108.672 228.08 108.672C227.343 108.672 226.748 108.576 226.295 108.383C225.853 108.19 225.53 107.907 225.326 107.533C225.122 107.148 224.997 106.666 224.952 106.088H226.346C226.402 106.7 226.561 107.114 226.822 107.329C227.094 107.533 227.524 107.635 228.114 107.635C228.635 107.635 229.043 107.527 229.338 107.312C229.644 107.085 229.825 106.677 229.882 106.088H231.293ZM223.031 109.862H224.459V116.526C224.459 116.809 224.453 117.121 224.442 117.461C224.442 117.79 224.436 118.118 224.425 118.447C224.413 118.776 224.396 119.07 224.374 119.331C224.362 119.58 224.351 119.773 224.34 119.909H224.408L231.089 109.862H232.789V122H231.361V115.404C231.361 115.098 231.366 114.769 231.378 114.418C231.389 114.055 231.4 113.71 231.412 113.381C231.434 113.041 231.451 112.741 231.463 112.48C231.474 112.219 231.485 112.027 231.497 111.902H231.429L224.731 122H223.031V109.862ZM75.5776 149V136.862H82.7857V138.205H77.1077V141.996H78.9097C80.1223 141.996 81.063 142.149 81.7317 142.455C82.4003 142.75 82.865 143.158 83.1257 143.679C83.3863 144.189 83.5167 144.778 83.5167 145.447C83.5167 146.184 83.3693 146.818 83.0747 147.351C82.7913 147.884 82.3267 148.292 81.6807 148.575C81.0347 148.858 80.1847 149 79.1307 149H75.5776ZM78.9777 147.691C80.0657 147.691 80.8307 147.51 81.2727 147.147C81.7147 146.773 81.9357 146.206 81.9357 145.447C81.9357 144.926 81.828 144.512 81.6127 144.206C81.4087 143.889 81.0687 143.662 80.5927 143.526C80.128 143.39 79.5047 143.322 78.7226 143.322H77.1077V147.691H78.9777ZM94.1626 149L92.7006 145.243H87.8896L86.4446 149H84.8976L89.6406 136.811H91.0176L95.7436 149H94.1626ZM90.8816 140.211C90.8476 140.12 90.791 139.956 90.7116 139.718C90.6323 139.48 90.553 139.236 90.4736 138.987C90.4056 138.726 90.349 138.528 90.3036 138.392C90.247 138.619 90.1846 138.851 90.1166 139.089C90.06 139.316 89.9976 139.525 89.9296 139.718C89.873 139.911 89.822 140.075 89.7766 140.211L88.3996 143.883H92.2416L90.8816 140.211ZM105.088 139.701C105.088 140.528 104.827 141.186 104.306 141.673C103.785 142.149 103.088 142.455 102.215 142.591V142.659C103.235 142.795 104.011 143.112 104.544 143.611C105.077 144.11 105.343 144.761 105.343 145.566C105.343 146.28 105.162 146.909 104.799 147.453C104.436 147.986 103.892 148.405 103.167 148.711C102.442 149.017 101.535 149.17 100.447 149.17C99.7897 149.17 99.1607 149.119 98.5601 149.017C97.9707 148.926 97.4211 148.756 96.9111 148.507V147.113C97.2624 147.283 97.6364 147.43 98.0331 147.555C98.4411 147.668 98.8491 147.759 99.2571 147.827C99.6651 147.884 100.056 147.912 100.43 147.912C101.518 147.912 102.34 147.708 102.895 147.3C103.462 146.892 103.745 146.314 103.745 145.566C103.745 144.795 103.416 144.234 102.759 143.883C102.102 143.532 101.184 143.356 100.005 143.356H98.2711V142.081H99.9201C100.725 142.081 101.388 141.99 101.909 141.809C102.442 141.628 102.838 141.373 103.099 141.044C103.371 140.704 103.507 140.307 103.507 139.854C103.507 139.242 103.28 138.772 102.827 138.443C102.374 138.114 101.784 137.95 101.059 137.95C100.3 137.95 99.6651 138.046 99.1551 138.239C98.6564 138.432 98.1691 138.681 97.6931 138.987L96.9621 137.95C97.2794 137.712 97.6421 137.502 98.0501 137.321C98.4694 137.128 98.9341 136.975 99.4441 136.862C99.9541 136.749 100.498 136.692 101.076 136.692C101.949 136.692 102.68 136.822 103.269 137.083C103.87 137.344 104.323 137.701 104.629 138.154C104.935 138.596 105.088 139.112 105.088 139.701ZM119.009 142.914C119.009 143.855 118.89 144.71 118.652 145.481C118.414 146.24 118.057 146.898 117.581 147.453C117.117 148.008 116.533 148.433 115.83 148.728C115.139 149.023 114.334 149.17 113.416 149.17C112.464 149.17 111.637 149.023 110.934 148.728C110.232 148.422 109.648 147.997 109.183 147.453C108.719 146.898 108.373 146.235 108.146 145.464C107.92 144.693 107.806 143.838 107.806 142.897C107.806 141.65 108.01 140.562 108.418 139.633C108.826 138.704 109.444 137.978 110.271 137.457C111.11 136.936 112.164 136.675 113.433 136.675C114.646 136.675 115.666 136.936 116.493 137.457C117.321 137.967 117.944 138.692 118.363 139.633C118.794 140.562 119.009 141.656 119.009 142.914ZM109.421 142.914C109.421 143.934 109.563 144.812 109.846 145.549C110.13 146.286 110.566 146.852 111.155 147.249C111.756 147.646 112.51 147.844 113.416 147.844C114.334 147.844 115.082 147.646 115.66 147.249C116.25 146.852 116.686 146.286 116.969 145.549C117.253 144.812 117.394 143.934 117.394 142.914C117.394 141.384 117.077 140.188 116.442 139.327C115.808 138.454 114.805 138.018 113.433 138.018C112.515 138.018 111.756 138.216 111.155 138.613C110.566 138.998 110.13 139.559 109.846 140.296C109.563 141.021 109.421 141.894 109.421 142.914ZM125.677 136.862C126.686 136.862 127.53 136.958 128.21 137.151C128.902 137.344 129.417 137.661 129.757 138.103C130.109 138.545 130.284 139.134 130.284 139.871C130.284 140.347 130.194 140.772 130.012 141.146C129.842 141.509 129.582 141.815 129.23 142.064C128.89 142.302 128.471 142.466 127.972 142.557V142.642C128.482 142.721 128.941 142.869 129.349 143.084C129.769 143.299 130.097 143.605 130.335 144.002C130.573 144.399 130.692 144.914 130.692 145.549C130.692 146.286 130.522 146.915 130.182 147.436C129.842 147.946 129.355 148.337 128.72 148.609C128.097 148.87 127.349 149 126.476 149H122.209V136.862H125.677ZM125.983 142.03C127.026 142.03 127.74 141.866 128.125 141.537C128.511 141.197 128.703 140.698 128.703 140.041C128.703 139.372 128.465 138.896 127.989 138.613C127.525 138.318 126.777 138.171 125.745 138.171H123.739V142.03H125.983ZM123.739 143.305V147.708H126.187C127.264 147.708 128.012 147.498 128.431 147.079C128.851 146.66 129.06 146.11 129.06 145.43C129.06 144.999 128.964 144.625 128.771 144.308C128.59 143.991 128.278 143.747 127.836 143.577C127.406 143.396 126.816 143.305 126.068 143.305H123.739ZM133.776 149V136.862H135.306V141.996H137.176C138.309 141.996 139.199 142.149 139.845 142.455C140.502 142.761 140.967 143.175 141.239 143.696C141.522 144.217 141.664 144.801 141.664 145.447C141.664 146.161 141.511 146.784 141.205 147.317C140.91 147.85 140.446 148.263 139.811 148.558C139.176 148.853 138.36 149 137.363 149H133.776ZM137.227 147.708C138.202 147.708 138.921 147.521 139.386 147.147C139.851 146.773 140.083 146.206 140.083 145.447C140.083 144.926 139.97 144.512 139.743 144.206C139.528 143.9 139.193 143.679 138.74 143.543C138.287 143.407 137.709 143.339 137.006 143.339H135.306V147.708H137.227ZM143.534 149V136.862H145.064V149H143.534ZM157.158 133.088C157.113 133.655 156.971 134.131 156.733 134.516C156.506 134.901 156.166 135.19 155.713 135.383C155.26 135.576 154.67 135.672 153.945 135.672C153.208 135.672 152.613 135.576 152.16 135.383C151.718 135.19 151.395 134.907 151.191 134.533C150.987 134.148 150.862 133.666 150.817 133.088H152.211C152.268 133.7 152.426 134.114 152.687 134.329C152.959 134.533 153.39 134.635 153.979 134.635C154.5 134.635 154.908 134.527 155.203 134.312C155.509 134.085 155.69 133.677 155.747 133.088H157.158ZM148.896 136.862H150.324V143.526C150.324 143.809 150.318 144.121 150.307 144.461C150.307 144.79 150.301 145.118 150.29 145.447C150.279 145.776 150.262 146.07 150.239 146.331C150.228 146.58 150.216 146.773 150.205 146.909H150.273L156.954 136.862H158.654V149H157.226V142.404C157.226 142.098 157.232 141.769 157.243 141.418C157.254 141.055 157.266 140.71 157.277 140.381C157.3 140.041 157.317 139.741 157.328 139.48C157.339 139.219 157.351 139.027 157.362 138.902H157.294L150.596 149H148.896V136.862ZM176.961 149H175.431V143.339H169.209V149H167.679V136.862H169.209V141.996H175.431V136.862H176.961V149ZM188.406 149L186.944 145.243H182.133L180.688 149H179.141L183.884 136.811H185.261L189.987 149H188.406ZM185.125 140.211C185.091 140.12 185.034 139.956 184.955 139.718C184.875 139.48 184.796 139.236 184.717 138.987C184.649 138.726 184.592 138.528 184.547 138.392C184.49 138.619 184.428 138.851 184.36 139.089C184.303 139.316 184.241 139.525 184.173 139.718C184.116 139.911 184.065 140.075 184.02 140.211L182.643 143.883H186.485L185.125 140.211ZM192.157 149V136.862H199.365V138.205H193.687V141.996H195.489C196.702 141.996 197.642 142.149 198.311 142.455C198.98 142.75 199.444 143.158 199.705 143.679C199.966 144.189 200.096 144.778 200.096 145.447C200.096 146.184 199.949 146.818 199.654 147.351C199.371 147.884 198.906 148.292 198.26 148.575C197.614 148.858 196.764 149 195.71 149H192.157ZM195.557 147.691C196.645 147.691 197.41 147.51 197.852 147.147C198.294 146.773 198.515 146.206 198.515 145.447C198.515 144.926 198.407 144.512 198.192 144.206C197.988 143.889 197.648 143.662 197.172 143.526C196.707 143.39 196.084 143.322 195.302 143.322H193.687V147.691H195.557ZM213.717 142.914C213.717 143.855 213.598 144.71 213.36 145.481C213.122 146.24 212.765 146.898 212.289 147.453C211.824 148.008 211.241 148.433 210.538 148.728C209.847 149.023 209.042 149.17 208.124 149.17C207.172 149.17 206.345 149.023 205.642 148.728C204.939 148.422 204.356 147.997 203.891 147.453C203.426 146.898 203.081 146.235 202.854 145.464C202.627 144.693 202.514 143.838 202.514 142.897C202.514 141.65 202.718 140.562 203.126 139.633C203.534 138.704 204.152 137.978 204.979 137.457C205.818 136.936 206.872 136.675 208.141 136.675C209.354 136.675 210.374 136.936 211.201 137.457C212.028 137.967 212.652 138.692 213.071 139.633C213.502 140.562 213.717 141.656 213.717 142.914ZM204.129 142.914C204.129 143.934 204.271 144.812 204.554 145.549C204.837 146.286 205.274 146.852 205.863 147.249C206.464 147.646 207.217 147.844 208.124 147.844C209.042 147.844 209.79 147.646 210.368 147.249C210.957 146.852 211.394 146.286 211.677 145.549C211.96 144.812 212.102 143.934 212.102 142.914C212.102 141.384 211.785 140.188 211.15 139.327C210.515 138.454 209.512 138.018 208.141 138.018C207.223 138.018 206.464 138.216 205.863 138.613C205.274 138.998 204.837 139.559 204.554 140.296C204.271 141.021 204.129 141.894 204.129 142.914ZM220.13 136.862C221.717 136.862 222.873 137.174 223.598 137.797C224.324 138.42 224.686 139.299 224.686 140.432C224.686 140.931 224.601 141.412 224.431 141.877C224.273 142.33 224.006 142.738 223.632 143.101C223.258 143.464 222.76 143.753 222.136 143.968C221.513 144.172 220.748 144.274 219.841 144.274H218.447V149H216.917V136.862H220.13ZM219.994 138.171H218.447V142.965H219.671C220.442 142.965 221.082 142.886 221.592 142.727C222.102 142.557 222.482 142.291 222.731 141.928C222.981 141.565 223.105 141.089 223.105 140.5C223.105 139.718 222.856 139.134 222.357 138.749C221.859 138.364 221.071 138.171 219.994 138.171ZM66.6447 176H64.8087L59.3177 169.846V176H57.7877V163.862H59.3177V169.744L64.6727 163.862H66.4067L61.1367 169.761L66.6447 176ZM68.8235 163.862H70.2515V170.526C70.2515 170.809 70.2459 171.121 70.2345 171.461C70.2345 171.79 70.2289 172.118 70.2175 172.447C70.2062 172.776 70.1892 173.07 70.1665 173.331C70.1552 173.58 70.1439 173.773 70.1325 173.909H70.2005L76.8815 163.862H78.5815V176H77.1535V169.404C77.1535 169.098 77.1592 168.769 77.1705 168.418C77.1819 168.055 77.1932 167.71 77.2045 167.381C77.2272 167.041 77.2442 166.741 77.2555 166.48C77.2669 166.219 77.2782 166.027 77.2895 165.902H77.2215L70.5235 176H68.8235V163.862ZM87.5674 165.035C86.9214 165.035 86.3377 165.148 85.8164 165.375C85.295 165.59 84.853 165.913 84.4904 166.344C84.1277 166.763 83.85 167.279 83.6574 167.891C83.4647 168.492 83.3684 169.172 83.3684 169.931C83.3684 170.928 83.5214 171.795 83.8274 172.532C84.1447 173.269 84.6094 173.835 85.2214 174.232C85.8447 174.629 86.621 174.827 87.5504 174.827C88.083 174.827 88.5874 174.782 89.0634 174.691C89.5394 174.6 90.004 174.487 90.4574 174.351V175.677C90.004 175.847 89.5337 175.972 89.0464 176.051C88.5704 176.13 87.998 176.17 87.3294 176.17C86.094 176.17 85.0627 175.915 84.2354 175.405C83.408 174.895 82.7847 174.17 82.3654 173.229C81.9574 172.288 81.7534 171.183 81.7534 169.914C81.7534 168.996 81.878 168.157 82.1274 167.398C82.388 166.639 82.762 165.981 83.2494 165.426C83.748 164.871 84.36 164.446 85.0854 164.151C85.8107 163.845 86.6437 163.692 87.5844 163.692C88.2077 163.692 88.8084 163.754 89.3864 163.879C89.9644 164.004 90.48 164.179 90.9334 164.406L90.3214 165.698C89.9474 165.528 89.528 165.375 89.0634 165.239C88.61 165.103 88.1114 165.035 87.5674 165.035ZM97.4586 176H95.9286V165.205H92.1376V163.862H101.233V165.205H97.4586V176ZM110.356 176H103.573V163.862H110.356V165.205H105.103V168.996H110.05V170.322H105.103V174.657H110.356V176ZM121.808 160.088C121.763 160.655 121.621 161.131 121.383 161.516C121.156 161.901 120.816 162.19 120.363 162.383C119.91 162.576 119.32 162.672 118.595 162.672C117.858 162.672 117.263 162.576 116.81 162.383C116.368 162.19 116.045 161.907 115.841 161.533C115.637 161.148 115.512 160.666 115.467 160.088H116.861C116.918 160.7 117.076 161.114 117.337 161.329C117.609 161.533 118.04 161.635 118.629 161.635C119.15 161.635 119.558 161.527 119.853 161.312C120.159 161.085 120.34 160.677 120.397 160.088H121.808ZM113.546 163.862H114.974V170.526C114.974 170.809 114.968 171.121 114.957 171.461C114.957 171.79 114.951 172.118 114.94 172.447C114.929 172.776 114.912 173.07 114.889 173.331C114.878 173.58 114.866 173.773 114.855 173.909H114.923L121.604 163.862H123.304V176H121.876V169.404C121.876 169.098 121.882 168.769 121.893 168.418C121.904 168.055 121.916 167.71 121.927 167.381C121.95 167.041 121.967 166.741 121.978 166.48C121.989 166.219 122.001 166.027 122.012 165.902H121.944L115.246 176H113.546V163.862ZM141.611 176H140.081V170.339H133.859V176H132.329V163.862H133.859V168.996H140.081V163.862H141.611V176ZM152.223 176H145.44V163.862H152.223V165.205H146.97V168.996H151.917V170.322H146.97V174.657H152.223V176ZM165.987 169.914C165.987 170.855 165.868 171.71 165.63 172.481C165.392 173.24 165.035 173.898 164.559 174.453C164.095 175.008 163.511 175.433 162.808 175.728C162.117 176.023 161.312 176.17 160.394 176.17C159.442 176.17 158.615 176.023 157.912 175.728C157.21 175.422 156.626 174.997 156.161 174.453C155.697 173.898 155.351 173.235 155.124 172.464C154.898 171.693 154.784 170.838 154.784 169.897C154.784 168.65 154.988 167.562 155.396 166.633C155.804 165.704 156.422 164.978 157.249 164.457C158.088 163.936 159.142 163.675 160.411 163.675C161.624 163.675 162.644 163.936 163.471 164.457C164.299 164.967 164.922 165.692 165.341 166.633C165.772 167.562 165.987 168.656 165.987 169.914ZM156.399 169.914C156.399 170.934 156.541 171.812 156.824 172.549C157.108 173.286 157.544 173.852 158.133 174.249C158.734 174.646 159.488 174.844 160.394 174.844C161.312 174.844 162.06 174.646 162.638 174.249C163.228 173.852 163.664 173.286 163.947 172.549C164.231 171.812 164.372 170.934 164.372 169.914C164.372 168.384 164.055 167.188 163.42 166.327C162.786 165.454 161.783 165.018 160.411 165.018C159.493 165.018 158.734 165.216 158.133 165.613C157.544 165.998 157.108 166.559 156.824 167.296C156.541 168.021 156.399 168.894 156.399 169.914ZM169.188 176V163.862H176.396V165.205H170.718V168.996H172.52C173.732 168.996 174.673 169.149 175.342 169.455C176.01 169.75 176.475 170.158 176.736 170.679C176.996 171.189 177.127 171.778 177.127 172.447C177.127 173.184 176.979 173.818 176.685 174.351C176.401 174.884 175.937 175.292 175.291 175.575C174.645 175.858 173.795 176 172.741 176H169.188ZM172.588 174.691C173.676 174.691 174.441 174.51 174.883 174.147C175.325 173.773 175.546 173.206 175.546 172.447C175.546 171.926 175.438 171.512 175.223 171.206C175.019 170.889 174.679 170.662 174.203 170.526C173.738 170.39 173.115 170.322 172.333 170.322H170.718V174.691H172.588ZM188.402 176H186.668L183.455 170.73L180.191 176H178.576L182.605 169.676L178.831 163.862H180.531L183.506 168.622L186.498 163.862H188.113L184.356 169.642L188.402 176ZM200.886 169.914C200.886 170.855 200.767 171.71 200.529 172.481C200.291 173.24 199.934 173.898 199.458 174.453C198.994 175.008 198.41 175.433 197.707 175.728C197.016 176.023 196.211 176.17 195.293 176.17C194.341 176.17 193.514 176.023 192.811 175.728C192.109 175.422 191.525 174.997 191.06 174.453C190.596 173.898 190.25 173.235 190.023 172.464C189.797 171.693 189.683 170.838 189.683 169.897C189.683 168.65 189.887 167.562 190.295 166.633C190.703 165.704 191.321 164.978 192.148 164.457C192.987 163.936 194.041 163.675 195.31 163.675C196.523 163.675 197.543 163.936 198.37 164.457C199.198 164.967 199.821 165.692 200.24 166.633C200.671 167.562 200.886 168.656 200.886 169.914ZM191.298 169.914C191.298 170.934 191.44 171.812 191.723 172.549C192.007 173.286 192.443 173.852 193.032 174.249C193.633 174.646 194.387 174.844 195.293 174.844C196.211 174.844 196.959 174.646 197.537 174.249C198.127 173.852 198.563 173.286 198.846 172.549C199.13 171.812 199.271 170.934 199.271 169.914C199.271 168.384 198.954 167.188 198.319 166.327C197.685 165.454 196.682 165.018 195.31 165.018C194.392 165.018 193.633 165.216 193.032 165.613C192.443 165.998 192.007 166.559 191.723 167.296C191.44 168.021 191.298 168.894 191.298 169.914ZM211.932 163.862V174.64H213.479V179.196H212.017V176H203.67V179.196H202.208V174.64H203.143C203.551 173.937 203.936 173.15 204.299 172.277C204.673 171.404 205.001 170.492 205.285 169.54C205.568 168.577 205.8 167.613 205.982 166.65C206.163 165.687 206.276 164.757 206.322 163.862H211.932ZM207.665 165.239C207.619 165.896 207.506 166.639 207.325 167.466C207.155 168.293 206.934 169.143 206.662 170.016C206.401 170.877 206.106 171.71 205.778 172.515C205.46 173.32 205.12 174.028 204.758 174.64H210.419V165.239H207.665ZM216.036 163.862H217.464V170.526C217.464 170.809 217.458 171.121 217.447 171.461C217.447 171.79 217.441 172.118 217.43 172.447C217.418 172.776 217.401 173.07 217.379 173.331C217.367 173.58 217.356 173.773 217.345 173.909H217.413L224.094 163.862H225.794V176H224.366V169.404C224.366 169.098 224.371 168.769 224.383 168.418C224.394 168.055 224.405 167.71 224.417 167.381C224.439 167.041 224.456 166.741 224.468 166.48C224.479 166.219 224.49 166.027 224.502 165.902H224.434L217.736 176H216.036V163.862ZM234.932 176L230.937 165.358H230.869C230.892 165.585 230.909 165.874 230.92 166.225C230.943 166.576 230.96 166.962 230.971 167.381C230.983 167.789 230.988 168.208 230.988 168.639V176H229.577V163.862H231.838L235.578 173.807H235.646L239.454 163.862H241.698V176H240.185V168.537C240.185 168.14 240.191 167.749 240.202 167.364C240.214 166.967 240.231 166.599 240.253 166.259C240.276 165.908 240.293 165.613 240.304 165.375H240.236L236.19 176H234.932ZM94.5553 190.862V201.64H96.1023V206.196H94.6403V203H86.2933V206.196H84.8313V201.64H85.7663C86.1743 200.937 86.5596 200.15 86.9223 199.277C87.2963 198.404 87.625 197.492 87.9083 196.54C88.1916 195.577 88.424 194.613 88.6053 193.65C88.7866 192.687 88.9 191.757 88.9453 190.862H94.5553ZM90.2883 192.239C90.243 192.896 90.1296 193.639 89.9483 194.466C89.7783 195.293 89.5573 196.143 89.2853 197.016C89.0246 197.877 88.73 198.71 88.4013 199.515C88.084 200.32 87.744 201.028 87.3813 201.64H93.0423V192.239H90.2883ZM107.38 203H105.85V192.205H102.008C101.929 192.828 101.844 193.486 101.753 194.177C101.663 194.857 101.566 195.531 101.464 196.2C101.374 196.869 101.283 197.498 101.192 198.087C101.102 198.676 101.011 199.192 100.92 199.634C100.773 200.393 100.592 201.039 100.376 201.572C100.161 202.105 99.8719 202.507 99.5092 202.779C99.1579 203.051 98.6932 203.187 98.1152 203.187C97.9225 203.187 97.7242 203.164 97.5202 203.119C97.3275 203.085 97.1575 203.04 97.0102 202.983V201.708C97.1349 201.765 97.2765 201.816 97.4352 201.861C97.5939 201.895 97.7639 201.912 97.9452 201.912C98.2852 201.912 98.5515 201.776 98.7442 201.504C98.9482 201.221 99.1069 200.875 99.2202 200.467C99.3335 200.048 99.4299 199.634 99.5092 199.226C99.5772 198.897 99.6565 198.461 99.7472 197.917C99.8379 197.362 99.9342 196.716 100.036 195.979C100.15 195.242 100.263 194.443 100.376 193.582C100.501 192.709 100.62 191.803 100.733 190.862H107.38V203ZM114.843 197.968L111.698 203H109.913L113.313 197.696C112.883 197.549 112.475 197.345 112.089 197.084C111.715 196.823 111.409 196.466 111.171 196.013C110.933 195.56 110.814 194.976 110.814 194.262C110.814 193.163 111.194 192.324 111.953 191.746C112.713 191.157 113.846 190.862 115.353 190.862H118.753V203H117.223V197.968H114.843ZM115.387 192.171C114.741 192.171 114.197 192.245 113.755 192.392C113.313 192.539 112.973 192.772 112.735 193.089C112.509 193.406 112.395 193.82 112.395 194.33C112.395 195.078 112.645 195.656 113.143 196.064C113.642 196.472 114.413 196.676 115.455 196.676H117.223V192.171H115.387ZM133.152 203L129.157 192.358H129.089C129.112 192.585 129.129 192.874 129.14 193.225C129.163 193.576 129.18 193.962 129.191 194.381C129.203 194.789 129.208 195.208 129.208 195.639V203H127.797V190.862H130.058L133.798 200.807H133.866L137.674 190.862H139.918V203H138.405V195.537C138.405 195.14 138.411 194.749 138.422 194.364C138.434 193.967 138.451 193.599 138.473 193.259C138.496 192.908 138.513 192.613 138.524 192.375H138.456L134.41 203H133.152ZM151.346 203L149.884 199.243H145.073L143.628 203H142.081L146.824 190.811H148.201L152.927 203H151.346ZM148.065 194.211C148.031 194.12 147.974 193.956 147.895 193.718C147.816 193.48 147.736 193.236 147.657 192.987C147.589 192.726 147.532 192.528 147.487 192.392C147.43 192.619 147.368 192.851 147.3 193.089C147.243 193.316 147.181 193.525 147.113 193.718C147.056 193.911 147.005 194.075 146.96 194.211L145.583 197.883H149.425L148.065 194.211ZM163.954 203H162.118L156.627 196.846V203H155.097V190.862H156.627V196.744L161.982 190.862H163.716L158.446 196.761L163.954 203ZM166.133 190.862H167.561V197.526C167.561 197.809 167.556 198.121 167.544 198.461C167.544 198.79 167.539 199.118 167.527 199.447C167.516 199.776 167.499 200.07 167.476 200.331C167.465 200.58 167.454 200.773 167.442 200.909H167.51L174.191 190.862H175.891V203H174.463V196.404C174.463 196.098 174.469 195.769 174.48 195.418C174.492 195.055 174.503 194.71 174.514 194.381C174.537 194.041 174.554 193.741 174.565 193.48C174.577 193.219 174.588 193.027 174.599 192.902H174.531L167.833 203H166.133V190.862ZM183.33 197.968L180.185 203H178.4L181.8 197.696C181.369 197.549 180.961 197.345 180.576 197.084C180.202 196.823 179.896 196.466 179.658 196.013C179.42 195.56 179.301 194.976 179.301 194.262C179.301 193.163 179.681 192.324 180.44 191.746C181.199 191.157 182.333 190.862 183.84 190.862H187.24V203H185.71V197.968H183.33ZM183.874 192.171C183.228 192.171 182.684 192.245 182.242 192.392C181.8 192.539 181.46 192.772 181.222 193.089C180.995 193.406 180.882 193.82 180.882 194.33C180.882 195.078 181.131 195.656 181.63 196.064C182.129 196.472 182.899 196.676 183.942 196.676H185.71V192.171H183.874ZM194.29 196.761L189.581 190.862H191.281L195.922 196.744V190.862H197.384V196.744L202.025 190.862H203.725L199.016 196.744L203.878 203H202.127L197.384 196.846V203H195.922V196.846L191.162 203H189.411L194.29 196.761ZM213.678 203L212.216 199.243H207.405L205.96 203H204.413L209.156 190.811H210.533L215.259 203H213.678ZM210.397 194.211C210.363 194.12 210.307 193.956 210.227 193.718C210.148 193.48 210.069 193.236 209.989 192.987C209.921 192.726 209.865 192.528 209.819 192.392C209.763 192.619 209.7 192.851 209.632 193.089C209.576 193.316 209.513 193.525 209.445 193.718C209.389 193.911 209.338 194.075 209.292 194.211L207.915 197.883H211.757L210.397 194.211Z" fill="#B11548"/>
</svg>
