<svg width="301" height="285" viewBox="0 0 301 285" fill="none" xmlns="http://www.w3.org/2000/svg">
<path d="M149.91 0.431839C150.261 0.174672 150.739 0.174674 151.09 0.43184L197.516 34.3906C197.654 34.4916 197.816 34.5555 197.986 34.5762L256.153 41.6441C256.605 41.699 256.962 42.0517 257.023 42.5025L264.478 97.504C264.503 97.6867 264.578 97.859 264.694 98.0019L300.484 141.868C300.784 142.236 300.784 142.764 300.484 143.132L264.694 186.998C264.578 187.141 264.503 187.313 264.478 187.496L257.023 242.497C256.962 242.948 256.605 243.301 256.153 243.356L197.986 250.424C197.816 250.444 197.654 250.508 197.516 250.609L151.09 284.568C150.739 284.825 150.261 284.825 149.91 284.568L103.484 250.609C103.346 250.508 103.184 250.444 103.014 250.424L44.847 243.356C44.3955 243.301 44.0378 242.948 43.9767 242.497L36.5219 187.496C36.4971 187.313 36.4223 187.141 36.3058 186.998L0.515789 143.132C0.215555 142.764 0.215556 142.236 0.515789 141.868L36.3058 98.0019C36.4223 97.859 36.4971 97.6867 36.5219 97.504L43.9767 42.5025C44.0378 42.0517 44.3954 41.699 44.847 41.6441L103.014 34.5762C103.184 34.5555 103.346 34.4916 103.484 34.3906L149.91 0.431839Z" fill="#E2B2CA"/>
<path d="M84.1053 239.022L87.014 241.887L89.8786 238.978L86.9699 236.113L84.1053 239.022ZM216.887 238.008L213.978 235.144L211.114 238.053L214.022 240.917L216.887 238.008ZM86.9958 239.5L214.004 238.531L213.996 237.531L86.9881 238.5L86.9958 239.5Z" fill="#EBAF14"/>
<path d="M90.7229 68L86.7279 57.358H86.6599C86.6826 57.5847 86.6996 57.8737 86.7109 58.225C86.7336 58.5763 86.7506 58.9617 86.7619 59.381C86.7733 59.789 86.7789 60.2083 86.7789 60.639V68H85.3679V55.862H87.6289L91.3689 65.807H91.4369L95.2449 55.862H97.4889V68H95.9759V60.537C95.9759 60.1403 95.9816 59.7493 95.9929 59.364C96.0043 58.9673 96.0213 58.599 96.0439 58.259C96.0666 57.9077 96.0836 57.613 96.0949 57.375H96.0269L91.9809 68H90.7229ZM101.301 68V55.862H102.831V60.996H104.701C105.834 60.996 106.724 61.149 107.37 61.455C108.027 61.761 108.492 62.1747 108.764 62.696C109.047 63.2173 109.189 63.801 109.189 64.447C109.189 65.161 109.036 65.7843 108.73 66.317C108.435 66.8497 107.97 67.2633 107.336 67.558C106.701 67.8527 105.885 68 104.888 68H101.301ZM104.752 66.708C105.726 66.708 106.446 66.521 106.911 66.147C107.375 65.773 107.608 65.2063 107.608 64.447C107.608 63.9257 107.494 63.512 107.268 63.206C107.052 62.9 106.718 62.679 106.265 62.543C105.811 62.407 105.233 62.339 104.531 62.339H102.831V66.708H104.752ZM111.059 68V55.862H112.589V68H111.059ZM121.645 68V55.862H130.757V68H129.244V57.205H123.175V68H121.645ZM145.181 61.914C145.181 62.8547 145.062 63.7103 144.824 64.481C144.586 65.2403 144.229 65.8977 143.753 66.453C143.288 67.0083 142.704 67.4333 142.002 67.728C141.31 68.0227 140.506 68.17 139.588 68.17C138.636 68.17 137.808 68.0227 137.106 67.728C136.403 67.422 135.819 66.997 135.355 66.453C134.89 65.8977 134.544 65.2347 134.318 64.464C134.091 63.6933 133.978 62.8377 133.978 61.897C133.978 60.6503 134.182 59.5623 134.59 58.633C134.998 57.7037 135.615 56.9783 136.443 56.457C137.281 55.9357 138.335 55.675 139.605 55.675C140.817 55.675 141.837 55.9357 142.665 56.457C143.492 56.967 144.115 57.6923 144.535 58.633C144.965 59.5623 145.181 60.656 145.181 61.914ZM135.593 61.914C135.593 62.934 135.734 63.8123 136.018 64.549C136.301 65.2857 136.737 65.8523 137.327 66.249C137.927 66.6457 138.681 66.844 139.588 66.844C140.506 66.844 141.254 66.6457 141.832 66.249C142.421 65.8523 142.857 65.2857 143.141 64.549C143.424 63.8123 143.566 62.934 143.566 61.914C143.566 60.384 143.248 59.1883 142.614 58.327C141.979 57.4543 140.976 57.018 139.605 57.018C138.687 57.018 137.927 57.2163 137.327 57.613C136.737 57.9983 136.301 58.5593 136.018 59.296C135.734 60.0213 135.593 60.894 135.593 61.914ZM156.226 55.862V66.64H157.773V71.196H156.311V68H147.964V71.196H146.502V66.64H147.437C147.845 65.9373 148.23 65.1497 148.593 64.277C148.967 63.4043 149.295 62.492 149.579 61.54C149.862 60.5767 150.094 59.6133 150.276 58.65C150.457 57.6867 150.57 56.7573 150.616 55.862H156.226ZM151.959 57.239C151.913 57.8963 151.8 58.6387 151.619 59.466C151.449 60.2933 151.228 61.1433 150.956 62.016C150.695 62.8773 150.4 63.7103 150.072 64.515C149.754 65.3197 149.414 66.028 149.052 66.64H154.713V57.239H151.959ZM160.313 68V55.862H167.521V57.205H161.843V60.996H163.645C164.857 60.996 165.798 61.149 166.467 61.455C167.135 61.7497 167.6 62.1577 167.861 62.679C168.121 63.189 168.252 63.7783 168.252 64.447C168.252 65.1837 168.104 65.8183 167.81 66.351C167.526 66.8837 167.062 67.2917 166.416 67.575C165.77 67.8583 164.92 68 163.866 68H160.313ZM163.713 66.691C164.801 66.691 165.566 66.5097 166.008 66.147C166.45 65.773 166.671 65.2063 166.671 64.447C166.671 63.9257 166.563 63.512 166.348 63.206C166.144 62.8887 165.804 62.662 165.328 62.526C164.863 62.39 164.24 62.322 163.458 62.322H161.843V66.691H163.713ZM178.065 68H171.282V55.862H178.065V57.205H172.812V60.996H177.759V62.322H172.812V66.657H178.065V68ZM184.451 55.862C186.038 55.862 187.194 56.1737 187.919 56.797C188.644 57.4203 189.007 58.2987 189.007 59.432C189.007 59.9307 188.922 60.4123 188.752 60.877C188.593 61.3303 188.327 61.7383 187.953 62.101C187.579 62.4637 187.08 62.7527 186.457 62.968C185.834 63.172 185.069 63.274 184.162 63.274H182.768V68H181.238V55.862H184.451ZM184.315 57.171H182.768V61.965H183.992C184.763 61.965 185.403 61.8857 185.913 61.727C186.423 61.557 186.803 61.2907 187.052 60.928C187.301 60.5653 187.426 60.0893 187.426 59.5C187.426 58.718 187.177 58.1343 186.678 57.749C186.179 57.3637 185.392 57.171 184.315 57.171ZM198.824 68H192.041V55.862H198.824V57.205H193.571V60.996H198.518V62.322H193.571V66.657H198.824V68ZM193.18 53.397C193.18 53.1023 193.259 52.8927 193.418 52.768C193.577 52.632 193.764 52.564 193.979 52.564C194.194 52.564 194.381 52.632 194.54 52.768C194.699 52.8927 194.778 53.1023 194.778 53.397C194.778 53.6803 194.699 53.8957 194.54 54.043C194.381 54.179 194.194 54.247 193.979 54.247C193.764 54.247 193.577 54.179 193.418 54.043C193.259 53.8957 193.18 53.6803 193.18 53.397ZM196.376 53.397C196.376 53.1023 196.45 52.8927 196.597 52.768C196.756 52.632 196.943 52.564 197.158 52.564C197.373 52.564 197.56 52.632 197.719 52.768C197.878 52.8927 197.957 53.1023 197.957 53.397C197.957 53.6803 197.878 53.8957 197.719 54.043C197.56 54.179 197.373 54.247 197.158 54.247C196.943 54.247 196.756 54.179 196.597 54.043C196.45 53.8957 196.376 53.6803 196.376 53.397ZM207.352 68L203.357 57.358H203.289C203.312 57.5847 203.329 57.8737 203.34 58.225C203.363 58.5763 203.38 58.9617 203.391 59.381C203.403 59.789 203.408 60.2083 203.408 60.639V68H201.997V55.862H204.258L207.998 65.807H208.066L211.874 55.862H214.118V68H212.605V60.537C212.605 60.1403 212.611 59.7493 212.622 59.364C212.634 58.9673 212.651 58.599 212.673 58.259C212.696 57.9077 212.713 57.613 212.724 57.375H212.656L208.61 68H207.352ZM91.9336 84.035C91.2876 84.035 90.7039 84.1483 90.1826 84.375C89.6612 84.5903 89.2192 84.9133 88.8566 85.344C88.4939 85.7633 88.2162 86.279 88.0236 86.891C87.8309 87.4917 87.7346 88.1717 87.7346 88.931C87.7346 89.9283 87.8876 90.7953 88.1936 91.532C88.5109 92.2687 88.9756 92.8353 89.5876 93.232C90.2109 93.6287 90.9872 93.827 91.9166 93.827C92.4492 93.827 92.9536 93.7817 93.4296 93.691C93.9056 93.6003 94.3702 93.487 94.8236 93.351V94.677C94.3702 94.847 93.8999 94.9717 93.4126 95.051C92.9366 95.1303 92.3642 95.17 91.6956 95.17C90.4602 95.17 89.4289 94.915 88.6016 94.405C87.7742 93.895 87.1509 93.1697 86.7316 92.229C86.3236 91.2883 86.1196 90.1833 86.1196 88.914C86.1196 87.996 86.2442 87.1573 86.4936 86.398C86.7542 85.6387 87.1282 84.9813 87.6156 84.426C88.1142 83.8707 88.7262 83.4457 89.4516 83.151C90.1769 82.845 91.0099 82.692 91.9506 82.692C92.5739 82.692 93.1746 82.7543 93.7526 82.879C94.3306 83.0037 94.8462 83.1793 95.2996 83.406L94.6876 84.698C94.3136 84.528 93.8942 84.375 93.4296 84.239C92.9762 84.103 92.4776 84.035 91.9336 84.035ZM101.196 82.862C102.782 82.862 103.938 83.1737 104.664 83.797C105.389 84.4203 105.752 85.2987 105.752 86.432C105.752 86.9307 105.667 87.4123 105.497 87.877C105.338 88.3303 105.072 88.7383 104.698 89.101C104.324 89.4637 103.825 89.7527 103.202 89.968C102.578 90.172 101.813 90.274 100.907 90.274H99.5128V95H97.9828V82.862H101.196ZM101.06 84.171H99.5128V88.965H100.737C101.507 88.965 102.148 88.8857 102.658 88.727C103.168 88.557 103.547 88.2907 103.797 87.928C104.046 87.5653 104.171 87.0893 104.171 86.5C104.171 85.718 103.921 85.1343 103.423 84.749C102.924 84.3637 102.136 84.171 101.06 84.171ZM115.569 95H108.786V82.862H115.569V84.205H110.316V87.996H115.263V89.322H110.316V93.657H115.569V95ZM126.919 82.862V93.64H128.466V98.196H127.004V95H118.657V98.196H117.195V93.64H118.13C118.538 92.9373 118.923 92.1497 119.286 91.277C119.66 90.4043 119.989 89.492 120.272 88.54C120.555 87.5767 120.788 86.6133 120.969 85.65C121.15 84.6867 121.264 83.7573 121.309 82.862H126.919ZM122.652 84.239C122.607 84.8963 122.493 85.6387 122.312 86.466C122.142 87.2933 121.921 88.1433 121.649 89.016C121.388 89.8773 121.094 90.7103 120.765 91.515C120.448 92.3197 120.108 93.028 119.745 93.64H125.406V84.239H122.652ZM136.208 84.035C135.562 84.035 134.978 84.1483 134.457 84.375C133.936 84.5903 133.494 84.9133 133.131 85.344C132.768 85.7633 132.491 86.279 132.298 86.891C132.105 87.4917 132.009 88.1717 132.009 88.931C132.009 89.9283 132.162 90.7953 132.468 91.532C132.785 92.2687 133.25 92.8353 133.862 93.232C134.485 93.6287 135.262 93.827 136.191 93.827C136.724 93.827 137.228 93.7817 137.704 93.691C138.18 93.6003 138.645 93.487 139.098 93.351V94.677C138.645 94.847 138.174 94.9717 137.687 95.051C137.211 95.1303 136.639 95.17 135.97 95.17C134.735 95.17 133.703 94.915 132.876 94.405C132.049 93.895 131.425 93.1697 131.006 92.229C130.598 91.2883 130.394 90.1833 130.394 88.914C130.394 87.996 130.519 87.1573 130.768 86.398C131.029 85.6387 131.403 84.9813 131.89 84.426C132.389 83.8707 133.001 83.4457 133.726 83.151C134.451 82.845 135.284 82.692 136.225 82.692C136.848 82.692 137.449 82.7543 138.027 82.879C138.605 83.0037 139.121 83.1793 139.574 83.406L138.962 84.698C138.588 84.528 138.169 84.375 137.704 84.239C137.251 84.103 136.752 84.035 136.208 84.035ZM146.099 95H144.569V84.205H140.778V82.862H149.873V84.205H146.099V95ZM155.681 82.862C156.69 82.862 157.534 82.9583 158.214 83.151C158.906 83.3437 159.421 83.661 159.761 84.103C160.113 84.545 160.288 85.1343 160.288 85.871C160.288 86.347 160.198 86.772 160.016 87.146C159.846 87.5087 159.586 87.8147 159.234 88.064C158.894 88.302 158.475 88.4663 157.976 88.557V88.642C158.486 88.7213 158.945 88.8687 159.353 89.084C159.773 89.2993 160.101 89.6053 160.339 90.002C160.577 90.3987 160.696 90.9143 160.696 91.549C160.696 92.2857 160.526 92.9147 160.186 93.436C159.846 93.946 159.359 94.337 158.724 94.609C158.101 94.8697 157.353 95 156.48 95H152.213V82.862H155.681ZM155.987 88.03C157.03 88.03 157.744 87.8657 158.129 87.537C158.515 87.197 158.707 86.6983 158.707 86.041C158.707 85.3723 158.469 84.8963 157.993 84.613C157.529 84.3183 156.781 84.171 155.749 84.171H153.743V88.03H155.987ZM153.743 89.305V93.708H156.191C157.268 93.708 158.016 93.4983 158.435 93.079C158.855 92.6597 159.064 92.11 159.064 91.43C159.064 90.9993 158.968 90.6253 158.775 90.308C158.594 89.9907 158.282 89.747 157.84 89.577C157.41 89.3957 156.82 89.305 156.072 89.305H153.743ZM171.396 95L169.934 91.243H165.123L163.678 95H162.131L166.874 82.811H168.251L172.977 95H171.396ZM168.115 86.211C168.081 86.1203 168.024 85.956 167.945 85.718C167.866 85.48 167.786 85.2363 167.707 84.987C167.639 84.7263 167.582 84.528 167.537 84.392C167.48 84.6187 167.418 84.851 167.35 85.089C167.293 85.3157 167.231 85.5253 167.163 85.718C167.106 85.9107 167.055 86.075 167.01 86.211L165.633 89.883H169.475L168.115 86.211ZM188.566 82.862V93.64H190.113V98.196H188.651V95H180.304V98.196H178.842V93.64H179.777C180.185 92.9373 180.57 92.1497 180.933 91.277C181.307 90.4043 181.636 89.492 181.919 88.54C182.202 87.5767 182.435 86.6133 182.616 85.65C182.797 84.6867 182.911 83.7573 182.956 82.862H188.566ZM184.299 84.239C184.254 84.8963 184.14 85.6387 183.959 86.466C183.789 87.2933 183.568 88.1433 183.296 89.016C183.035 89.8773 182.741 90.7103 182.412 91.515C182.095 92.3197 181.755 93.028 181.392 93.64H187.053V84.239H184.299ZM201.391 95H199.861V84.205H196.019C195.94 84.8283 195.855 85.4857 195.764 86.177C195.673 86.857 195.577 87.5313 195.475 88.2C195.384 88.8687 195.294 89.4977 195.203 90.087C195.112 90.6763 195.022 91.192 194.931 91.634C194.784 92.3933 194.602 93.0393 194.387 93.572C194.172 94.1047 193.883 94.507 193.52 94.779C193.169 95.051 192.704 95.187 192.126 95.187C191.933 95.187 191.735 95.1643 191.531 95.119C191.338 95.085 191.168 95.0397 191.021 94.983V93.708C191.146 93.7647 191.287 93.8157 191.446 93.861C191.605 93.895 191.775 93.912 191.956 93.912C192.296 93.912 192.562 93.776 192.755 93.504C192.959 93.2207 193.118 92.875 193.231 92.467C193.344 92.0477 193.441 91.634 193.52 91.226C193.588 90.8973 193.667 90.461 193.758 89.917C193.849 89.3617 193.945 88.7157 194.047 87.979C194.16 87.2423 194.274 86.4433 194.387 85.582C194.512 84.7093 194.631 83.8027 194.744 82.862H201.391V95ZM208.854 89.968L205.709 95H203.924L207.324 89.696C206.893 89.5487 206.485 89.3447 206.1 89.084C205.726 88.8233 205.42 88.4663 205.182 88.013C204.944 87.5597 204.825 86.976 204.825 86.262C204.825 85.1627 205.205 84.324 205.964 83.746C206.723 83.1567 207.857 82.862 209.364 82.862H212.764V95H211.234V89.968H208.854ZM209.398 84.171C208.752 84.171 208.208 84.2447 207.766 84.392C207.324 84.5393 206.984 84.7717 206.746 85.089C206.519 85.4063 206.406 85.82 206.406 86.33C206.406 87.078 206.655 87.656 207.154 88.064C207.653 88.472 208.423 88.676 209.466 88.676H211.234V84.171H209.398ZM102.788 122L98.7926 111.358H98.7246C98.7473 111.585 98.7643 111.874 98.7756 112.225C98.7983 112.576 98.8153 112.962 98.8266 113.381C98.8379 113.789 98.8436 114.208 98.8436 114.639V122H97.4326V109.862H99.6936L103.434 119.807H103.502L107.31 109.862H109.554V122H108.041V114.537C108.041 114.14 108.046 113.749 108.058 113.364C108.069 112.967 108.086 112.599 108.109 112.259C108.131 111.908 108.148 111.613 108.16 111.375H108.092L104.046 122H102.788ZM120.981 122L119.519 118.243H114.708L113.263 122H111.716L116.459 109.811H117.836L122.562 122H120.981ZM117.7 113.211C117.666 113.12 117.61 112.956 117.53 112.718C117.451 112.48 117.372 112.236 117.292 111.987C117.224 111.726 117.168 111.528 117.122 111.392C117.066 111.619 117.003 111.851 116.935 112.089C116.879 112.316 116.816 112.525 116.748 112.718C116.692 112.911 116.641 113.075 116.595 113.211L115.218 116.883H119.06L117.7 113.211ZM133.59 122H131.754L126.263 115.846V122H124.733V109.862H126.263V115.744L131.618 109.862H133.352L128.082 115.761L133.59 122ZM135.769 109.862H137.197V116.526C137.197 116.809 137.191 117.121 137.18 117.461C137.18 117.79 137.174 118.118 137.163 118.447C137.151 118.776 137.134 119.07 137.112 119.331C137.1 119.58 137.089 119.773 137.078 119.909H137.146L143.827 109.862H145.527V122H144.099V115.404C144.099 115.098 144.104 114.769 144.116 114.418C144.127 114.055 144.138 113.71 144.15 113.381C144.172 113.041 144.189 112.741 144.201 112.48C144.212 112.219 144.223 112.027 144.235 111.902H144.167L137.469 122H135.769V109.862ZM152.966 116.968L149.821 122H148.036L151.436 116.696C151.005 116.549 150.597 116.345 150.212 116.084C149.838 115.823 149.532 115.466 149.294 115.013C149.056 114.56 148.937 113.976 148.937 113.262C148.937 112.163 149.316 111.324 150.076 110.746C150.835 110.157 151.968 109.862 153.476 109.862H156.876V122H155.346V116.968H152.966ZM153.51 111.171C152.864 111.171 152.32 111.245 151.878 111.392C151.436 111.539 151.096 111.772 150.858 112.089C150.631 112.406 150.518 112.82 150.518 113.33C150.518 114.078 150.767 114.656 151.266 115.064C151.764 115.472 152.535 115.676 153.578 115.676H155.346V111.171H153.51ZM163.925 115.761L159.216 109.862H160.916L165.557 115.744V109.862H167.019V115.744L171.66 109.862H173.36L168.651 115.744L173.513 122H171.762L167.019 115.846V122H165.557V115.846L160.797 122H159.046L163.925 115.761ZM183.314 122L181.852 118.243H177.041L175.596 122H174.049L178.792 109.811H180.169L184.895 122H183.314ZM180.033 113.211C179.999 113.12 179.942 112.956 179.863 112.718C179.783 112.48 179.704 112.236 179.625 111.987C179.557 111.726 179.5 111.528 179.455 111.392C179.398 111.619 179.336 111.851 179.268 112.089C179.211 112.316 179.149 112.525 179.081 112.718C179.024 112.911 178.973 113.075 178.928 113.211L177.551 116.883H181.393L180.033 113.211ZM192.324 109.862H193.752V116.526C193.752 116.809 193.746 117.121 193.735 117.461C193.735 117.79 193.729 118.118 193.718 118.447C193.706 118.776 193.689 119.07 193.667 119.331C193.655 119.58 193.644 119.773 193.633 119.909H193.701L200.382 109.862H202.082V122H200.654V115.404C200.654 115.098 200.659 114.769 200.671 114.418C200.682 114.055 200.693 113.71 200.705 113.381C200.727 113.041 200.744 112.741 200.756 112.48C200.767 112.219 200.778 112.027 200.79 111.902H200.722L194.024 122H192.324V109.862ZM59.9293 149V136.862H69.0414V149H67.5284V138.205H61.4593V149H59.9293ZM83.4649 142.914C83.4649 143.855 83.3459 144.71 83.1079 145.481C82.8699 146.24 82.5129 146.898 82.0369 147.453C81.5723 148.008 80.9886 148.433 80.2859 148.728C79.5946 149.023 78.7899 149.17 77.8719 149.17C76.9199 149.17 76.0926 149.023 75.3899 148.728C74.6873 148.422 74.1036 147.997 73.6389 147.453C73.1743 146.898 72.8286 146.235 72.6019 145.464C72.3753 144.693 72.2619 143.838 72.2619 142.897C72.2619 141.65 72.4659 140.562 72.8739 139.633C73.2819 138.704 73.8996 137.978 74.7269 137.457C75.5656 136.936 76.6196 136.675 77.8889 136.675C79.1016 136.675 80.1216 136.936 80.9489 137.457C81.7763 137.967 82.3996 138.692 82.8189 139.633C83.2496 140.562 83.4649 141.656 83.4649 142.914ZM73.8769 142.914C73.8769 143.934 74.0186 144.812 74.3019 145.549C74.5853 146.286 75.0216 146.852 75.6109 147.249C76.2116 147.646 76.9653 147.844 77.8719 147.844C78.7899 147.844 79.5379 147.646 80.1159 147.249C80.7053 146.852 81.1416 146.286 81.4249 145.549C81.7083 144.812 81.8499 143.934 81.8499 142.914C81.8499 141.384 81.5326 140.188 80.8979 139.327C80.2633 138.454 79.2603 138.018 77.8889 138.018C76.9709 138.018 76.2116 138.216 75.6109 138.613C75.0216 138.998 74.5853 139.559 74.3019 140.296C74.0186 141.021 73.8769 141.894 73.8769 142.914ZM94.5101 136.862V147.64H96.0571V152.196H94.5951V149H86.2481V152.196H84.7861V147.64H85.7211C86.1291 146.937 86.5145 146.15 86.8771 145.277C87.2511 144.404 87.5798 143.492 87.8631 142.54C88.1465 141.577 88.3788 140.613 88.5601 139.65C88.7415 138.687 88.8548 137.757 88.9001 136.862H94.5101ZM90.2431 138.239C90.1978 138.896 90.0845 139.639 89.9031 140.466C89.7331 141.293 89.5121 142.143 89.2401 143.016C88.9795 143.877 88.6848 144.71 88.3561 145.515C88.0388 146.32 87.6988 147.028 87.3361 147.64H92.9971V138.239H90.2431ZM105.448 136.862V138.222H100.127V149H98.597V136.862H105.448ZM118.281 142.914C118.281 143.855 118.162 144.71 117.924 145.481C117.686 146.24 117.329 146.898 116.853 147.453C116.388 148.008 115.805 148.433 115.102 148.728C114.411 149.023 113.606 149.17 112.688 149.17C111.736 149.17 110.909 149.023 110.206 148.728C109.503 148.422 108.92 147.997 108.455 147.453C107.99 146.898 107.645 146.235 107.418 145.464C107.191 144.693 107.078 143.838 107.078 142.897C107.078 141.65 107.282 140.562 107.69 139.633C108.098 138.704 108.716 137.978 109.543 137.457C110.382 136.936 111.436 136.675 112.705 136.675C113.918 136.675 114.938 136.936 115.765 137.457C116.592 137.967 117.216 138.692 117.635 139.633C118.066 140.562 118.281 141.656 118.281 142.914ZM108.693 142.914C108.693 143.934 108.835 144.812 109.118 145.549C109.401 146.286 109.838 146.852 110.427 147.249C111.028 147.646 111.781 147.844 112.688 147.844C113.606 147.844 114.354 147.646 114.932 147.249C115.521 146.852 115.958 146.286 116.241 145.549C116.524 144.812 116.666 143.934 116.666 142.914C116.666 141.384 116.349 140.188 115.714 139.327C115.079 138.454 114.076 138.018 112.705 138.018C111.787 138.018 111.028 138.216 110.427 138.613C109.838 138.998 109.401 139.559 109.118 140.296C108.835 141.021 108.693 141.894 108.693 142.914ZM124.809 149H123.279V138.205H119.488V136.862H128.583V138.205H124.809V149ZM141.182 142.914C141.182 143.855 141.063 144.71 140.825 145.481C140.587 146.24 140.23 146.898 139.754 147.453C139.289 148.008 138.706 148.433 138.003 148.728C137.312 149.023 136.507 149.17 135.589 149.17C134.637 149.17 133.81 149.023 133.107 148.728C132.404 148.422 131.821 147.997 131.356 147.453C130.891 146.898 130.546 146.235 130.319 145.464C130.092 144.693 129.979 143.838 129.979 142.897C129.979 141.65 130.183 140.562 130.591 139.633C130.999 138.704 131.617 137.978 132.444 137.457C133.283 136.936 134.337 136.675 135.606 136.675C136.819 136.675 137.839 136.936 138.666 137.457C139.493 137.967 140.117 138.692 140.536 139.633C140.967 140.562 141.182 141.656 141.182 142.914ZM131.594 142.914C131.594 143.934 131.736 144.812 132.019 145.549C132.302 146.286 132.739 146.852 133.328 147.249C133.929 147.646 134.682 147.844 135.589 147.844C136.507 147.844 137.255 147.646 137.833 147.249C138.422 146.852 138.859 146.286 139.142 145.549C139.425 144.812 139.567 143.934 139.567 142.914C139.567 141.384 139.25 140.188 138.615 139.327C137.98 138.454 136.977 138.018 135.606 138.018C134.688 138.018 133.929 138.216 133.328 138.613C132.739 138.998 132.302 139.559 132.019 140.296C131.736 141.021 131.594 141.894 131.594 142.914ZM147.85 136.862C148.859 136.862 149.703 136.958 150.383 137.151C151.074 137.344 151.59 137.661 151.93 138.103C152.281 138.545 152.457 139.134 152.457 139.871C152.457 140.347 152.366 140.772 152.185 141.146C152.015 141.509 151.754 141.815 151.403 142.064C151.063 142.302 150.644 142.466 150.145 142.557V142.642C150.655 142.721 151.114 142.869 151.522 143.084C151.941 143.299 152.27 143.605 152.508 144.002C152.746 144.399 152.865 144.914 152.865 145.549C152.865 146.286 152.695 146.915 152.355 147.436C152.015 147.946 151.528 148.337 150.893 148.609C150.27 148.87 149.522 149 148.649 149H144.382V136.862H147.85ZM148.156 142.03C149.199 142.03 149.913 141.866 150.298 141.537C150.683 141.197 150.876 140.698 150.876 140.041C150.876 139.372 150.638 138.896 150.162 138.613C149.697 138.318 148.949 138.171 147.918 138.171H145.912V142.03H148.156ZM145.912 143.305V147.708H148.36C149.437 147.708 150.185 147.498 150.604 147.079C151.023 146.66 151.233 146.11 151.233 145.43C151.233 144.999 151.137 144.625 150.944 144.308C150.763 143.991 150.451 143.747 150.009 143.577C149.578 143.396 148.989 143.305 148.241 143.305H145.912ZM164.806 149H162.97L157.479 142.846V149H155.949V136.862H157.479V142.744L162.834 136.862H164.568L159.298 142.761L164.806 149ZM166.985 136.862H168.413V143.526C168.413 143.809 168.407 144.121 168.396 144.461C168.396 144.79 168.39 145.118 168.379 145.447C168.367 145.776 168.35 146.07 168.328 146.331C168.316 146.58 168.305 146.773 168.294 146.909H168.362L175.043 136.862H176.743V149H175.315V142.404C175.315 142.098 175.32 141.769 175.332 141.418C175.343 141.055 175.354 140.71 175.366 140.381C175.388 140.041 175.405 139.741 175.417 139.48C175.428 139.219 175.439 139.027 175.451 138.902H175.383L168.685 149H166.985V136.862ZM194.625 149H192.789L187.298 142.846V149H185.768V136.862H187.298V142.744L192.653 136.862H194.387L189.117 142.761L194.625 149ZM207.046 142.914C207.046 143.855 206.927 144.71 206.689 145.481C206.451 146.24 206.094 146.898 205.618 147.453C205.153 148.008 204.569 148.433 203.867 148.728C203.175 149.023 202.371 149.17 201.453 149.17C200.501 149.17 199.673 149.023 198.971 148.728C198.268 148.422 197.684 147.997 197.22 147.453C196.755 146.898 196.409 146.235 196.183 145.464C195.956 144.693 195.843 143.838 195.843 142.897C195.843 141.65 196.047 140.562 196.455 139.633C196.863 138.704 197.48 137.978 198.308 137.457C199.146 136.936 200.2 136.675 201.47 136.675C202.682 136.675 203.702 136.936 204.53 137.457C205.357 137.967 205.98 138.692 206.4 139.633C206.83 140.562 207.046 141.656 207.046 142.914ZM197.458 142.914C197.458 143.934 197.599 144.812 197.883 145.549C198.166 146.286 198.602 146.852 199.192 147.249C199.792 147.646 200.546 147.844 201.453 147.844C202.371 147.844 203.119 147.646 203.697 147.249C204.286 146.852 204.722 146.286 205.006 145.549C205.289 144.812 205.431 143.934 205.431 142.914C205.431 141.384 205.113 140.188 204.479 139.327C203.844 138.454 202.841 138.018 201.47 138.018C200.552 138.018 199.792 138.216 199.192 138.613C198.602 138.998 198.166 139.559 197.883 140.296C197.599 141.021 197.458 141.894 197.458 142.914ZM213.161 142.761L208.452 136.862H210.152L214.793 142.744V136.862H216.255V142.744L220.896 136.862H222.596L217.887 142.744L222.749 149H220.998L216.255 142.846V149H214.793V142.846L210.033 149H208.282L213.161 142.761ZM224.951 136.862H226.379V143.526C226.379 143.809 226.373 144.121 226.362 144.461C226.362 144.79 226.356 145.118 226.345 145.447C226.333 145.776 226.316 146.07 226.294 146.331C226.282 146.58 226.271 146.773 226.26 146.909H226.328L233.009 136.862H234.709V149H233.281V142.404C233.281 142.098 233.286 141.769 233.298 141.418C233.309 141.055 233.32 140.71 233.332 140.381C233.354 140.041 233.371 139.741 233.383 139.48C233.394 139.219 233.405 139.027 233.417 138.902H233.349L226.651 149H224.951V136.862ZM239.002 147.206C239.688 147.206 240.031 147.623 240.031 148.456C240.031 149.028 239.952 149.589 239.793 150.139C239.64 150.694 239.427 151.207 239.155 151.678H238.322C238.521 151.168 238.671 150.709 238.773 150.301C238.881 149.898 238.946 149.502 238.968 149.111C238.674 149.099 238.439 149.006 238.263 148.83C238.093 148.654 238.008 148.428 238.008 148.15C238.008 147.861 238.096 147.631 238.271 147.461C238.453 147.291 238.696 147.206 239.002 147.206ZM86.5227 176L82.5277 165.358H82.4597C82.4824 165.585 82.4994 165.874 82.5107 166.225C82.5334 166.576 82.5504 166.962 82.5617 167.381C82.5731 167.789 82.5787 168.208 82.5787 168.639V176H81.1677V163.862H83.4287L87.1687 173.807H87.2367L91.0447 163.862H93.2887V176H91.7757V168.537C91.7757 168.14 91.7814 167.749 91.7927 167.364C91.8041 166.967 91.8211 166.599 91.8437 166.259C91.8664 165.908 91.8834 165.613 91.8947 165.375H91.8267L87.7807 176H86.5227ZM104.717 176L103.255 172.243H98.4436L96.9986 176H95.4516L100.195 163.811H101.572L106.298 176H104.717ZM101.436 167.211C101.402 167.12 101.345 166.956 101.266 166.718C101.186 166.48 101.107 166.236 101.028 165.987C100.96 165.726 100.903 165.528 100.858 165.392C100.801 165.619 100.739 165.851 100.671 166.089C100.614 166.316 100.552 166.525 100.484 166.718C100.427 166.911 100.376 167.075 100.331 167.211L98.9536 170.883H102.796L101.436 167.211ZM117.325 176H115.489L109.998 169.846V176H108.468V163.862H109.998V169.744L115.353 163.862H117.087L111.817 169.761L117.325 176ZM124.357 165.035C123.711 165.035 123.127 165.148 122.606 165.375C122.084 165.59 121.642 165.913 121.28 166.344C120.917 166.763 120.639 167.279 120.447 167.891C120.254 168.492 120.158 169.172 120.158 169.931C120.158 170.928 120.311 171.795 120.617 172.532C120.934 173.269 121.399 173.835 122.011 174.232C122.634 174.629 123.41 174.827 124.34 174.827C124.872 174.827 125.377 174.782 125.853 174.691C126.329 174.6 126.793 174.487 127.247 174.351V175.677C126.793 175.847 126.323 175.972 125.836 176.051C125.36 176.13 124.787 176.17 124.119 176.17C122.883 176.17 121.852 175.915 121.025 175.405C120.197 174.895 119.574 174.17 119.155 173.229C118.747 172.288 118.543 171.183 118.543 169.914C118.543 168.996 118.667 168.157 118.917 167.398C119.177 166.639 119.551 165.981 120.039 165.426C120.537 164.871 121.149 164.446 121.875 164.151C122.6 163.845 123.433 163.692 124.374 163.692C124.997 163.692 125.598 163.754 126.176 163.879C126.754 164.004 127.269 164.179 127.723 164.406L127.111 165.698C126.737 165.528 126.317 165.375 125.853 165.239C125.399 165.103 124.901 165.035 124.357 165.035ZM130.423 163.862H131.851V170.526C131.851 170.809 131.845 171.121 131.834 171.461C131.834 171.79 131.828 172.118 131.817 172.447C131.806 172.776 131.789 173.07 131.766 173.331C131.755 173.58 131.743 173.773 131.732 173.909H131.8L138.481 163.862H140.181V176H138.753V169.404C138.753 169.098 138.759 168.769 138.77 168.418C138.781 168.055 138.793 167.71 138.804 167.381C138.827 167.041 138.844 166.741 138.855 166.48C138.866 166.219 138.878 166.027 138.889 165.902H138.821L132.123 176H130.423V163.862ZM149.32 176L145.325 165.358H145.257C145.279 165.585 145.296 165.874 145.308 166.225C145.33 166.576 145.347 166.962 145.359 167.381C145.37 167.789 145.376 168.208 145.376 168.639V176H143.965V163.862H146.226L149.966 173.807H150.034L153.842 163.862H156.086V176H154.573V168.537C154.573 168.14 154.578 167.749 154.59 167.364C154.601 166.967 154.618 166.599 154.641 166.259C154.663 165.908 154.68 165.613 154.692 165.375H154.624L150.578 176H149.32ZM167.514 176L166.052 172.243H161.241L159.796 176H158.249L162.992 163.811H164.369L169.095 176H167.514ZM164.233 167.211C164.199 167.12 164.142 166.956 164.063 166.718C163.983 166.48 163.904 166.236 163.825 165.987C163.757 165.726 163.7 165.528 163.655 165.392C163.598 165.619 163.536 165.851 163.468 166.089C163.411 166.316 163.349 166.525 163.281 166.718C163.224 166.911 163.173 167.075 163.128 167.211L161.751 170.883H165.593L164.233 167.211ZM180.003 176H178.473V165.205H174.631C174.552 165.828 174.467 166.486 174.376 167.177C174.285 167.857 174.189 168.531 174.087 169.2C173.996 169.869 173.906 170.498 173.815 171.087C173.724 171.676 173.634 172.192 173.543 172.634C173.396 173.393 173.214 174.039 172.999 174.572C172.784 175.105 172.495 175.507 172.132 175.779C171.781 176.051 171.316 176.187 170.738 176.187C170.545 176.187 170.347 176.164 170.143 176.119C169.95 176.085 169.78 176.04 169.633 175.983V174.708C169.758 174.765 169.899 174.816 170.058 174.861C170.217 174.895 170.387 174.912 170.568 174.912C170.908 174.912 171.174 174.776 171.367 174.504C171.571 174.221 171.73 173.875 171.843 173.467C171.956 173.048 172.053 172.634 172.132 172.226C172.2 171.897 172.279 171.461 172.37 170.917C172.461 170.362 172.557 169.716 172.659 168.979C172.772 168.242 172.886 167.443 172.999 166.582C173.124 165.709 173.243 164.803 173.356 163.862H180.003V176ZM183.811 176V163.862H185.341V168.996H187.619C188.753 168.996 189.654 169.149 190.322 169.455C190.991 169.761 191.473 170.175 191.767 170.696C192.062 171.217 192.209 171.801 192.209 172.447C192.209 173.161 192.045 173.784 191.716 174.317C191.399 174.85 190.917 175.263 190.271 175.558C189.625 175.853 188.804 176 187.806 176H183.811ZM187.653 174.691C188.639 174.691 189.382 174.51 189.88 174.147C190.379 173.773 190.628 173.206 190.628 172.447C190.628 171.926 190.504 171.512 190.254 171.206C190.016 170.889 189.659 170.662 189.183 170.526C188.719 170.39 188.135 170.322 187.432 170.322H185.341V174.691H187.653ZM204.51 176H202.98V170.339H196.758V176H195.228V163.862H196.758V168.996H202.98V163.862H204.51V176ZM218.93 169.914C218.93 170.855 218.811 171.71 218.573 172.481C218.335 173.24 217.978 173.898 217.502 174.453C217.037 175.008 216.454 175.433 215.751 175.728C215.06 176.023 214.255 176.17 213.337 176.17C212.385 176.17 211.558 176.023 210.855 175.728C210.152 175.422 209.569 174.997 209.104 174.453C208.639 173.898 208.294 173.235 208.067 172.464C207.84 171.693 207.727 170.838 207.727 169.897C207.727 168.65 207.931 167.562 208.339 166.633C208.747 165.704 209.365 164.978 210.192 164.457C211.031 163.936 212.085 163.675 213.354 163.675C214.567 163.675 215.587 163.936 216.414 164.457C217.241 164.967 217.865 165.692 218.284 166.633C218.715 167.562 218.93 168.656 218.93 169.914ZM209.342 169.914C209.342 170.934 209.484 171.812 209.767 172.549C210.05 173.286 210.487 173.852 211.076 174.249C211.677 174.646 212.43 174.844 213.337 174.844C214.255 174.844 215.003 174.646 215.581 174.249C216.17 173.852 216.607 173.286 216.89 172.549C217.173 171.812 217.315 170.934 217.315 169.914C217.315 168.384 216.998 167.188 216.363 166.327C215.728 165.454 214.725 165.018 213.354 165.018C212.436 165.018 211.677 165.216 211.076 165.613C210.487 165.998 210.05 166.559 209.767 167.296C209.484 168.021 209.342 168.894 209.342 169.914ZM87.8392 203V190.862H96.9512V203H95.4382V192.205H89.3692V203H87.8392ZM111.375 196.914C111.375 197.855 111.256 198.71 111.018 199.481C110.78 200.24 110.423 200.898 109.947 201.453C109.482 202.008 108.898 202.433 108.196 202.728C107.504 203.023 106.7 203.17 105.782 203.17C104.83 203.17 104.002 203.023 103.3 202.728C102.597 202.422 102.013 201.997 101.549 201.453C101.084 200.898 100.738 200.235 100.512 199.464C100.285 198.693 100.172 197.838 100.172 196.897C100.172 195.65 100.376 194.562 100.784 193.633C101.192 192.704 101.809 191.978 102.637 191.457C103.475 190.936 104.529 190.675 105.799 190.675C107.011 190.675 108.031 190.936 108.859 191.457C109.686 191.967 110.309 192.692 110.729 193.633C111.159 194.562 111.375 195.656 111.375 196.914ZM101.787 196.914C101.787 197.934 101.928 198.812 102.212 199.549C102.495 200.286 102.931 200.852 103.521 201.249C104.121 201.646 104.875 201.844 105.782 201.844C106.7 201.844 107.448 201.646 108.026 201.249C108.615 200.852 109.051 200.286 109.335 199.549C109.618 198.812 109.76 197.934 109.76 196.914C109.76 195.384 109.442 194.188 108.808 193.327C108.173 192.454 107.17 192.018 105.799 192.018C104.881 192.018 104.121 192.216 103.521 192.613C102.931 192.998 102.495 193.559 102.212 194.296C101.928 195.021 101.787 195.894 101.787 196.914ZM122.42 190.862V201.64H123.967V206.196H122.505V203H114.158V206.196H112.696V201.64H113.631C114.039 200.937 114.424 200.15 114.787 199.277C115.161 198.404 115.49 197.492 115.773 196.54C116.056 195.577 116.289 194.613 116.47 193.65C116.651 192.687 116.765 191.757 116.81 190.862H122.42ZM118.153 192.239C118.108 192.896 117.994 193.639 117.813 194.466C117.643 195.293 117.422 196.143 117.15 197.016C116.889 197.877 116.595 198.71 116.266 199.515C115.949 200.32 115.609 201.028 115.246 201.64H120.907V192.239H118.153ZM134.752 203H133.018L129.805 197.73L126.541 203H124.926L128.955 196.676L125.181 190.862H126.881L129.856 195.622L132.848 190.862H134.463L130.706 196.642L134.752 203ZM147.237 196.914C147.237 197.855 147.118 198.71 146.88 199.481C146.642 200.24 146.285 200.898 145.809 201.453C145.344 202.008 144.761 202.433 144.058 202.728C143.367 203.023 142.562 203.17 141.644 203.17C140.692 203.17 139.865 203.023 139.162 202.728C138.459 202.422 137.876 201.997 137.411 201.453C136.946 200.898 136.601 200.235 136.374 199.464C136.147 198.693 136.034 197.838 136.034 196.897C136.034 195.65 136.238 194.562 136.646 193.633C137.054 192.704 137.672 191.978 138.499 191.457C139.338 190.936 140.392 190.675 141.661 190.675C142.874 190.675 143.894 190.936 144.721 191.457C145.548 191.967 146.172 192.692 146.591 193.633C147.022 194.562 147.237 195.656 147.237 196.914ZM137.649 196.914C137.649 197.934 137.791 198.812 138.074 199.549C138.357 200.286 138.794 200.852 139.383 201.249C139.984 201.646 140.737 201.844 141.644 201.844C142.562 201.844 143.31 201.646 143.888 201.249C144.477 200.852 144.914 200.286 145.197 199.549C145.48 198.812 145.622 197.934 145.622 196.914C145.622 195.384 145.305 194.188 144.67 193.327C144.035 192.454 143.032 192.018 141.661 192.018C140.743 192.018 139.984 192.216 139.383 192.613C138.794 192.998 138.357 193.559 138.074 194.296C137.791 195.021 137.649 195.894 137.649 196.914ZM158.282 190.862V201.64H159.829V206.196H158.367V203H150.02V206.196H148.558V201.64H149.493C149.901 200.937 150.286 200.15 150.649 199.277C151.023 198.404 151.352 197.492 151.635 196.54C151.918 195.577 152.151 194.613 152.332 193.65C152.513 192.687 152.627 191.757 152.672 190.862H158.282ZM154.015 192.239C153.97 192.896 153.856 193.639 153.675 194.466C153.505 195.293 153.284 196.143 153.012 197.016C152.751 197.877 152.457 198.71 152.128 199.515C151.811 200.32 151.471 201.028 151.108 201.64H156.769V192.239H154.015ZM166.024 197.968L162.879 203H161.094L164.494 197.696C164.063 197.549 163.655 197.345 163.27 197.084C162.896 196.823 162.59 196.466 162.352 196.013C162.114 195.56 161.995 194.976 161.995 194.262C161.995 193.163 162.375 192.324 163.134 191.746C163.893 191.157 165.027 190.862 166.534 190.862H169.934V203H168.404V197.968H166.024ZM166.568 192.171C165.922 192.171 165.378 192.245 164.936 192.392C164.494 192.539 164.154 192.772 163.916 193.089C163.689 193.406 163.576 193.82 163.576 194.33C163.576 195.078 163.825 195.656 164.324 196.064C164.823 196.472 165.593 196.676 166.636 196.676H168.404V192.171H166.568ZM189.274 201.657V206.196H187.812V203H173.736V190.862H175.266V201.64H179.992V190.862H181.539V201.64H186.282V190.862H187.812V201.657H189.274ZM191.961 190.862H193.389V197.526C193.389 197.809 193.383 198.121 193.372 198.461C193.372 198.79 193.366 199.118 193.355 199.447C193.343 199.776 193.326 200.07 193.304 200.331C193.292 200.58 193.281 200.773 193.27 200.909H193.338L200.019 190.862H201.719V203H200.291V196.404C200.291 196.098 200.296 195.769 200.308 195.418C200.319 195.055 200.33 194.71 200.342 194.381C200.364 194.041 200.381 193.741 200.393 193.48C200.404 193.219 200.415 193.027 200.427 192.902H200.359L193.661 203H191.961V190.862ZM212.285 203H205.502V190.862H212.285V192.205H207.032V195.996H211.979V197.322H207.032V201.657H212.285V203ZM90.1366 217.862H91.5646V224.526C91.5646 224.809 91.559 225.121 91.5476 225.461C91.5476 225.79 91.542 226.118 91.5306 226.447C91.5193 226.776 91.5023 227.07 91.4796 227.331C91.4683 227.58 91.457 227.773 91.4456 227.909H91.5136L98.1946 217.862H99.8946V230H98.4666V223.404C98.4666 223.098 98.4723 222.769 98.4836 222.418C98.495 222.055 98.5063 221.71 98.5176 221.381C98.5403 221.041 98.5573 220.741 98.5686 220.48C98.58 220.219 98.5913 220.027 98.6026 219.902H98.5346L91.8366 230H90.1366V217.862ZM109.033 230L105.038 219.358H104.97C104.993 219.585 105.01 219.874 105.021 220.225C105.044 220.576 105.061 220.962 105.072 221.381C105.084 221.789 105.089 222.208 105.089 222.639V230H103.678V217.862H105.939L109.679 227.807H109.747L113.555 217.862H115.799V230H114.286V222.537C114.286 222.14 114.292 221.749 114.303 221.364C114.315 220.967 114.332 220.599 114.354 220.259C114.377 219.908 114.394 219.613 114.405 219.375H114.337L110.291 230H109.033ZM126.394 230H119.611V217.862H126.394V219.205H121.141V222.996H126.088V224.322H121.141V228.657H126.394V230ZM138.85 230H137.32V224.339H131.098V230H129.568V217.862H131.098V222.996H137.32V217.862H138.85V230ZM151.96 230H150.43V224.339H144.208V230H142.678V217.862H144.208V222.996H150.43V217.862H151.96V230ZM166.38 223.914C166.38 224.855 166.261 225.71 166.023 226.481C165.785 227.24 165.428 227.898 164.952 228.453C164.487 229.008 163.903 229.433 163.201 229.728C162.509 230.023 161.705 230.17 160.787 230.17C159.835 230.17 159.007 230.023 158.305 229.728C157.602 229.422 157.018 228.997 156.554 228.453C156.089 227.898 155.743 227.235 155.517 226.464C155.29 225.693 155.177 224.838 155.177 223.897C155.177 222.65 155.381 221.562 155.789 220.633C156.197 219.704 156.814 218.978 157.642 218.457C158.48 217.936 159.534 217.675 160.804 217.675C162.016 217.675 163.036 217.936 163.864 218.457C164.691 218.967 165.314 219.692 165.734 220.633C166.164 221.562 166.38 222.656 166.38 223.914ZM156.792 223.914C156.792 224.934 156.933 225.812 157.217 226.549C157.5 227.286 157.936 227.852 158.526 228.249C159.126 228.646 159.88 228.844 160.787 228.844C161.705 228.844 162.453 228.646 163.031 228.249C163.62 227.852 164.056 227.286 164.34 226.549C164.623 225.812 164.765 224.934 164.765 223.914C164.765 222.384 164.447 221.188 163.813 220.327C163.178 219.454 162.175 219.018 160.804 219.018C159.886 219.018 159.126 219.216 158.526 219.613C157.936 219.998 157.5 220.559 157.217 221.296C156.933 222.021 156.792 222.894 156.792 223.914ZM178.289 217.862C179.298 217.862 180.142 217.958 180.822 218.151C181.514 218.344 182.029 218.661 182.369 219.103C182.721 219.545 182.896 220.134 182.896 220.871C182.896 221.347 182.806 221.772 182.624 222.146C182.454 222.509 182.194 222.815 181.842 223.064C181.502 223.302 181.083 223.466 180.584 223.557V223.642C181.094 223.721 181.553 223.869 181.961 224.084C182.381 224.299 182.709 224.605 182.947 225.002C183.185 225.399 183.304 225.914 183.304 226.549C183.304 227.286 183.134 227.915 182.794 228.436C182.454 228.946 181.967 229.337 181.332 229.609C180.709 229.87 179.961 230 179.088 230H174.821V217.862H178.289ZM178.595 223.03C179.638 223.03 180.352 222.866 180.737 222.537C181.123 222.197 181.315 221.698 181.315 221.041C181.315 220.372 181.077 219.896 180.601 219.613C180.137 219.318 179.389 219.171 178.357 219.171H176.351V223.03H178.595ZM176.351 224.305V228.708H178.799C179.876 228.708 180.624 228.498 181.043 228.079C181.463 227.66 181.672 227.11 181.672 226.43C181.672 225.999 181.576 225.625 181.383 225.308C181.202 224.991 180.89 224.747 180.448 224.577C180.018 224.396 179.428 224.305 178.68 224.305H176.351ZM194.004 230L192.542 226.243H187.731L186.286 230H184.739L189.482 217.811H190.859L195.585 230H194.004ZM190.723 221.211C190.689 221.12 190.632 220.956 190.553 220.718C190.474 220.48 190.394 220.236 190.315 219.987C190.247 219.726 190.19 219.528 190.145 219.392C190.088 219.619 190.026 219.851 189.958 220.089C189.901 220.316 189.839 220.525 189.771 220.718C189.714 220.911 189.663 221.075 189.618 221.211L188.241 224.883H192.083L190.723 221.211ZM203.111 230L199.116 219.358H199.048C199.07 219.585 199.087 219.874 199.099 220.225C199.121 220.576 199.138 220.962 199.15 221.381C199.161 221.789 199.167 222.208 199.167 222.639V230H197.756V217.862H200.017L203.757 227.807H203.825L207.633 217.862H209.877V230H208.364V222.537C208.364 222.14 208.369 221.749 208.381 221.364C208.392 220.967 208.409 220.599 208.432 220.259C208.454 219.908 208.471 219.613 208.483 219.375H208.415L204.369 230H203.111Z" fill="#B11548"/>
</svg>
