<svg width="301" height="285" viewBox="0 0 301 285" fill="none" xmlns="http://www.w3.org/2000/svg">
<path d="M149.91 0.431839C150.261 0.174672 150.739 0.174674 151.09 0.43184L197.516 34.3906C197.654 34.4916 197.816 34.5555 197.986 34.5762L256.153 41.6441C256.605 41.699 256.962 42.0517 257.023 42.5025L264.478 97.504C264.503 97.6867 264.578 97.859 264.694 98.0019L300.484 141.868C300.784 142.236 300.784 142.764 300.484 143.132L264.694 186.998C264.578 187.141 264.503 187.313 264.478 187.496L257.023 242.497C256.962 242.948 256.605 243.301 256.153 243.356L197.986 250.424C197.816 250.444 197.654 250.508 197.516 250.609L151.09 284.568C150.739 284.825 150.261 284.825 149.91 284.568L103.484 250.609C103.346 250.508 103.184 250.444 103.014 250.424L44.847 243.356C44.3955 243.301 44.0378 242.948 43.9767 242.497L36.5219 187.496C36.4971 187.313 36.4223 187.141 36.3058 186.998L0.515789 143.132C0.215555 142.764 0.215556 142.236 0.515789 141.868L36.3058 98.0019C36.4223 97.859 36.4971 97.6867 36.5219 97.504L43.9767 42.5025C44.0378 42.0517 44.3954 41.699 44.847 41.6441L103.014 34.5762C103.184 34.5555 103.346 34.4916 103.484 34.3906L149.91 0.431839Z" fill="#E2B2CA"/>
<path d="M84.1053 226.022L87.014 228.887L89.8786 225.978L86.9699 223.113L84.1053 226.022ZM216.887 225.008L213.978 222.144L211.114 225.053L214.022 227.917L216.887 225.008ZM86.9958 226.5L214.004 225.531L213.996 224.531L86.9881 225.5L86.9958 226.5Z" fill="#EBAF14"/>
<path d="M69.9497 71.035C69.3037 71.035 68.72 71.1483 68.1987 71.375C67.6774 71.5903 67.2354 71.9133 66.8727 72.344C66.51 72.7633 66.2324 73.279 66.0397 73.891C65.847 74.4917 65.7507 75.1717 65.7507 75.931C65.7507 76.9283 65.9037 77.7953 66.2097 78.532C66.527 79.2687 66.9917 79.8353 67.6037 80.232C68.227 80.6287 69.0034 80.827 69.9327 80.827C70.4654 80.827 70.9697 80.7817 71.4457 80.691C71.9217 80.6003 72.3864 80.487 72.8397 80.351V81.677C72.3864 81.847 71.916 81.9717 71.4287 82.051C70.9527 82.1303 70.3804 82.17 69.7117 82.17C68.4764 82.17 67.445 81.915 66.6177 81.405C65.7904 80.895 65.167 80.1697 64.7477 79.229C64.3397 78.2883 64.1357 77.1833 64.1357 75.914C64.1357 74.996 64.2604 74.1573 64.5097 73.398C64.7704 72.6387 65.1444 71.9813 65.6317 71.426C66.1304 70.8707 66.7424 70.4457 67.4677 70.151C68.193 69.845 69.026 69.692 69.9667 69.692C70.59 69.692 71.1907 69.7543 71.7687 69.879C72.3467 70.0037 72.8624 70.1793 73.3157 70.406L72.7037 71.698C72.3297 71.528 71.9104 71.375 71.4457 71.239C70.9924 71.103 70.4937 71.035 69.9497 71.035ZM84.7084 69.862C85.717 69.862 86.5614 69.9583 87.2414 70.151C87.9327 70.3437 88.4484 70.661 88.7884 71.103C89.1397 71.545 89.3154 72.1343 89.3154 72.871C89.3154 73.347 89.2247 73.772 89.0434 74.146C88.8734 74.5087 88.6127 74.8147 88.2614 75.064C87.9214 75.302 87.502 75.4663 87.0034 75.557V75.642C87.5134 75.7213 87.9724 75.8687 88.3804 76.084C88.7997 76.2993 89.1284 76.6053 89.3664 77.002C89.6044 77.3987 89.7234 77.9143 89.7234 78.549C89.7234 79.2857 89.5534 79.9147 89.2134 80.436C88.8734 80.946 88.386 81.337 87.7514 81.609C87.128 81.8697 86.38 82 85.5074 82H81.2404V69.862H84.7084ZM85.0144 75.03C86.057 75.03 86.771 74.8657 87.1564 74.537C87.5417 74.197 87.7344 73.6983 87.7344 73.041C87.7344 72.3723 87.4964 71.8963 87.0204 71.613C86.5557 71.3183 85.8077 71.171 84.7764 71.171H82.7704V75.03H85.0144ZM82.7704 76.305V80.708H85.2184C86.295 80.708 87.043 80.4983 87.4624 80.079C87.8817 79.6597 88.0914 79.11 88.0914 78.43C88.0914 77.9993 87.995 77.6253 87.8024 77.308C87.621 76.9907 87.3094 76.747 86.8674 76.577C86.4367 76.3957 85.8474 76.305 85.0994 76.305H82.7704ZM100.423 82L98.961 78.243H94.15L92.705 82H91.158L95.901 69.811H97.278L102.004 82H100.423ZM97.142 73.211C97.108 73.1203 97.0513 72.956 96.972 72.718C96.8927 72.48 96.8133 72.2363 96.734 71.987C96.666 71.7263 96.6093 71.528 96.564 71.392C96.5073 71.6187 96.445 71.851 96.377 72.089C96.3203 72.3157 96.258 72.5253 96.19 72.718C96.1333 72.9107 96.0823 73.075 96.037 73.211L94.66 76.883H98.502L97.142 73.211ZM109.529 82L105.534 71.358H105.466C105.489 71.5847 105.506 71.8737 105.517 72.225C105.54 72.5763 105.557 72.9617 105.568 73.381C105.58 73.789 105.585 74.2083 105.585 74.639V82H104.174V69.862H106.435L110.175 79.807H110.243L114.051 69.862H116.295V82H114.782V74.537C114.782 74.1403 114.788 73.7493 114.799 73.364C114.811 72.9673 114.828 72.599 114.85 72.259C114.873 71.9077 114.89 71.613 114.901 71.375H114.833L110.787 82H109.529ZM120.124 69.862H121.552V76.526C121.552 76.8093 121.547 77.121 121.535 77.461C121.535 77.7897 121.53 78.1183 121.518 78.447C121.507 78.7757 121.49 79.0703 121.467 79.331C121.456 79.5803 121.445 79.773 121.433 79.909H121.501L128.182 69.862H129.882V82H128.454V75.404C128.454 75.098 128.46 74.7693 128.471 74.418C128.483 74.0553 128.494 73.7097 128.505 73.381C128.528 73.041 128.545 72.7407 128.556 72.48C128.568 72.2193 128.579 72.0267 128.59 71.902H128.522L121.824 82H120.124V69.862ZM149.499 75.914C149.499 76.8547 149.38 77.7103 149.142 78.481C148.904 79.2403 148.547 79.8977 148.071 80.453C147.606 81.0083 147.022 81.4333 146.32 81.728C145.628 82.0227 144.824 82.17 143.906 82.17C142.954 82.17 142.126 82.0227 141.424 81.728C140.721 81.422 140.137 80.997 139.673 80.453C139.208 79.8977 138.862 79.2347 138.636 78.464C138.409 77.6933 138.296 76.8377 138.296 75.897C138.296 74.6503 138.5 73.5623 138.908 72.633C139.316 71.7037 139.933 70.9783 140.761 70.457C141.599 69.9357 142.653 69.675 143.923 69.675C145.135 69.675 146.155 69.9357 146.983 70.457C147.81 70.967 148.433 71.6923 148.853 72.633C149.283 73.5623 149.499 74.656 149.499 75.914ZM139.911 75.914C139.911 76.934 140.052 77.8123 140.336 78.549C140.619 79.2857 141.055 79.8523 141.645 80.249C142.245 80.6457 142.999 80.844 143.906 80.844C144.824 80.844 145.572 80.6457 146.15 80.249C146.739 79.8523 147.175 79.2857 147.459 78.549C147.742 77.8123 147.884 76.934 147.884 75.914C147.884 74.384 147.566 73.1883 146.932 72.327C146.297 71.4543 145.294 71.018 143.923 71.018C143.005 71.018 142.245 71.2163 141.645 71.613C141.055 71.9983 140.619 72.5593 140.336 73.296C140.052 74.0213 139.911 74.894 139.911 75.914ZM157.901 71.035C157.255 71.035 156.671 71.1483 156.15 71.375C155.628 71.5903 155.186 71.9133 154.824 72.344C154.461 72.7633 154.183 73.279 153.991 73.891C153.798 74.4917 153.702 75.1717 153.702 75.931C153.702 76.9283 153.855 77.7953 154.161 78.532C154.478 79.2687 154.943 79.8353 155.555 80.232C156.178 80.6287 156.954 80.827 157.884 80.827C158.416 80.827 158.921 80.7817 159.397 80.691C159.873 80.6003 160.337 80.487 160.791 80.351V81.677C160.337 81.847 159.867 81.9717 159.38 82.051C158.904 82.1303 158.331 82.17 157.663 82.17C156.427 82.17 155.396 81.915 154.569 81.405C153.741 80.895 153.118 80.1697 152.699 79.229C152.291 78.2883 152.087 77.1833 152.087 75.914C152.087 74.996 152.211 74.1573 152.461 73.398C152.721 72.6387 153.095 71.9813 153.583 71.426C154.081 70.8707 154.693 70.4457 155.419 70.151C156.144 69.845 156.977 69.692 157.918 69.692C158.541 69.692 159.142 69.7543 159.72 69.879C160.298 70.0037 160.813 70.1793 161.267 70.406L160.655 71.698C160.281 71.528 159.861 71.375 159.397 71.239C158.943 71.103 158.445 71.035 157.901 71.035ZM167.792 82H166.262V71.205H162.471V69.862H171.566V71.205H167.792V82ZM180.327 82L178.865 78.243H174.054L172.609 82H171.062L175.805 69.811H177.182L181.908 82H180.327ZM177.046 73.211C177.012 73.1203 176.955 72.956 176.876 72.718C176.797 72.48 176.717 72.2363 176.638 71.987C176.57 71.7263 176.513 71.528 176.468 71.392C176.411 71.6187 176.349 71.851 176.281 72.089C176.224 72.3157 176.162 72.5253 176.094 72.718C176.037 72.9107 175.986 73.075 175.941 73.211L174.564 76.883H178.406L177.046 73.211ZM193.36 82H191.83V76.339H185.608V82H184.078V69.862H185.608V74.996H191.83V69.862H193.36V82ZM202.272 78.549C201.909 79.3537 201.541 80.028 201.167 80.572C200.804 81.1047 200.374 81.507 199.875 81.779C199.376 82.0397 198.742 82.17 197.971 82.17C197.654 82.17 197.353 82.1473 197.07 82.102C196.798 82.0567 196.549 81.9943 196.322 81.915V80.402C196.549 80.504 196.792 80.589 197.053 80.657C197.314 80.7137 197.586 80.742 197.869 80.742C198.288 80.742 198.645 80.6853 198.94 80.572C199.246 80.4473 199.512 80.249 199.739 79.977C199.977 79.705 200.198 79.3423 200.402 78.889L195.727 69.862H197.41L200.793 76.543C200.838 76.6223 200.884 76.7187 200.929 76.832C200.974 76.934 201.02 77.0417 201.065 77.155C201.122 77.2683 201.167 77.376 201.201 77.478H201.269C201.303 77.3987 201.337 77.308 201.371 77.206C201.416 77.0927 201.456 76.985 201.49 76.883C201.535 76.7697 201.575 76.6733 201.609 76.594L204.533 69.862H206.148L202.272 78.549ZM212.149 82H210.619V71.205H206.828V69.862H215.923V71.205H212.149V82ZM223.134 71.035C222.488 71.035 221.904 71.1483 221.383 71.375C220.861 71.5903 220.419 71.9133 220.057 72.344C219.694 72.7633 219.416 73.279 219.224 73.891C219.031 74.4917 218.935 75.1717 218.935 75.931C218.935 76.9283 219.088 77.7953 219.394 78.532C219.711 79.2687 220.176 79.8353 220.788 80.232C221.411 80.6287 222.187 80.827 223.117 80.827C223.649 80.827 224.154 80.7817 224.63 80.691C225.106 80.6003 225.57 80.487 226.024 80.351V81.677C225.57 81.847 225.1 81.9717 224.613 82.051C224.137 82.1303 223.564 82.17 222.896 82.17C221.66 82.17 220.629 81.915 219.802 81.405C218.974 80.895 218.351 80.1697 217.932 79.229C217.524 78.2883 217.32 77.1833 217.32 75.914C217.32 74.996 217.444 74.1573 217.694 73.398C217.954 72.6387 218.328 71.9813 218.816 71.426C219.314 70.8707 219.926 70.4457 220.652 70.151C221.377 69.845 222.21 69.692 223.151 69.692C223.774 69.692 224.375 69.7543 224.953 69.879C225.531 70.0037 226.046 70.1793 226.5 70.406L225.888 71.698C225.514 71.528 225.094 71.375 224.63 71.239C224.176 71.103 223.678 71.035 223.134 71.035ZM232.838 76.968L229.693 82H227.908L231.308 76.696C230.877 76.5487 230.469 76.3447 230.084 76.084C229.71 75.8233 229.404 75.4663 229.166 75.013C228.928 74.5597 228.809 73.976 228.809 73.262C228.809 72.1627 229.189 71.324 229.948 70.746C230.707 70.1567 231.841 69.862 233.348 69.862H236.748V82H235.218V76.968H232.838ZM233.382 71.171C232.736 71.171 232.192 71.2447 231.75 71.392C231.308 71.5393 230.968 71.7717 230.73 72.089C230.503 72.4063 230.39 72.82 230.39 73.33C230.39 74.078 230.639 74.656 231.138 75.064C231.637 75.472 232.407 75.676 233.45 75.676H235.218V71.171H233.382ZM59.1167 105.549C58.7541 106.354 58.3857 107.028 58.0117 107.572C57.6491 108.105 57.2184 108.507 56.7197 108.779C56.2211 109.04 55.5864 109.17 54.8157 109.17C54.4984 109.17 54.1981 109.147 53.9147 109.102C53.6427 109.057 53.3934 108.994 53.1667 108.915V107.402C53.3934 107.504 53.6371 107.589 53.8977 107.657C54.1584 107.714 54.4304 107.742 54.7137 107.742C55.1331 107.742 55.4901 107.685 55.7847 107.572C56.0907 107.447 56.3571 107.249 56.5837 106.977C56.8217 106.705 57.0427 106.342 57.2467 105.889L52.5717 96.862H54.2547L57.6377 103.543C57.6831 103.622 57.7284 103.719 57.7737 103.832C57.8191 103.934 57.8644 104.042 57.9097 104.155C57.9664 104.268 58.0117 104.376 58.0457 104.478H58.1137C58.1477 104.399 58.1817 104.308 58.2157 104.206C58.2611 104.093 58.3007 103.985 58.3347 103.883C58.3801 103.77 58.4197 103.673 58.4537 103.594L61.3777 96.862H62.9927L59.1167 105.549ZM73.7201 109H72.1901V104.019C71.5328 104.246 70.9151 104.433 70.3371 104.58C69.7705 104.716 69.1358 104.784 68.4331 104.784C67.2998 104.784 66.4215 104.523 65.7981 104.002C65.1748 103.469 64.8631 102.704 64.8631 101.707V96.862H66.3931V101.486C66.3931 102.143 66.5631 102.636 66.9031 102.965C67.2545 103.282 67.8155 103.441 68.5861 103.441C69.2548 103.441 69.8555 103.379 70.3881 103.254C70.9208 103.129 71.5215 102.959 72.1901 102.744V96.862H73.7201V109ZM84.3152 109H77.5322V96.862H84.3152V98.205H79.0622V101.996H84.0092V103.322H79.0622V107.657H84.3152V109ZM87.4885 109V96.862H94.6965V98.205H89.0185V101.996H90.8205C92.0332 101.996 92.9739 102.149 93.6425 102.455C94.3112 102.75 94.7759 103.158 95.0365 103.679C95.2972 104.189 95.4275 104.778 95.4275 105.447C95.4275 106.184 95.2802 106.818 94.9855 107.351C94.7022 107.884 94.2375 108.292 93.5915 108.575C92.9455 108.858 92.0955 109 91.0415 109H87.4885ZM90.8885 107.691C91.9765 107.691 92.7415 107.51 93.1835 107.147C93.6255 106.773 93.8465 106.206 93.8465 105.447C93.8465 104.926 93.7389 104.512 93.5235 104.206C93.3195 103.889 92.9795 103.662 92.5035 103.526C92.0389 103.39 91.4155 103.322 90.6335 103.322H89.0185V107.691H90.8885ZM107.74 109H106.21V103.339H99.9875V109H98.4575V96.862H99.9875V101.996H106.21V96.862H107.74V109ZM111.568 109V96.862H113.098V101.996H114.968C116.101 101.996 116.991 102.149 117.637 102.455C118.294 102.761 118.759 103.175 119.031 103.696C119.314 104.217 119.456 104.801 119.456 105.447C119.456 106.161 119.303 106.784 118.997 107.317C118.702 107.85 118.238 108.263 117.603 108.558C116.968 108.853 116.152 109 115.155 109H111.568ZM115.019 107.708C115.994 107.708 116.713 107.521 117.178 107.147C117.643 106.773 117.875 106.206 117.875 105.447C117.875 104.926 117.762 104.512 117.535 104.206C117.32 103.9 116.985 103.679 116.532 103.543C116.079 103.407 115.501 103.339 114.798 103.339H113.098V107.708H115.019ZM121.326 109V96.862H122.856V109H121.326ZM133.454 109H126.671V96.862H133.454V98.205H128.201V101.996H133.148V103.322H128.201V107.657H133.454V109ZM147.224 109L143.229 98.358H143.161C143.183 98.5847 143.2 98.8737 143.212 99.225C143.234 99.5763 143.251 99.9617 143.263 100.381C143.274 100.789 143.28 101.208 143.28 101.639V109H141.869V96.862H144.13L147.87 106.807H147.938L151.746 96.862H153.99V109H152.477V101.537C152.477 101.14 152.482 100.749 152.494 100.364C152.505 99.9673 152.522 99.599 152.545 99.259C152.567 98.9077 152.584 98.613 152.596 98.375H152.528L148.482 109H147.224ZM165.417 109L163.955 105.243H159.144L157.699 109H156.152L160.895 96.811H162.272L166.998 109H165.417ZM162.136 100.211C162.102 100.12 162.046 99.956 161.966 99.718C161.887 99.48 161.808 99.2363 161.728 98.987C161.66 98.7263 161.604 98.528 161.558 98.392C161.502 98.6187 161.439 98.851 161.371 99.089C161.315 99.3157 161.252 99.5253 161.184 99.718C161.128 99.9107 161.077 100.075 161.031 100.211L159.654 103.883H163.496L162.136 100.211ZM171.816 109H170.286V98.205H166.495V96.862H175.59V98.205H171.816V109ZM184.713 109H177.93V96.862H184.713V98.205H179.46V101.996H184.407V103.322H179.46V107.657H184.713V109ZM191.099 96.862C192.686 96.862 193.842 97.1737 194.567 97.797C195.292 98.4203 195.655 99.2987 195.655 100.432C195.655 100.931 195.57 101.412 195.4 101.877C195.241 102.33 194.975 102.738 194.601 103.101C194.227 103.464 193.728 103.753 193.105 103.968C192.482 104.172 191.717 104.274 190.81 104.274H189.416V109H187.886V96.862H191.099ZM190.963 98.171H189.416V102.965H190.64C191.411 102.965 192.051 102.886 192.561 102.727C193.071 102.557 193.451 102.291 193.7 101.928C193.949 101.565 194.074 101.089 194.074 100.5C194.074 99.718 193.825 99.1343 193.326 98.749C192.827 98.3637 192.04 98.171 190.963 98.171ZM198.706 96.862H200.134V103.526C200.134 103.809 200.128 104.121 200.117 104.461C200.117 104.79 200.111 105.118 200.1 105.447C200.089 105.776 200.072 106.07 200.049 106.331C200.038 106.58 200.026 106.773 200.015 106.909H200.083L206.764 96.862H208.464V109H207.036V102.404C207.036 102.098 207.042 101.769 207.053 101.418C207.064 101.055 207.076 100.71 207.087 100.381C207.11 100.041 207.127 99.7407 207.138 99.48C207.149 99.2193 207.161 99.0267 207.172 98.902H207.104L200.406 109H198.706V96.862ZM219.864 109L218.402 105.243H213.591L212.146 109H210.599L215.342 96.811H216.719L221.445 109H219.864ZM216.583 100.211C216.549 100.12 216.492 99.956 216.413 99.718C216.334 99.48 216.254 99.2363 216.175 98.987C216.107 98.7263 216.05 98.528 216.005 98.392C215.948 98.6187 215.886 98.851 215.818 99.089C215.761 99.3157 215.699 99.5253 215.631 99.718C215.574 99.9107 215.523 100.075 215.478 100.211L214.101 103.883H217.943L216.583 100.211ZM232.353 109H230.823V98.205H226.981C226.902 98.8283 226.817 99.4857 226.726 100.177C226.636 100.857 226.539 101.531 226.437 102.2C226.347 102.869 226.256 103.498 226.165 104.087C226.075 104.676 225.984 105.192 225.893 105.634C225.746 106.393 225.565 107.039 225.349 107.572C225.134 108.105 224.845 108.507 224.482 108.779C224.131 109.051 223.666 109.187 223.088 109.187C222.896 109.187 222.697 109.164 222.493 109.119C222.301 109.085 222.131 109.04 221.983 108.983V107.708C222.108 107.765 222.25 107.816 222.408 107.861C222.567 107.895 222.737 107.912 222.918 107.912C223.258 107.912 223.525 107.776 223.717 107.504C223.921 107.221 224.08 106.875 224.193 106.467C224.307 106.048 224.403 105.634 224.482 105.226C224.55 104.897 224.63 104.461 224.72 103.917C224.811 103.362 224.907 102.716 225.009 101.979C225.123 101.242 225.236 100.443 225.349 99.582C225.474 98.7093 225.593 97.8027 225.706 96.862H232.353V109ZM236.162 109V96.862H237.692V101.996H239.562C240.695 101.996 241.585 102.149 242.231 102.455C242.888 102.761 243.353 103.175 243.625 103.696C243.908 104.217 244.05 104.801 244.05 105.447C244.05 106.161 243.897 106.784 243.591 107.317C243.296 107.85 242.831 108.263 242.197 108.558C241.562 108.853 240.746 109 239.749 109H236.162ZM239.613 107.708C240.587 107.708 241.307 107.521 241.772 107.147C242.236 106.773 242.469 106.206 242.469 105.447C242.469 104.926 242.355 104.512 242.129 104.206C241.913 103.9 241.579 103.679 241.126 103.543C240.672 103.407 240.094 103.339 239.392 103.339H237.692V107.708H239.613ZM245.92 109V96.862H247.45V109H245.92ZM59.9609 123.862H61.3889V130.526C61.3889 130.809 61.3832 131.121 61.3719 131.461C61.3719 131.79 61.3662 132.118 61.3549 132.447C61.3436 132.776 61.3266 133.07 61.3039 133.331C61.2926 133.58 61.2812 133.773 61.2699 133.909H61.3379L68.0189 123.862H69.7189V136H68.2909V129.404C68.2909 129.098 68.2966 128.769 68.3079 128.418C68.3192 128.055 68.3306 127.71 68.3419 127.381C68.3646 127.041 68.3816 126.741 68.3929 126.48C68.4042 126.219 68.4156 126.027 68.4269 125.902H68.3589L61.6609 136H59.9609V123.862ZM83.9462 125.035C83.3002 125.035 82.7165 125.148 82.1952 125.375C81.6738 125.59 81.2318 125.913 80.8692 126.344C80.5065 126.763 80.2288 127.279 80.0362 127.891C79.8435 128.492 79.7472 129.172 79.7472 129.931C79.7472 130.928 79.9002 131.795 80.2062 132.532C80.5235 133.269 80.9882 133.835 81.6002 134.232C82.2235 134.629 82.9998 134.827 83.9292 134.827C84.4618 134.827 84.9662 134.782 85.4422 134.691C85.9182 134.6 86.3828 134.487 86.8362 134.351V135.677C86.3828 135.847 85.9125 135.972 85.4252 136.051C84.9492 136.13 84.3768 136.17 83.7082 136.17C82.4728 136.17 81.4415 135.915 80.6142 135.405C79.7868 134.895 79.1635 134.17 78.7442 133.229C78.3362 132.288 78.1322 131.183 78.1322 129.914C78.1322 128.996 78.2568 128.157 78.5062 127.398C78.7668 126.639 79.1408 125.981 79.6282 125.426C80.1268 124.871 80.7388 124.446 81.4642 124.151C82.1895 123.845 83.0225 123.692 83.9632 123.692C84.5865 123.692 85.1872 123.754 85.7652 123.879C86.3432 124.004 86.8588 124.179 87.3122 124.406L86.7002 125.698C86.3262 125.528 85.9068 125.375 85.4422 125.239C84.9888 125.103 84.4902 125.035 83.9462 125.035ZM98.2404 136H96.5064L93.2934 130.73L90.0294 136H88.4144L92.4434 129.676L88.6694 123.862H90.3694L93.3444 128.622L96.3364 123.862H97.9514L94.1944 129.642L98.2404 136ZM107.249 136H100.466V123.862H107.249V125.205H101.996V128.996H106.943V130.322H101.996V134.657H107.249V136ZM115.778 136L111.783 125.358H111.715C111.737 125.585 111.754 125.874 111.766 126.225C111.788 126.576 111.805 126.962 111.817 127.381C111.828 127.789 111.834 128.208 111.834 128.639V136H110.423V123.862H112.684L116.424 133.807H116.492L120.3 123.862H122.544V136H121.031V128.537C121.031 128.14 121.036 127.749 121.048 127.364C121.059 126.967 121.076 126.599 121.099 126.259C121.121 125.908 121.138 125.613 121.15 125.375H121.082L117.036 136H115.778ZM126.355 136V123.862H127.885V128.996H129.755C130.889 128.996 131.778 129.149 132.424 129.455C133.082 129.761 133.546 130.175 133.818 130.696C134.102 131.217 134.243 131.801 134.243 132.447C134.243 133.161 134.09 133.784 133.784 134.317C133.49 134.85 133.025 135.263 132.39 135.558C131.756 135.853 130.94 136 129.942 136H126.355ZM129.806 134.708C130.781 134.708 131.501 134.521 131.965 134.147C132.43 133.773 132.662 133.206 132.662 132.447C132.662 131.926 132.549 131.512 132.322 131.206C132.107 130.9 131.773 130.679 131.319 130.543C130.866 130.407 130.288 130.339 129.585 130.339H127.885V134.708H129.806ZM136.113 136V123.862H137.643V136H136.113ZM141.968 134.206C142.654 134.206 142.997 134.623 142.997 135.456C142.997 136.028 142.917 136.589 142.759 137.139C142.606 137.694 142.393 138.207 142.121 138.678H141.288C141.487 138.168 141.637 137.709 141.739 137.301C141.846 136.898 141.912 136.502 141.934 136.111C141.64 136.099 141.404 136.006 141.229 135.83C141.059 135.654 140.974 135.428 140.974 135.15C140.974 134.861 141.062 134.631 141.237 134.461C141.419 134.291 141.662 134.206 141.968 134.206ZM160.144 136H158.614V131.019C157.957 131.246 157.339 131.433 156.761 131.58C156.194 131.716 155.56 131.784 154.857 131.784C153.724 131.784 152.845 131.523 152.222 131.002C151.599 130.469 151.287 129.704 151.287 128.707V123.862H152.817V128.486C152.817 129.143 152.987 129.636 153.327 129.965C153.678 130.282 154.239 130.441 155.01 130.441C155.679 130.441 156.279 130.379 156.812 130.254C157.345 130.129 157.945 129.959 158.614 129.744V123.862H160.144V136ZM167.798 136H166.268V125.205H162.477V123.862H171.572V125.205H167.798V136ZM184.171 129.914C184.171 130.855 184.052 131.71 183.814 132.481C183.576 133.24 183.219 133.898 182.743 134.453C182.279 135.008 181.695 135.433 180.992 135.728C180.301 136.023 179.496 136.17 178.578 136.17C177.626 136.17 176.799 136.023 176.096 135.728C175.394 135.422 174.81 134.997 174.345 134.453C173.881 133.898 173.535 133.235 173.308 132.464C173.082 131.693 172.968 130.838 172.968 129.897C172.968 128.65 173.172 127.562 173.58 126.633C173.988 125.704 174.606 124.978 175.433 124.457C176.272 123.936 177.326 123.675 178.595 123.675C179.808 123.675 180.828 123.936 181.655 124.457C182.483 124.967 183.106 125.692 183.525 126.633C183.956 127.562 184.171 128.656 184.171 129.914ZM174.583 129.914C174.583 130.934 174.725 131.812 175.008 132.549C175.292 133.286 175.728 133.852 176.317 134.249C176.918 134.646 177.672 134.844 178.578 134.844C179.496 134.844 180.244 134.646 180.822 134.249C181.412 133.852 181.848 133.286 182.131 132.549C182.415 131.812 182.556 130.934 182.556 129.914C182.556 128.384 182.239 127.188 181.604 126.327C180.97 125.454 179.967 125.018 178.595 125.018C177.677 125.018 176.918 125.216 176.317 125.613C175.728 125.998 175.292 126.559 175.008 127.296C174.725 128.021 174.583 128.894 174.583 129.914ZM187.372 136V123.862H194.58V125.205H188.902V128.996H190.704C191.916 128.996 192.857 129.149 193.526 129.455C194.194 129.75 194.659 130.158 194.92 130.679C195.18 131.189 195.311 131.778 195.311 132.447C195.311 133.184 195.163 133.818 194.869 134.351C194.585 134.884 194.121 135.292 193.475 135.575C192.829 135.858 191.979 136 190.925 136H187.372ZM190.772 134.691C191.86 134.691 192.625 134.51 193.067 134.147C193.509 133.773 193.73 133.206 193.73 132.447C193.73 131.926 193.622 131.512 193.407 131.206C193.203 130.889 192.863 130.662 192.387 130.526C191.922 130.39 191.299 130.322 190.517 130.322H188.902V134.691H190.772ZM198.34 136V123.862H199.87V128.996H201.74C202.874 128.996 203.763 129.149 204.409 129.455C205.067 129.761 205.531 130.175 205.803 130.696C206.087 131.217 206.228 131.801 206.228 132.447C206.228 133.161 206.075 133.784 205.769 134.317C205.475 134.85 205.01 135.263 204.375 135.558C203.741 135.853 202.925 136 201.927 136H198.34ZM201.791 134.708C202.766 134.708 203.486 134.521 203.95 134.147C204.415 133.773 204.647 133.206 204.647 132.447C204.647 131.926 204.534 131.512 204.307 131.206C204.092 130.9 203.758 130.679 203.304 130.543C202.851 130.407 202.273 130.339 201.57 130.339H199.87V134.708H201.791ZM208.098 136V123.862H209.628V136H208.098ZM222.153 123.862C223.161 123.862 224.006 123.958 224.686 124.151C225.377 124.344 225.893 124.661 226.233 125.103C226.584 125.545 226.76 126.134 226.76 126.871C226.76 127.347 226.669 127.772 226.488 128.146C226.318 128.509 226.057 128.815 225.706 129.064C225.366 129.302 224.946 129.466 224.448 129.557V129.642C224.958 129.721 225.417 129.869 225.825 130.084C226.244 130.299 226.573 130.605 226.811 131.002C227.049 131.399 227.168 131.914 227.168 132.549C227.168 133.286 226.998 133.915 226.658 134.436C226.318 134.946 225.83 135.337 225.196 135.609C224.572 135.87 223.824 136 222.952 136H218.685V123.862H222.153ZM222.459 129.03C223.501 129.03 224.215 128.866 224.601 128.537C224.986 128.197 225.179 127.698 225.179 127.041C225.179 126.372 224.941 125.896 224.465 125.613C224 125.318 223.252 125.171 222.221 125.171H220.215V129.03H222.459ZM220.215 130.305V134.708H222.663C223.739 134.708 224.487 134.498 224.907 134.079C225.326 133.66 225.536 133.11 225.536 132.43C225.536 131.999 225.439 131.625 225.247 131.308C225.065 130.991 224.754 130.747 224.312 130.577C223.881 130.396 223.292 130.305 222.544 130.305H220.215ZM230.251 136V123.862H231.781V128.996H233.651C234.785 128.996 235.674 129.149 236.32 129.455C236.978 129.761 237.442 130.175 237.714 130.696C237.998 131.217 238.139 131.801 238.139 132.447C238.139 133.161 237.986 133.784 237.68 134.317C237.386 134.85 236.921 135.263 236.286 135.558C235.652 135.853 234.836 136 233.838 136H230.251ZM233.702 134.708C234.677 134.708 235.397 134.521 235.861 134.147C236.326 133.773 236.558 133.206 236.558 132.447C236.558 131.926 236.445 131.512 236.218 131.206C236.003 130.9 235.669 130.679 235.215 130.543C234.762 130.407 234.184 130.339 233.481 130.339H231.781V134.708H233.702ZM240.009 136V123.862H241.539V136H240.009ZM120.022 152.035C119.376 152.035 118.792 152.148 118.271 152.375C117.749 152.59 117.307 152.913 116.945 153.344C116.582 153.763 116.304 154.279 116.112 154.891C115.919 155.492 115.823 156.172 115.823 156.931C115.823 157.928 115.976 158.795 116.282 159.532C116.599 160.269 117.064 160.835 117.676 161.232C118.299 161.629 119.075 161.827 120.005 161.827C120.537 161.827 121.042 161.782 121.518 161.691C121.994 161.6 122.458 161.487 122.912 161.351V162.677C122.458 162.847 121.988 162.972 121.501 163.051C121.025 163.13 120.452 163.17 119.784 163.17C118.548 163.17 117.517 162.915 116.69 162.405C115.862 161.895 115.239 161.17 114.82 160.229C114.412 159.288 114.208 158.183 114.208 156.914C114.208 155.996 114.332 155.157 114.582 154.398C114.842 153.639 115.216 152.981 115.704 152.426C116.202 151.871 116.814 151.446 117.54 151.151C118.265 150.845 119.098 150.692 120.039 150.692C120.662 150.692 121.263 150.754 121.841 150.879C122.419 151.004 122.934 151.179 123.388 151.406L122.776 152.698C122.402 152.528 121.982 152.375 121.518 152.239C121.064 152.103 120.566 152.035 120.022 152.035ZM131.426 163L127.431 152.358H127.363C127.386 152.585 127.403 152.874 127.414 153.225C127.437 153.576 127.454 153.962 127.465 154.381C127.476 154.789 127.482 155.208 127.482 155.639V163H126.071V150.862H128.332L132.072 160.807H132.14L135.948 150.862H138.192V163H136.679V155.537C136.679 155.14 136.685 154.749 136.696 154.364C136.707 153.967 136.724 153.599 136.747 153.259C136.77 152.908 136.787 152.613 136.798 152.375H136.73L132.684 163H131.426ZM152.595 156.914C152.595 157.855 152.476 158.71 152.238 159.481C152 160.24 151.643 160.898 151.167 161.453C150.702 162.008 150.118 162.433 149.416 162.728C148.724 163.023 147.92 163.17 147.002 163.17C146.05 163.17 145.222 163.023 144.52 162.728C143.817 162.422 143.233 161.997 142.769 161.453C142.304 160.898 141.958 160.235 141.732 159.464C141.505 158.693 141.392 157.838 141.392 156.897C141.392 155.65 141.596 154.562 142.004 153.633C142.412 152.704 143.029 151.978 143.857 151.457C144.695 150.936 145.749 150.675 147.019 150.675C148.231 150.675 149.251 150.936 150.079 151.457C150.906 151.967 151.529 152.692 151.949 153.633C152.379 154.562 152.595 155.656 152.595 156.914ZM143.007 156.914C143.007 157.934 143.148 158.812 143.432 159.549C143.715 160.286 144.151 160.852 144.741 161.249C145.341 161.646 146.095 161.844 147.002 161.844C147.92 161.844 148.668 161.646 149.246 161.249C149.835 160.852 150.271 160.286 150.555 159.549C150.838 158.812 150.98 157.934 150.98 156.914C150.98 155.384 150.662 154.188 150.028 153.327C149.393 152.454 148.39 152.018 147.019 152.018C146.101 152.018 145.341 152.216 144.741 152.613C144.151 152.998 143.715 153.559 143.432 154.296C143.148 155.021 143.007 155.894 143.007 156.914ZM162.646 150.862V152.222H157.325V163H155.795V150.862H162.646ZM173.111 163H171.581V152.205H167.739C167.66 152.828 167.575 153.486 167.484 154.177C167.394 154.857 167.297 155.531 167.195 156.2C167.105 156.869 167.014 157.498 166.923 158.087C166.833 158.676 166.742 159.192 166.651 159.634C166.504 160.393 166.323 161.039 166.107 161.572C165.892 162.105 165.603 162.507 165.24 162.779C164.889 163.051 164.424 163.187 163.846 163.187C163.654 163.187 163.455 163.164 163.251 163.119C163.059 163.085 162.889 163.04 162.741 162.983V161.708C162.866 161.765 163.008 161.816 163.166 161.861C163.325 161.895 163.495 161.912 163.676 161.912C164.016 161.912 164.283 161.776 164.475 161.504C164.679 161.221 164.838 160.875 164.951 160.467C165.065 160.048 165.161 159.634 165.24 159.226C165.308 158.897 165.388 158.461 165.478 157.917C165.569 157.362 165.665 156.716 165.767 155.979C165.881 155.242 165.994 154.443 166.107 153.582C166.232 152.709 166.351 151.803 166.464 150.862H173.111V163ZM176.936 150.862H178.364V157.526C178.364 157.809 178.359 158.121 178.347 158.461C178.347 158.79 178.342 159.118 178.33 159.447C178.319 159.776 178.302 160.07 178.279 160.331C178.268 160.58 178.257 160.773 178.245 160.909H178.313L184.994 150.862H186.694V163H185.266V156.404C185.266 156.098 185.272 155.769 185.283 155.418C185.295 155.055 185.306 154.71 185.317 154.381C185.34 154.041 185.357 153.741 185.368 153.48C185.38 153.219 185.391 153.027 185.402 152.902H185.334L178.636 163H176.936V150.862ZM58.3063 190V177.862H67.4183V190H65.9053V179.205H59.8363V190H58.3063ZM81.8419 183.914C81.8419 184.855 81.7229 185.71 81.4849 186.481C81.2469 187.24 80.8899 187.898 80.4139 188.453C79.9492 189.008 79.3655 189.433 78.6629 189.728C77.9715 190.023 77.1669 190.17 76.2489 190.17C75.2969 190.17 74.4695 190.023 73.7669 189.728C73.0642 189.422 72.4805 188.997 72.0159 188.453C71.5512 187.898 71.2055 187.235 70.9789 186.464C70.7522 185.693 70.6389 184.838 70.6389 183.897C70.6389 182.65 70.8429 181.562 71.2509 180.633C71.6589 179.704 72.2765 178.978 73.1039 178.457C73.9425 177.936 74.9965 177.675 76.2659 177.675C77.4785 177.675 78.4985 177.936 79.3259 178.457C80.1532 178.967 80.7765 179.692 81.1959 180.633C81.6265 181.562 81.8419 182.656 81.8419 183.914ZM72.2539 183.914C72.2539 184.934 72.3955 185.812 72.6789 186.549C72.9622 187.286 73.3985 187.852 73.9879 188.249C74.5885 188.646 75.3422 188.844 76.2489 188.844C77.1669 188.844 77.9149 188.646 78.4929 188.249C79.0822 187.852 79.5185 187.286 79.8019 186.549C80.0852 185.812 80.2269 184.934 80.2269 183.914C80.2269 182.384 79.9095 181.188 79.2749 180.327C78.6402 179.454 77.6372 179.018 76.2659 179.018C75.3479 179.018 74.5885 179.216 73.9879 179.613C73.3985 179.998 72.9622 180.559 72.6789 181.296C72.3955 182.021 72.2539 182.894 72.2539 183.914ZM93.4481 190H91.9181V179.205H88.0761C87.9968 179.828 87.9118 180.486 87.8211 181.177C87.7304 181.857 87.6341 182.531 87.5321 183.2C87.4414 183.869 87.3508 184.498 87.2601 185.087C87.1694 185.676 87.0788 186.192 86.9881 186.634C86.8408 187.393 86.6594 188.039 86.4441 188.572C86.2288 189.105 85.9398 189.507 85.5771 189.779C85.2258 190.051 84.7611 190.187 84.1831 190.187C83.9904 190.187 83.7921 190.164 83.5881 190.119C83.3954 190.085 83.2254 190.04 83.0781 189.983V188.708C83.2028 188.765 83.3444 188.816 83.5031 188.861C83.6618 188.895 83.8318 188.912 84.0131 188.912C84.3531 188.912 84.6194 188.776 84.8121 188.504C85.0161 188.221 85.1748 187.875 85.2881 187.467C85.4014 187.048 85.4978 186.634 85.5771 186.226C85.6451 185.897 85.7244 185.461 85.8151 184.917C85.9058 184.362 86.0021 183.716 86.1041 182.979C86.2174 182.242 86.3308 181.443 86.4441 180.582C86.5688 179.709 86.6878 178.803 86.8011 177.862H93.4481V190ZM97.2562 190V177.862H98.7862V182.996H101.064C102.198 182.996 103.099 183.149 103.767 183.455C104.436 183.761 104.918 184.175 105.212 184.696C105.507 185.217 105.654 185.801 105.654 186.447C105.654 187.161 105.49 187.784 105.161 188.317C104.844 188.85 104.362 189.263 103.716 189.558C103.07 189.853 102.249 190 101.251 190H97.2562ZM101.098 188.691C102.084 188.691 102.827 188.51 103.325 188.147C103.824 187.773 104.073 187.206 104.073 186.447C104.073 185.926 103.949 185.512 103.699 185.206C103.461 184.889 103.104 184.662 102.628 184.526C102.164 184.39 101.58 184.322 100.877 184.322H98.7862V188.691H101.098ZM115.847 180.701C115.847 181.528 115.587 182.186 115.065 182.673C114.544 183.149 113.847 183.455 112.974 183.591V183.659C113.994 183.795 114.771 184.112 115.303 184.611C115.836 185.11 116.102 185.761 116.102 186.566C116.102 187.28 115.921 187.909 115.558 188.453C115.196 188.986 114.652 189.405 113.926 189.711C113.201 190.017 112.294 190.17 111.206 190.17C110.549 190.17 109.92 190.119 109.319 190.017C108.73 189.926 108.18 189.756 107.67 189.507V188.113C108.022 188.283 108.396 188.43 108.792 188.555C109.2 188.668 109.608 188.759 110.016 188.827C110.424 188.884 110.815 188.912 111.189 188.912C112.277 188.912 113.099 188.708 113.654 188.3C114.221 187.892 114.504 187.314 114.504 186.566C114.504 185.795 114.176 185.234 113.518 184.883C112.861 184.532 111.943 184.356 110.764 184.356H109.03V183.081H110.679C111.484 183.081 112.147 182.99 112.668 182.809C113.201 182.628 113.598 182.373 113.858 182.044C114.13 181.704 114.266 181.307 114.266 180.854C114.266 180.242 114.04 179.772 113.586 179.443C113.133 179.114 112.544 178.95 111.818 178.95C111.059 178.95 110.424 179.046 109.914 179.239C109.416 179.432 108.928 179.681 108.452 179.987L107.721 178.95C108.039 178.712 108.401 178.502 108.809 178.321C109.229 178.128 109.693 177.975 110.203 177.862C110.713 177.749 111.257 177.692 111.835 177.692C112.708 177.692 113.439 177.822 114.028 178.083C114.629 178.344 115.082 178.701 115.388 179.154C115.694 179.596 115.847 180.112 115.847 180.701ZM129.769 183.914C129.769 184.855 129.65 185.71 129.412 186.481C129.174 187.24 128.817 187.898 128.341 188.453C127.876 189.008 127.292 189.433 126.59 189.728C125.898 190.023 125.094 190.17 124.176 190.17C123.224 190.17 122.396 190.023 121.694 189.728C120.991 189.422 120.407 188.997 119.943 188.453C119.478 187.898 119.132 187.235 118.906 186.464C118.679 185.693 118.566 184.838 118.566 183.897C118.566 182.65 118.77 181.562 119.178 180.633C119.586 179.704 120.203 178.978 121.031 178.457C121.869 177.936 122.923 177.675 124.193 177.675C125.405 177.675 126.425 177.936 127.253 178.457C128.08 178.967 128.703 179.692 129.123 180.633C129.553 181.562 129.769 182.656 129.769 183.914ZM120.181 183.914C120.181 184.934 120.322 185.812 120.606 186.549C120.889 187.286 121.325 187.852 121.915 188.249C122.515 188.646 123.269 188.844 124.176 188.844C125.094 188.844 125.842 188.646 126.42 188.249C127.009 187.852 127.445 187.286 127.729 186.549C128.012 185.812 128.154 184.934 128.154 183.914C128.154 182.384 127.836 181.188 127.202 180.327C126.567 179.454 125.564 179.018 124.193 179.018C123.275 179.018 122.515 179.216 121.915 179.613C121.325 179.998 120.889 180.559 120.606 181.296C120.322 182.021 120.181 182.894 120.181 183.914ZM136.437 177.862C137.446 177.862 138.29 177.958 138.97 178.151C139.661 178.344 140.177 178.661 140.517 179.103C140.868 179.545 141.044 180.134 141.044 180.871C141.044 181.347 140.953 181.772 140.772 182.146C140.602 182.509 140.341 182.815 139.99 183.064C139.65 183.302 139.231 183.466 138.732 183.557V183.642C139.242 183.721 139.701 183.869 140.109 184.084C140.528 184.299 140.857 184.605 141.095 185.002C141.333 185.399 141.452 185.914 141.452 186.549C141.452 187.286 141.282 187.915 140.942 188.436C140.602 188.946 140.115 189.337 139.48 189.609C138.857 189.87 138.109 190 137.236 190H132.969V177.862H136.437ZM136.743 183.03C137.786 183.03 138.5 182.866 138.885 182.537C139.27 182.197 139.463 181.698 139.463 181.041C139.463 180.372 139.225 179.896 138.749 179.613C138.284 179.318 137.536 179.171 136.505 179.171H134.499V183.03H136.743ZM134.499 184.305V188.708H136.947C138.024 188.708 138.772 188.498 139.191 188.079C139.61 187.66 139.82 187.11 139.82 186.43C139.82 185.999 139.724 185.625 139.531 185.308C139.35 184.991 139.038 184.747 138.596 184.577C138.165 184.396 137.576 184.305 136.828 184.305H134.499ZM152.151 190L150.689 186.243H145.878L144.433 190H142.886L147.629 177.811H149.006L153.732 190H152.151ZM148.87 181.211C148.836 181.12 148.78 180.956 148.7 180.718C148.621 180.48 148.542 180.236 148.462 179.987C148.394 179.726 148.338 179.528 148.292 179.392C148.236 179.619 148.173 179.851 148.105 180.089C148.049 180.316 147.986 180.525 147.918 180.718C147.862 180.911 147.811 181.075 147.765 181.211L146.388 184.883H150.23L148.87 181.211ZM158.55 190H157.02V179.205H153.229V177.862H162.324V179.205H158.55V190ZM164.664 190V177.862H166.194V182.996H168.472C169.605 182.996 170.506 183.149 171.175 183.455C171.844 183.761 172.325 184.175 172.62 184.696C172.915 185.217 173.062 185.801 173.062 186.447C173.062 187.161 172.898 187.784 172.569 188.317C172.252 188.85 171.77 189.263 171.124 189.558C170.478 189.853 169.656 190 168.659 190H164.664ZM168.506 188.691C169.492 188.691 170.234 188.51 170.733 188.147C171.232 187.773 171.481 187.206 171.481 186.447C171.481 185.926 171.356 185.512 171.107 185.206C170.869 184.889 170.512 184.662 170.036 184.526C169.571 184.39 168.988 184.322 168.285 184.322H166.194V188.691H168.506ZM181.283 179.035C180.637 179.035 180.053 179.148 179.532 179.375C179.011 179.59 178.569 179.913 178.206 180.344C177.843 180.763 177.566 181.279 177.373 181.891C177.18 182.492 177.084 183.172 177.084 183.931C177.084 184.928 177.237 185.795 177.543 186.532C177.86 187.269 178.325 187.835 178.937 188.232C179.56 188.629 180.337 188.827 181.266 188.827C181.799 188.827 182.303 188.782 182.779 188.691C183.255 188.6 183.72 188.487 184.173 188.351V189.677C183.72 189.847 183.249 189.972 182.762 190.051C182.286 190.13 181.714 190.17 181.045 190.17C179.81 190.17 178.778 189.915 177.951 189.405C177.124 188.895 176.5 188.17 176.081 187.229C175.673 186.288 175.469 185.183 175.469 183.914C175.469 182.996 175.594 182.157 175.843 181.398C176.104 180.639 176.478 179.981 176.965 179.426C177.464 178.871 178.076 178.446 178.801 178.151C179.526 177.845 180.359 177.692 181.3 177.692C181.923 177.692 182.524 177.754 183.102 177.879C183.68 178.004 184.196 178.179 184.649 178.406L184.037 179.698C183.663 179.528 183.244 179.375 182.779 179.239C182.326 179.103 181.827 179.035 181.283 179.035ZM190.987 184.968L187.842 190H186.057L189.457 184.696C189.027 184.549 188.619 184.345 188.233 184.084C187.859 183.823 187.553 183.466 187.315 183.013C187.077 182.56 186.958 181.976 186.958 181.262C186.958 180.163 187.338 179.324 188.097 178.746C188.857 178.157 189.99 177.862 191.497 177.862H194.897V190H193.367V184.968H190.987ZM191.531 179.171C190.885 179.171 190.341 179.245 189.899 179.392C189.457 179.539 189.117 179.772 188.879 180.089C188.653 180.406 188.539 180.82 188.539 181.33C188.539 182.078 188.789 182.656 189.287 183.064C189.786 183.472 190.557 183.676 191.599 183.676H193.367V179.171H191.531ZM203.958 177.862H205.386V184.526C205.386 184.809 205.381 185.121 205.369 185.461C205.369 185.79 205.364 186.118 205.352 186.447C205.341 186.776 205.324 187.07 205.301 187.331C205.29 187.58 205.279 187.773 205.267 187.909H205.335L212.016 177.862H213.716V190H212.288V183.404C212.288 183.098 212.294 182.769 212.305 182.418C212.317 182.055 212.328 181.71 212.339 181.381C212.362 181.041 212.379 180.741 212.39 180.48C212.402 180.219 212.413 180.027 212.424 179.902H212.356L205.658 190H203.958V177.862ZM222.855 190L218.86 179.358H218.792C218.815 179.585 218.832 179.874 218.843 180.225C218.866 180.576 218.883 180.962 218.894 181.381C218.905 181.789 218.911 182.208 218.911 182.639V190H217.5V177.862H219.761L223.501 187.807H223.569L227.377 177.862H229.621V190H228.108V182.537C228.108 182.14 228.114 181.749 228.125 181.364C228.136 180.967 228.153 180.599 228.176 180.259C228.199 179.908 228.216 179.613 228.227 179.375H228.159L224.113 190H222.855ZM233.45 177.862H234.878V184.526C234.878 184.809 234.872 185.121 234.861 185.461C234.861 185.79 234.855 186.118 234.844 186.447C234.833 186.776 234.816 187.07 234.793 187.331C234.782 187.58 234.77 187.773 234.759 187.909H234.827L241.508 177.862H243.208V190H241.78V183.404C241.78 183.098 241.786 182.769 241.797 182.418C241.808 182.055 241.82 181.71 241.831 181.381C241.854 181.041 241.871 180.741 241.882 180.48C241.893 180.219 241.905 180.027 241.916 179.902H241.848L235.15 190H233.45V177.862ZM71.9126 217V204.862H81.0246V217H79.5116V206.205H73.4426V217H71.9126ZM95.4482 210.914C95.4482 211.855 95.3292 212.71 95.0912 213.481C94.8532 214.24 94.4962 214.898 94.0202 215.453C93.5555 216.008 92.9718 216.433 92.2692 216.728C91.5778 217.023 90.7732 217.17 89.8552 217.17C88.9032 217.17 88.0758 217.023 87.3732 216.728C86.6705 216.422 86.0868 215.997 85.6222 215.453C85.1575 214.898 84.8118 214.235 84.5852 213.464C84.3585 212.693 84.2452 211.838 84.2452 210.897C84.2452 209.65 84.4492 208.562 84.8572 207.633C85.2652 206.704 85.8828 205.978 86.7102 205.457C87.5488 204.936 88.6028 204.675 89.8722 204.675C91.0848 204.675 92.1048 204.936 92.9322 205.457C93.7595 205.967 94.3828 206.692 94.8022 207.633C95.2328 208.562 95.4482 209.656 95.4482 210.914ZM85.8602 210.914C85.8602 211.934 86.0018 212.812 86.2852 213.549C86.5685 214.286 87.0048 214.852 87.5942 215.249C88.1948 215.646 88.9485 215.844 89.8552 215.844C90.7732 215.844 91.5212 215.646 92.0992 215.249C92.6885 214.852 93.1248 214.286 93.4082 213.549C93.6915 212.812 93.8332 211.934 93.8332 210.914C93.8332 209.384 93.5158 208.188 92.8812 207.327C92.2465 206.454 91.2435 206.018 89.8722 206.018C88.9542 206.018 88.1948 206.216 87.5942 206.613C87.0048 206.998 86.5685 207.559 86.2852 208.296C86.0018 209.021 85.8602 209.894 85.8602 210.914ZM103.85 206.035C103.204 206.035 102.621 206.148 102.099 206.375C101.578 206.59 101.136 206.913 100.773 207.344C100.411 207.763 100.133 208.279 99.9404 208.891C99.7478 209.492 99.6514 210.172 99.6514 210.931C99.6514 211.928 99.8044 212.795 100.11 213.532C100.428 214.269 100.892 214.835 101.504 215.232C102.128 215.629 102.904 215.827 103.833 215.827C104.366 215.827 104.87 215.782 105.346 215.691C105.822 215.6 106.287 215.487 106.74 215.351V216.677C106.287 216.847 105.817 216.972 105.329 217.051C104.853 217.13 104.281 217.17 103.612 217.17C102.377 217.17 101.346 216.915 100.518 216.405C99.6911 215.895 99.0678 215.17 98.6484 214.229C98.2404 213.288 98.0364 212.183 98.0364 210.914C98.0364 209.996 98.1611 209.157 98.4104 208.398C98.6711 207.639 99.0451 206.981 99.5324 206.426C100.031 205.871 100.643 205.446 101.368 205.151C102.094 204.845 102.927 204.692 103.867 204.692C104.491 204.692 105.091 204.754 105.669 204.879C106.247 205.004 106.763 205.179 107.216 205.406L106.604 206.698C106.23 206.528 105.811 206.375 105.346 206.239C104.893 206.103 104.394 206.035 103.85 206.035ZM118.638 217H117.108V206.205H113.266C113.186 206.828 113.101 207.486 113.011 208.177C112.92 208.857 112.824 209.531 112.722 210.2C112.631 210.869 112.54 211.498 112.45 212.087C112.359 212.676 112.268 213.192 112.178 213.634C112.03 214.393 111.849 215.039 111.634 215.572C111.418 216.105 111.129 216.507 110.767 216.779C110.415 217.051 109.951 217.187 109.373 217.187C109.18 217.187 108.982 217.164 108.778 217.119C108.585 217.085 108.415 217.04 108.268 216.983V215.708C108.392 215.765 108.534 215.816 108.693 215.861C108.851 215.895 109.021 215.912 109.203 215.912C109.543 215.912 109.809 215.776 110.002 215.504C110.206 215.221 110.364 214.875 110.478 214.467C110.591 214.048 110.687 213.634 110.767 213.226C110.835 212.897 110.914 212.461 111.005 211.917C111.095 211.362 111.192 210.716 111.294 209.979C111.407 209.242 111.52 208.443 111.634 207.582C111.758 206.709 111.877 205.803 111.991 204.862H118.638V217ZM129.229 217H122.446V204.862H129.229V206.205H123.976V209.996H128.923V211.322H123.976V215.657H129.229V217ZM148.235 210.914C148.235 211.855 148.116 212.71 147.878 213.481C147.64 214.24 147.283 214.898 146.807 215.453C146.342 216.008 145.758 216.433 145.056 216.728C144.364 217.023 143.56 217.17 142.642 217.17C141.69 217.17 140.862 217.023 140.16 216.728C139.457 216.422 138.873 215.997 138.409 215.453C137.944 214.898 137.598 214.235 137.372 213.464C137.145 212.693 137.032 211.838 137.032 210.897C137.032 209.65 137.236 208.562 137.644 207.633C138.052 206.704 138.669 205.978 139.497 205.457C140.335 204.936 141.389 204.675 142.659 204.675C143.871 204.675 144.891 204.936 145.719 205.457C146.546 205.967 147.169 206.692 147.589 207.633C148.019 208.562 148.235 209.656 148.235 210.914ZM138.647 210.914C138.647 211.934 138.788 212.812 139.072 213.549C139.355 214.286 139.791 214.852 140.381 215.249C140.981 215.646 141.735 215.844 142.642 215.844C143.56 215.844 144.308 215.646 144.886 215.249C145.475 214.852 145.911 214.286 146.195 213.549C146.478 212.812 146.62 211.934 146.62 210.914C146.62 209.384 146.302 208.188 145.668 207.327C145.033 206.454 144.03 206.018 142.659 206.018C141.741 206.018 140.981 206.216 140.381 206.613C139.791 206.998 139.355 207.559 139.072 208.296C138.788 209.021 138.647 209.894 138.647 210.914ZM151.435 217V204.862H158.643V206.205H152.965V209.996H154.767C155.979 209.996 156.92 210.149 157.589 210.455C158.257 210.75 158.722 211.158 158.983 211.679C159.243 212.189 159.374 212.778 159.374 213.447C159.374 214.184 159.226 214.818 158.932 215.351C158.648 215.884 158.184 216.292 157.538 216.575C156.892 216.858 156.042 217 154.988 217H151.435ZM154.835 215.691C155.923 215.691 156.688 215.51 157.13 215.147C157.572 214.773 157.793 214.206 157.793 213.447C157.793 212.926 157.685 212.512 157.47 212.206C157.266 211.889 156.926 211.662 156.45 211.526C155.985 211.39 155.362 211.322 154.58 211.322H152.965V215.691H154.835ZM167.487 213.549C167.124 214.354 166.756 215.028 166.382 215.572C166.019 216.105 165.588 216.507 165.09 216.779C164.591 217.04 163.956 217.17 163.186 217.17C162.868 217.17 162.568 217.147 162.285 217.102C162.013 217.057 161.763 216.994 161.537 216.915V215.402C161.763 215.504 162.007 215.589 162.268 215.657C162.528 215.714 162.8 215.742 163.084 215.742C163.503 215.742 163.86 215.685 164.155 215.572C164.461 215.447 164.727 215.249 164.954 214.977C165.192 214.705 165.413 214.342 165.617 213.889L160.942 204.862H162.625L166.008 211.543C166.053 211.622 166.098 211.719 166.144 211.832C166.189 211.934 166.234 212.042 166.28 212.155C166.336 212.268 166.382 212.376 166.416 212.478H166.484C166.518 212.399 166.552 212.308 166.586 212.206C166.631 212.093 166.671 211.985 166.705 211.883C166.75 211.77 166.79 211.673 166.824 211.594L169.748 204.862H171.363L167.487 213.549ZM182.09 217H180.56V212.019C179.903 212.246 179.285 212.433 178.707 212.58C178.14 212.716 177.506 212.784 176.803 212.784C175.67 212.784 174.791 212.523 174.168 212.002C173.545 211.469 173.233 210.704 173.233 209.707V204.862H174.763V209.486C174.763 210.143 174.933 210.636 175.273 210.965C175.624 211.282 176.185 211.441 176.956 211.441C177.625 211.441 178.225 211.379 178.758 211.254C179.291 211.129 179.891 210.959 180.56 210.744V204.862H182.09V217ZM192.685 217H185.902V204.862H192.685V206.205H187.432V209.996H192.379V211.322H187.432V215.657H192.685V217ZM205.141 217H203.611V211.339H197.389V217H195.859V204.862H197.389V209.996H203.611V204.862H205.141V217ZM208.986 204.862H210.414V211.526C210.414 211.809 210.408 212.121 210.397 212.461C210.397 212.79 210.391 213.118 210.38 213.447C210.369 213.776 210.352 214.07 210.329 214.331C210.318 214.58 210.306 214.773 210.295 214.909H210.363L217.044 204.862H218.744V217H217.316V210.404C217.316 210.098 217.322 209.769 217.333 209.418C217.344 209.055 217.356 208.71 217.367 208.381C217.39 208.041 217.407 207.741 217.418 207.48C217.429 207.219 217.441 207.027 217.452 206.902H217.384L210.686 217H208.986V204.862ZM226.183 211.968L223.038 217H221.253L224.653 211.696C224.222 211.549 223.814 211.345 223.429 211.084C223.055 210.823 222.749 210.466 222.511 210.013C222.273 209.56 222.154 208.976 222.154 208.262C222.154 207.163 222.534 206.324 223.293 205.746C224.052 205.157 225.186 204.862 226.693 204.862H230.093V217H228.563V211.968H226.183ZM226.727 206.171C226.081 206.171 225.537 206.245 225.095 206.392C224.653 206.539 224.313 206.772 224.075 207.089C223.848 207.406 223.735 207.82 223.735 208.33C223.735 209.078 223.984 209.656 224.483 210.064C224.982 210.472 225.752 210.676 226.795 210.676H228.563V206.171H226.727Z" fill="#B11548"/>
</svg>
