<svg width="301" height="285" viewBox="0 0 301 285" fill="none" xmlns="http://www.w3.org/2000/svg">
<path d="M149.91 0.431839C150.261 0.174672 150.739 0.174674 151.09 0.43184L197.516 34.3906C197.654 34.4916 197.816 34.5555 197.986 34.5762L256.153 41.6441C256.605 41.699 256.962 42.0517 257.023 42.5025L264.478 97.504C264.503 97.6867 264.578 97.859 264.694 98.0019L300.484 141.868C300.784 142.236 300.784 142.764 300.484 143.132L264.694 186.998C264.578 187.141 264.503 187.313 264.478 187.496L257.023 242.497C256.962 242.948 256.605 243.301 256.153 243.356L197.986 250.424C197.816 250.444 197.654 250.508 197.516 250.609L151.09 284.568C150.739 284.825 150.261 284.825 149.91 284.568L103.484 250.609C103.346 250.508 103.184 250.444 103.014 250.424L44.847 243.356C44.3955 243.301 44.0378 242.948 43.9767 242.497L36.5219 187.496C36.4971 187.313 36.4223 187.141 36.3058 186.998L0.515789 143.132C0.215555 142.764 0.215556 142.236 0.515789 141.868L36.3058 98.0019C36.4223 97.859 36.4971 97.6867 36.5219 97.504L43.9767 42.5025C44.0378 42.0517 44.3954 41.699 44.847 41.6441L103.014 34.5762C103.184 34.5555 103.346 34.4916 103.484 34.3906L149.91 0.431839Z" fill="#FAFCB7"/>
<path d="M84.1053 226.022L87.014 228.887L89.8786 225.978L86.9699 223.113L84.1053 226.022ZM216.887 225.008L213.978 222.144L211.114 225.053L214.022 227.917L216.887 225.008ZM86.9958 226.5L214.004 225.531L213.996 224.531L86.9881 225.5L86.9958 226.5Z" fill="#EBAF14"/>
<path d="M63.907 75.914C63.907 76.8547 63.788 77.7103 63.55 78.481C63.312 79.2403 62.955 79.8977 62.479 80.453C62.0143 81.0083 61.4306 81.4333 60.728 81.728C60.0366 82.0227 59.232 82.17 58.314 82.17C57.362 82.17 56.5346 82.0227 55.832 81.728C55.1293 81.422 54.5456 80.997 54.081 80.453C53.6163 79.8977 53.2706 79.2347 53.044 78.464C52.8173 77.6933 52.704 76.8377 52.704 75.897C52.704 74.6503 52.908 73.5623 53.316 72.633C53.724 71.7037 54.3416 70.9783 55.169 70.457C56.0076 69.9357 57.0616 69.675 58.331 69.675C59.5436 69.675 60.5636 69.9357 61.391 70.457C62.2183 70.967 62.8416 71.6923 63.261 72.633C63.6916 73.5623 63.907 74.656 63.907 75.914ZM54.319 75.914C54.319 76.934 54.4606 77.8123 54.744 78.549C55.0273 79.2857 55.4636 79.8523 56.053 80.249C56.6536 80.6457 57.4073 80.844 58.314 80.844C59.232 80.844 59.98 80.6457 60.558 80.249C61.1473 79.8523 61.5836 79.2857 61.867 78.549C62.1503 77.8123 62.292 76.934 62.292 75.914C62.292 74.384 61.9746 73.1883 61.34 72.327C60.7053 71.4543 59.7023 71.018 58.331 71.018C57.413 71.018 56.6536 71.2163 56.053 71.613C55.4636 71.9983 55.0273 72.5593 54.744 73.296C54.4606 74.0213 54.319 74.894 54.319 75.914ZM67.1072 82V69.862H74.3152V71.205H68.6372V74.996H70.4392C71.6519 74.996 72.5925 75.149 73.2612 75.455C73.9299 75.7497 74.3945 76.1577 74.6552 76.679C74.9159 77.189 75.0462 77.7783 75.0462 78.447C75.0462 79.1837 74.8989 79.8183 74.6042 80.351C74.3209 80.8837 73.8562 81.2917 73.2102 81.575C72.5642 81.8583 71.7142 82 70.6602 82H67.1072ZM70.5072 80.691C71.5952 80.691 72.3602 80.5097 72.8022 80.147C73.2442 79.773 73.4652 79.2063 73.4652 78.447C73.4652 77.9257 73.3575 77.512 73.1422 77.206C72.9382 76.8887 72.5982 76.662 72.1222 76.526C71.6575 76.39 71.0342 76.322 70.2522 76.322H68.6372V80.691H70.5072ZM83.1592 78.549C82.7965 79.3537 82.4282 80.028 82.0542 80.572C81.6915 81.1047 81.2609 81.507 80.7622 81.779C80.2635 82.0397 79.6289 82.17 78.8582 82.17C78.5409 82.17 78.2405 82.1473 77.9572 82.102C77.6852 82.0567 77.4359 81.9943 77.2092 81.915V80.402C77.4359 80.504 77.6795 80.589 77.9402 80.657C78.2009 80.7137 78.4729 80.742 78.7562 80.742C79.1755 80.742 79.5325 80.6853 79.8272 80.572C80.1332 80.4473 80.3995 80.249 80.6262 79.977C80.8642 79.705 81.0852 79.3423 81.2892 78.889L76.6142 69.862H78.2972L81.6802 76.543C81.7255 76.6223 81.7709 76.7187 81.8162 76.832C81.8615 76.934 81.9069 77.0417 81.9522 77.155C82.0089 77.2683 82.0542 77.376 82.0882 77.478H82.1562C82.1902 77.3987 82.2242 77.308 82.2582 77.206C82.3035 77.0927 82.3432 76.985 82.3772 76.883C82.4225 76.7697 82.4622 76.6733 82.4962 76.594L85.4202 69.862H87.0352L83.1592 78.549ZM97.7626 82H96.2326V77.019C95.5753 77.2457 94.9576 77.4327 94.3796 77.58C93.8129 77.716 93.1783 77.784 92.4756 77.784C91.3423 77.784 90.4639 77.5233 89.8406 77.002C89.2173 76.4693 88.9056 75.7043 88.9056 74.707V69.862H90.4356V74.486C90.4356 75.1433 90.6056 75.6363 90.9456 75.965C91.2969 76.2823 91.8579 76.441 92.6286 76.441C93.2973 76.441 93.8979 76.3787 94.4306 76.254C94.9633 76.1293 95.5639 75.9593 96.2326 75.744V69.862H97.7626V82ZM108.358 82H101.575V69.862H108.358V71.205H103.105V74.996H108.052V76.322H103.105V80.657H108.358V82ZM120.813 82H119.283V76.339H113.061V82H111.531V69.862H113.061V74.996H119.283V69.862H120.813V82ZM124.659 69.862H126.087V76.526C126.087 76.8093 126.081 77.121 126.07 77.461C126.07 77.7897 126.064 78.1183 126.053 78.447C126.041 78.7757 126.024 79.0703 126.002 79.331C125.99 79.5803 125.979 79.773 125.968 79.909H126.036L132.717 69.862H134.417V82H132.989V75.404C132.989 75.098 132.994 74.7693 133.006 74.418C133.017 74.0553 133.028 73.7097 133.04 73.381C133.062 73.041 133.079 72.7407 133.091 72.48C133.102 72.2193 133.113 72.0267 133.125 71.902H133.057L126.359 82H124.659V69.862ZM144.983 82H138.2V69.862H144.983V71.205H139.73V74.996H144.677V76.322H139.73V80.657H144.983V82ZM153.398 82V69.862H162.51V82H160.997V71.205H154.928V82H153.398ZM169.556 69.862C171.142 69.862 172.298 70.1737 173.024 70.797C173.749 71.4203 174.112 72.2987 174.112 73.432C174.112 73.9307 174.027 74.4123 173.857 74.877C173.698 75.3303 173.432 75.7383 173.058 76.101C172.684 76.4637 172.185 76.7527 171.562 76.968C170.938 77.172 170.173 77.274 169.267 77.274H167.873V82H166.343V69.862H169.556ZM169.42 71.171H167.873V75.965H169.097C169.867 75.965 170.508 75.8857 171.018 75.727C171.528 75.557 171.907 75.2907 172.157 74.928C172.406 74.5653 172.531 74.0893 172.531 73.5C172.531 72.718 172.281 72.1343 171.783 71.749C171.284 71.3637 170.496 71.171 169.42 71.171ZM187.737 75.914C187.737 76.8547 187.618 77.7103 187.38 78.481C187.142 79.2403 186.785 79.8977 186.309 80.453C185.844 81.0083 185.26 81.4333 184.558 81.728C183.866 82.0227 183.062 82.17 182.144 82.17C181.192 82.17 180.364 82.0227 179.662 81.728C178.959 81.422 178.375 80.997 177.911 80.453C177.446 79.8977 177.1 79.2347 176.874 78.464C176.647 77.6933 176.534 76.8377 176.534 75.897C176.534 74.6503 176.738 73.5623 177.146 72.633C177.554 71.7037 178.171 70.9783 178.999 70.457C179.837 69.9357 180.891 69.675 182.161 69.675C183.373 69.675 184.393 69.9357 185.221 70.457C186.048 70.967 186.671 71.6923 187.091 72.633C187.521 73.5623 187.737 74.656 187.737 75.914ZM178.149 75.914C178.149 76.934 178.29 77.8123 178.574 78.549C178.857 79.2857 179.293 79.8523 179.883 80.249C180.483 80.6457 181.237 80.844 182.144 80.844C183.062 80.844 183.81 80.6457 184.388 80.249C184.977 79.8523 185.413 79.2857 185.697 78.549C185.98 77.8123 186.122 76.934 186.122 75.914C186.122 74.384 185.804 73.1883 185.17 72.327C184.535 71.4543 183.532 71.018 182.161 71.018C181.243 71.018 180.483 71.2163 179.883 71.613C179.293 71.9983 178.857 72.5593 178.574 73.296C178.29 74.0213 178.149 74.894 178.149 75.914ZM198.85 82H197.116L193.903 76.73L190.639 82H189.024L193.053 75.676L189.279 69.862H190.979L193.954 74.622L196.946 69.862H198.561L194.804 75.642L198.85 82ZM211.335 75.914C211.335 76.8547 211.216 77.7103 210.978 78.481C210.74 79.2403 210.383 79.8977 209.907 80.453C209.442 81.0083 208.858 81.4333 208.156 81.728C207.464 82.0227 206.66 82.17 205.742 82.17C204.79 82.17 203.962 82.0227 203.26 81.728C202.557 81.422 201.973 80.997 201.509 80.453C201.044 79.8977 200.698 79.2347 200.472 78.464C200.245 77.6933 200.132 76.8377 200.132 75.897C200.132 74.6503 200.336 73.5623 200.744 72.633C201.152 71.7037 201.769 70.9783 202.597 70.457C203.435 69.9357 204.489 69.675 205.759 69.675C206.971 69.675 207.991 69.9357 208.819 70.457C209.646 70.967 210.269 71.6923 210.689 72.633C211.119 73.5623 211.335 74.656 211.335 75.914ZM201.747 75.914C201.747 76.934 201.888 77.8123 202.172 78.549C202.455 79.2857 202.891 79.8523 203.481 80.249C204.081 80.6457 204.835 80.844 205.742 80.844C206.66 80.844 207.408 80.6457 207.986 80.249C208.575 79.8523 209.011 79.2857 209.295 78.549C209.578 77.8123 209.72 76.934 209.72 75.914C209.72 74.384 209.402 73.1883 208.768 72.327C208.133 71.4543 207.13 71.018 205.759 71.018C204.841 71.018 204.081 71.2163 203.481 71.613C202.891 71.9983 202.455 72.5593 202.172 73.296C201.888 74.0213 201.747 74.894 201.747 75.914ZM222.38 69.862V80.64H223.927V85.196H222.465V82H214.118V85.196H212.656V80.64H213.591C213.999 79.9373 214.384 79.1497 214.747 78.277C215.121 77.4043 215.45 76.492 215.733 75.54C216.016 74.5767 216.249 73.6133 216.43 72.65C216.611 71.6867 216.725 70.7573 216.77 69.862H222.38ZM218.113 71.239C218.068 71.8963 217.954 72.6387 217.773 73.466C217.603 74.2933 217.382 75.1433 217.11 76.016C216.849 76.8773 216.555 77.7103 216.226 78.515C215.909 79.3197 215.569 80.028 215.206 80.64H220.867V71.239H218.113ZM226.484 69.862H227.912V76.526C227.912 76.8093 227.906 77.121 227.895 77.461C227.895 77.7897 227.889 78.1183 227.878 78.447C227.867 78.7757 227.85 79.0703 227.827 79.331C227.816 79.5803 227.804 79.773 227.793 79.909H227.861L234.542 69.862H236.242V82H234.814V75.404C234.814 75.098 234.82 74.7693 234.831 74.418C234.842 74.0553 234.854 73.7097 234.865 73.381C234.888 73.041 234.905 72.7407 234.916 72.48C234.927 72.2193 234.939 72.0267 234.95 71.902H234.882L228.184 82H226.484V69.862ZM243.868 82H242.338V71.205H238.547V69.862H247.642V71.205H243.868V82ZM68.2093 96.862H69.6373V103.526C69.6373 103.809 69.6316 104.121 69.6203 104.461C69.6203 104.79 69.6146 105.118 69.6033 105.447C69.5919 105.776 69.5749 106.07 69.5523 106.331C69.5409 106.58 69.5296 106.773 69.5183 106.909H69.5863L76.2673 96.862H77.9673V109H76.5393V102.404C76.5393 102.098 76.5449 101.769 76.5563 101.418C76.5676 101.055 76.5789 100.71 76.5903 100.381C76.6129 100.041 76.6299 99.7407 76.6413 99.48C76.6526 99.2193 76.6639 99.0267 76.6753 98.902H76.6073L69.9093 109H68.2093V96.862ZM91.0331 109H89.5031V103.339H83.2811V109H81.7511V96.862H83.2811V101.996H89.5031V96.862H91.0331V109ZM103.039 96.862V107.64H104.586V112.196H103.124V109H94.7767V112.196H93.3147V107.64H94.2497C94.6577 106.937 95.043 106.15 95.4057 105.277C95.7797 104.404 96.1084 103.492 96.3917 102.54C96.675 101.577 96.9074 100.613 97.0887 99.65C97.27 98.6867 97.3834 97.7573 97.4287 96.862H103.039ZM98.7717 98.239C98.7264 98.8963 98.613 99.6387 98.4317 100.466C98.2617 101.293 98.0407 102.143 97.7687 103.016C97.508 103.877 97.2134 104.71 96.8847 105.515C96.5674 106.32 96.2274 107.028 95.8647 107.64H101.526V98.239H98.7717ZM107.143 96.862H108.571V103.526C108.571 103.809 108.565 104.121 108.554 104.461C108.554 104.79 108.548 105.118 108.537 105.447C108.525 105.776 108.508 106.07 108.486 106.331C108.474 106.58 108.463 106.773 108.452 106.909H108.52L115.201 96.862H116.901V109H115.473V102.404C115.473 102.098 115.478 101.769 115.49 101.418C115.501 101.055 115.512 100.71 115.524 100.381C115.546 100.041 115.563 99.7407 115.575 99.48C115.586 99.2193 115.597 99.0267 115.609 98.902H115.541L108.843 109H107.143V96.862ZM124.152 96.862C125.161 96.862 126.005 96.9583 126.685 97.151C127.377 97.3437 127.892 97.661 128.232 98.103C128.584 98.545 128.759 99.1343 128.759 99.871C128.759 100.347 128.669 100.772 128.487 101.146C128.317 101.509 128.057 101.815 127.705 102.064C127.365 102.302 126.946 102.466 126.447 102.557V102.642C126.957 102.721 127.416 102.869 127.824 103.084C128.244 103.299 128.572 103.605 128.81 104.002C129.048 104.399 129.167 104.914 129.167 105.549C129.167 106.286 128.997 106.915 128.657 107.436C128.317 107.946 127.83 108.337 127.195 108.609C126.572 108.87 125.824 109 124.951 109H120.684V96.862H124.152ZM124.458 102.03C125.501 102.03 126.215 101.866 126.6 101.537C126.986 101.197 127.178 100.698 127.178 100.041C127.178 99.3723 126.94 98.8963 126.464 98.613C126 98.3183 125.252 98.171 124.22 98.171H122.214V102.03H124.458ZM122.214 103.305V107.708H124.662C125.739 107.708 126.487 107.498 126.906 107.079C127.326 106.66 127.535 106.11 127.535 105.43C127.535 104.999 127.439 104.625 127.246 104.308C127.065 103.991 126.753 103.747 126.311 103.577C125.881 103.396 125.291 103.305 124.543 103.305H122.214ZM132.268 96.862H133.696V103.526C133.696 103.809 133.69 104.121 133.679 104.461C133.679 104.79 133.673 105.118 133.662 105.447C133.651 105.776 133.634 106.07 133.611 106.331C133.6 106.58 133.588 106.773 133.577 106.909H133.645L140.326 96.862H142.026V109H140.598V102.404C140.598 102.098 140.604 101.769 140.615 101.418C140.626 101.055 140.638 100.71 140.649 100.381C140.672 100.041 140.689 99.7407 140.7 99.48C140.711 99.2193 140.723 99.0267 140.734 98.902H140.666L133.968 109H132.268V96.862ZM153.987 96.862V107.64H155.534V112.196H154.072V109H145.725V112.196H144.263V107.64H145.198C145.606 106.937 145.991 106.15 146.354 105.277C146.728 104.404 147.057 103.492 147.34 102.54C147.623 101.577 147.856 100.613 148.037 99.65C148.218 98.6867 148.332 97.7573 148.377 96.862H153.987ZM149.72 98.239C149.675 98.8963 149.561 99.6387 149.38 100.466C149.21 101.293 148.989 102.143 148.717 103.016C148.456 103.877 148.162 104.71 147.833 105.515C147.516 106.32 147.176 107.028 146.813 107.64H152.474V98.239H149.72ZM163.157 105.549C162.794 106.354 162.426 107.028 162.052 107.572C161.689 108.105 161.258 108.507 160.76 108.779C160.261 109.04 159.626 109.17 158.856 109.17C158.538 109.17 158.238 109.147 157.955 109.102C157.683 109.057 157.433 108.994 157.207 108.915V107.402C157.433 107.504 157.677 107.589 157.938 107.657C158.198 107.714 158.47 107.742 158.754 107.742C159.173 107.742 159.53 107.685 159.825 107.572C160.131 107.447 160.397 107.249 160.624 106.977C160.862 106.705 161.083 106.342 161.287 105.889L156.612 96.862H158.295L161.678 103.543C161.723 103.622 161.768 103.719 161.814 103.832C161.859 103.934 161.904 104.042 161.95 104.155C162.006 104.268 162.052 104.376 162.086 104.478H162.154C162.188 104.399 162.222 104.308 162.256 104.206C162.301 104.093 162.341 103.985 162.375 103.883C162.42 103.77 162.46 103.673 162.494 103.594L165.418 96.862H167.033L163.157 105.549ZM175.613 109L174.151 105.243H169.34L167.895 109H166.348L171.091 96.811H172.468L177.194 109H175.613ZM172.332 100.211C172.298 100.12 172.241 99.956 172.162 99.718C172.083 99.48 172.003 99.2363 171.924 98.987C171.856 98.7263 171.799 98.528 171.754 98.392C171.697 98.6187 171.635 98.851 171.567 99.089C171.51 99.3157 171.448 99.5253 171.38 99.718C171.323 99.9107 171.272 100.075 171.227 100.211L169.85 103.883H173.692L172.332 100.211ZM188.102 109H186.572V98.205H182.73C182.651 98.8283 182.566 99.4857 182.475 100.177C182.385 100.857 182.288 101.531 182.186 102.2C182.096 102.869 182.005 103.498 181.914 104.087C181.824 104.676 181.733 105.192 181.642 105.634C181.495 106.393 181.314 107.039 181.098 107.572C180.883 108.105 180.594 108.507 180.231 108.779C179.88 109.051 179.415 109.187 178.837 109.187C178.645 109.187 178.446 109.164 178.242 109.119C178.05 109.085 177.88 109.04 177.732 108.983V107.708C177.857 107.765 177.999 107.816 178.157 107.861C178.316 107.895 178.486 107.912 178.667 107.912C179.007 107.912 179.274 107.776 179.466 107.504C179.67 107.221 179.829 106.875 179.942 106.467C180.056 106.048 180.152 105.634 180.231 105.226C180.299 104.897 180.379 104.461 180.469 103.917C180.56 103.362 180.656 102.716 180.758 101.979C180.872 101.242 180.985 100.443 181.098 99.582C181.223 98.7093 181.342 97.8027 181.455 96.862H188.102V109ZM191.91 109V96.862H193.44V101.996H195.718C196.852 101.996 197.753 102.149 198.421 102.455C199.09 102.761 199.572 103.175 199.866 103.696C200.161 104.217 200.308 104.801 200.308 105.447C200.308 106.161 200.144 106.784 199.815 107.317C199.498 107.85 199.016 108.263 198.37 108.558C197.724 108.853 196.903 109 195.905 109H191.91ZM195.752 107.691C196.738 107.691 197.481 107.51 197.979 107.147C198.478 106.773 198.727 106.206 198.727 105.447C198.727 104.926 198.603 104.512 198.353 104.206C198.115 103.889 197.758 103.662 197.282 103.526C196.818 103.39 196.234 103.322 195.531 103.322H193.44V107.691H195.752ZM212.61 109H211.08V103.339H204.858V109H203.328V96.862H204.858V101.996H211.08V96.862H212.61V109ZM227.029 102.914C227.029 103.855 226.91 104.71 226.672 105.481C226.434 106.24 226.077 106.898 225.601 107.453C225.137 108.008 224.553 108.433 223.85 108.728C223.159 109.023 222.354 109.17 221.436 109.17C220.484 109.17 219.657 109.023 218.954 108.728C218.252 108.422 217.668 107.997 217.203 107.453C216.739 106.898 216.393 106.235 216.166 105.464C215.94 104.693 215.826 103.838 215.826 102.897C215.826 101.65 216.03 100.562 216.438 99.633C216.846 98.7037 217.464 97.9783 218.291 97.457C219.13 96.9357 220.184 96.675 221.453 96.675C222.666 96.675 223.686 96.9357 224.513 97.457C225.341 97.967 225.964 98.6923 226.383 99.633C226.814 100.562 227.029 101.656 227.029 102.914ZM217.441 102.914C217.441 103.934 217.583 104.812 217.866 105.549C218.15 106.286 218.586 106.852 219.175 107.249C219.776 107.646 220.53 107.844 221.436 107.844C222.354 107.844 223.102 107.646 223.68 107.249C224.27 106.852 224.706 106.286 224.989 105.549C225.273 104.812 225.414 103.934 225.414 102.914C225.414 101.384 225.097 100.188 224.462 99.327C223.828 98.4543 222.825 98.018 221.453 98.018C220.535 98.018 219.776 98.2163 219.175 98.613C218.586 98.9983 218.15 99.5593 217.866 100.296C217.583 101.021 217.441 101.894 217.441 102.914ZM230.74 107.206C231.425 107.206 231.768 107.623 231.768 108.456C231.768 109.028 231.689 109.589 231.53 110.139C231.377 110.694 231.165 111.207 230.893 111.678H230.06C230.258 111.168 230.408 110.709 230.51 110.301C230.618 109.898 230.683 109.502 230.706 109.111C230.411 109.099 230.176 109.006 230 108.83C229.83 108.654 229.745 108.428 229.745 108.15C229.745 107.861 229.833 107.631 230.009 107.461C230.19 107.291 230.434 107.206 230.74 107.206ZM89.6156 136V123.862H98.7276V136H97.2146V125.205H91.1456V136H89.6156ZM113.151 129.914C113.151 130.855 113.032 131.71 112.794 132.481C112.556 133.24 112.199 133.898 111.723 134.453C111.259 135.008 110.675 135.433 109.972 135.728C109.281 136.023 108.476 136.17 107.558 136.17C106.606 136.17 105.779 136.023 105.076 135.728C104.374 135.422 103.79 134.997 103.325 134.453C102.861 133.898 102.515 133.235 102.288 132.464C102.062 131.693 101.948 130.838 101.948 129.897C101.948 128.65 102.152 127.562 102.56 126.633C102.968 125.704 103.586 124.978 104.413 124.457C105.252 123.936 106.306 123.675 107.575 123.675C108.788 123.675 109.808 123.936 110.635 124.457C111.463 124.967 112.086 125.692 112.505 126.633C112.936 127.562 113.151 128.656 113.151 129.914ZM103.563 129.914C103.563 130.934 103.705 131.812 103.988 132.549C104.272 133.286 104.708 133.852 105.297 134.249C105.898 134.646 106.652 134.844 107.558 134.844C108.476 134.844 109.224 134.646 109.802 134.249C110.392 133.852 110.828 133.286 111.111 132.549C111.395 131.812 111.536 130.934 111.536 129.914C111.536 128.384 111.219 127.188 110.584 126.327C109.95 125.454 108.947 125.018 107.575 125.018C106.657 125.018 105.898 125.216 105.297 125.613C104.708 125.998 104.272 126.559 103.988 127.296C103.705 128.021 103.563 128.894 103.563 129.914ZM118.48 125.035C117.914 125.035 117.398 125.103 116.933 125.239C116.469 125.364 116.049 125.511 115.675 125.681L115.046 124.406C115.511 124.179 116.044 124.004 116.644 123.879C117.245 123.754 117.863 123.692 118.497 123.692C119.472 123.692 120.316 123.845 121.03 124.151C121.756 124.446 122.356 124.865 122.832 125.409C123.308 125.953 123.66 126.593 123.886 127.33C124.124 128.055 124.243 128.854 124.243 129.727C124.243 131.053 124.028 132.198 123.597 133.161C123.167 134.124 122.515 134.867 121.642 135.388C120.781 135.909 119.693 136.17 118.378 136.17C117.676 136.17 117.081 136.13 116.593 136.051C116.106 135.972 115.624 135.847 115.148 135.677V134.351C115.624 134.476 116.106 134.589 116.593 134.691C117.081 134.782 117.596 134.827 118.14 134.827C118.877 134.827 119.517 134.731 120.061 134.538C120.617 134.334 121.081 134.045 121.455 133.671C121.829 133.286 122.113 132.815 122.305 132.26C122.498 131.693 122.606 131.047 122.628 130.322H116.729V128.979H122.611C122.555 128.356 122.419 127.8 122.203 127.313C121.988 126.826 121.699 126.412 121.336 126.072C120.985 125.732 120.566 125.477 120.078 125.307C119.602 125.126 119.07 125.035 118.48 125.035ZM130.781 136H129.251V125.205H125.46V123.862H134.555V125.205H130.781V136ZM147.154 129.914C147.154 130.855 147.035 131.71 146.797 132.481C146.559 133.24 146.202 133.898 145.726 134.453C145.261 135.008 144.678 135.433 143.975 135.728C143.284 136.023 142.479 136.17 141.561 136.17C140.609 136.17 139.782 136.023 139.079 135.728C138.376 135.422 137.793 134.997 137.328 134.453C136.863 133.898 136.518 133.235 136.291 132.464C136.064 131.693 135.951 130.838 135.951 129.897C135.951 128.65 136.155 127.562 136.563 126.633C136.971 125.704 137.589 124.978 138.416 124.457C139.255 123.936 140.309 123.675 141.578 123.675C142.791 123.675 143.811 123.936 144.638 124.457C145.465 124.967 146.089 125.692 146.508 126.633C146.939 127.562 147.154 128.656 147.154 129.914ZM137.566 129.914C137.566 130.934 137.708 131.812 137.991 132.549C138.274 133.286 138.711 133.852 139.3 134.249C139.901 134.646 140.654 134.844 141.561 134.844C142.479 134.844 143.227 134.646 143.805 134.249C144.394 133.852 144.831 133.286 145.114 132.549C145.397 131.812 145.539 130.934 145.539 129.914C145.539 128.384 145.222 127.188 144.587 126.327C143.952 125.454 142.949 125.018 141.578 125.018C140.66 125.018 139.901 125.216 139.3 125.613C138.711 125.998 138.274 126.559 137.991 127.296C137.708 128.021 137.566 128.894 137.566 129.914ZM155.709 136L151.714 125.358H151.646C151.669 125.585 151.686 125.874 151.697 126.225C151.72 126.576 151.737 126.962 151.748 127.381C151.759 127.789 151.765 128.208 151.765 128.639V136H150.354V123.862H152.615L156.355 133.807H156.423L160.231 123.862H162.475V136H160.962V128.537C160.962 128.14 160.968 127.749 160.979 127.364C160.99 126.967 161.007 126.599 161.03 126.259C161.053 125.908 161.07 125.613 161.081 125.375H161.013L156.967 136H155.709ZM171.37 132.549C171.007 133.354 170.639 134.028 170.265 134.572C169.902 135.105 169.472 135.507 168.973 135.779C168.474 136.04 167.84 136.17 167.069 136.17C166.752 136.17 166.451 136.147 166.168 136.102C165.896 136.057 165.647 135.994 165.42 135.915V134.402C165.647 134.504 165.89 134.589 166.151 134.657C166.412 134.714 166.684 134.742 166.967 134.742C167.386 134.742 167.743 134.685 168.038 134.572C168.344 134.447 168.61 134.249 168.837 133.977C169.075 133.705 169.296 133.342 169.5 132.889L164.825 123.862H166.508L169.891 130.543C169.936 130.622 169.982 130.719 170.027 130.832C170.072 130.934 170.118 131.042 170.163 131.155C170.22 131.268 170.265 131.376 170.299 131.478H170.367C170.401 131.399 170.435 131.308 170.469 131.206C170.514 131.093 170.554 130.985 170.588 130.883C170.633 130.77 170.673 130.673 170.707 130.594L173.631 123.862H175.246L171.37 132.549ZM188.002 136L184.007 125.358H183.939C183.961 125.585 183.978 125.874 183.99 126.225C184.012 126.576 184.029 126.962 184.041 127.381C184.052 127.789 184.058 128.208 184.058 128.639V136H182.647V123.862H184.908L188.648 133.807H188.716L192.524 123.862H194.768V136H193.255V128.537C193.255 128.14 193.26 127.749 193.272 127.364C193.283 126.967 193.3 126.599 193.323 126.259C193.345 125.908 193.362 125.613 193.374 125.375H193.306L189.26 136H188.002ZM198.58 136V123.862H200.11V128.996H201.98C203.113 128.996 204.003 129.149 204.649 129.455C205.306 129.761 205.771 130.175 206.043 130.696C206.326 131.217 206.468 131.801 206.468 132.447C206.468 133.161 206.315 133.784 206.009 134.317C205.714 134.85 205.249 135.263 204.615 135.558C203.98 135.853 203.164 136 202.167 136H198.58ZM202.031 134.708C203.005 134.708 203.725 134.521 204.19 134.147C204.654 133.773 204.887 133.206 204.887 132.447C204.887 131.926 204.773 131.512 204.547 131.206C204.331 130.9 203.997 130.679 203.544 130.543C203.09 130.407 202.512 130.339 201.81 130.339H200.11V134.708H202.031ZM208.338 136V123.862H209.868V136H208.338ZM64.4092 152.035C63.7632 152.035 63.1795 152.148 62.6582 152.375C62.1368 152.59 61.6948 152.913 61.3322 153.344C60.9695 153.763 60.6918 154.279 60.4992 154.891C60.3065 155.492 60.2102 156.172 60.2102 156.931C60.2102 157.928 60.3632 158.795 60.6692 159.532C60.9865 160.269 61.4512 160.835 62.0632 161.232C62.6865 161.629 63.4628 161.827 64.3922 161.827C64.9248 161.827 65.4292 161.782 65.9052 161.691C66.3812 161.6 66.8458 161.487 67.2992 161.351V162.677C66.8458 162.847 66.3755 162.972 65.8882 163.051C65.4122 163.13 64.8398 163.17 64.1712 163.17C62.9358 163.17 61.9045 162.915 61.0772 162.405C60.2498 161.895 59.6265 161.17 59.2072 160.229C58.7992 159.288 58.5952 158.183 58.5952 156.914C58.5952 155.996 58.7198 155.157 58.9692 154.398C59.2298 153.639 59.6038 152.981 60.0912 152.426C60.5898 151.871 61.2018 151.446 61.9272 151.151C62.6525 150.845 63.4855 150.692 64.4262 150.692C65.0495 150.692 65.6502 150.754 66.2282 150.879C66.8062 151.004 67.3218 151.179 67.7752 151.406L67.1632 152.698C66.7892 152.528 66.3698 152.375 65.9052 152.239C65.4518 152.103 64.9532 152.035 64.4092 152.035ZM75.8134 163L71.8184 152.358H71.7504C71.7731 152.585 71.7901 152.874 71.8014 153.225C71.8241 153.576 71.8411 153.962 71.8524 154.381C71.8637 154.789 71.8694 155.208 71.8694 155.639V163H70.4584V150.862H72.7194L76.4594 160.807H76.5274L80.3354 150.862H82.5794V163H81.0664V155.537C81.0664 155.14 81.0721 154.749 81.0834 154.364C81.0947 153.967 81.1117 153.599 81.1344 153.259C81.1571 152.908 81.1741 152.613 81.1854 152.375H81.1174L77.0714 163H75.8134ZM96.9822 156.914C96.9822 157.855 96.8632 158.71 96.6252 159.481C96.3872 160.24 96.0302 160.898 95.5542 161.453C95.0896 162.008 94.5059 162.433 93.8032 162.728C93.1119 163.023 92.3072 163.17 91.3892 163.17C90.4372 163.17 89.6099 163.023 88.9072 162.728C88.2046 162.422 87.6209 161.997 87.1562 161.453C86.6916 160.898 86.3459 160.235 86.1192 159.464C85.8926 158.693 85.7792 157.838 85.7792 156.897C85.7792 155.65 85.9832 154.562 86.3912 153.633C86.7992 152.704 87.4169 151.978 88.2442 151.457C89.0829 150.936 90.1369 150.675 91.4062 150.675C92.6189 150.675 93.6389 150.936 94.4662 151.457C95.2936 151.967 95.9169 152.692 96.3362 153.633C96.7669 154.562 96.9822 155.656 96.9822 156.914ZM87.3942 156.914C87.3942 157.934 87.5359 158.812 87.8192 159.549C88.1026 160.286 88.5389 160.852 89.1282 161.249C89.7289 161.646 90.4826 161.844 91.3892 161.844C92.3072 161.844 93.0552 161.646 93.6332 161.249C94.2226 160.852 94.6589 160.286 94.9422 159.549C95.2256 158.812 95.3672 157.934 95.3672 156.914C95.3672 155.384 95.0499 154.188 94.4152 153.327C93.7806 152.454 92.7776 152.018 91.4062 152.018C90.4882 152.018 89.7289 152.216 89.1282 152.613C88.5389 152.998 88.1026 153.559 87.8192 154.296C87.5359 155.021 87.3942 155.894 87.3942 156.914ZM103.097 156.761L98.3885 150.862H100.088L104.729 156.744V150.862H106.191V156.744L110.832 150.862H112.532L107.823 156.744L112.685 163H110.934L106.191 156.846V163H104.729V156.846L99.9695 163H98.2185L103.097 156.761ZM121.653 163H114.87V150.862H121.653V152.205H116.4V155.996H121.347V157.322H116.4V161.657H121.653V163ZM130.182 163L126.187 152.358H126.119C126.141 152.585 126.158 152.874 126.17 153.225C126.192 153.576 126.209 153.962 126.221 154.381C126.232 154.789 126.238 155.208 126.238 155.639V163H124.827V150.862H127.088L130.828 160.807H130.896L134.704 150.862H136.948V163H135.435V155.537C135.435 155.14 135.44 154.749 135.452 154.364C135.463 153.967 135.48 153.599 135.503 153.259C135.525 152.908 135.542 152.613 135.554 152.375H135.486L131.44 163H130.182ZM149.214 150.862C150.8 150.862 151.956 151.174 152.682 151.797C153.407 152.42 153.77 153.299 153.77 154.432C153.77 154.931 153.685 155.412 153.515 155.877C153.356 156.33 153.09 156.738 152.716 157.101C152.342 157.464 151.843 157.753 151.22 157.968C150.596 158.172 149.831 158.274 148.925 158.274H147.531V163H146.001V150.862H149.214ZM149.078 152.171H147.531V156.965H148.755C149.525 156.965 150.166 156.886 150.676 156.727C151.186 156.557 151.565 156.291 151.815 155.928C152.064 155.565 152.189 155.089 152.189 154.5C152.189 153.718 151.939 153.134 151.441 152.749C150.942 152.364 150.154 152.171 149.078 152.171ZM163.573 163L162.111 159.243H157.3L155.855 163H154.308L159.051 150.811H160.428L165.154 163H163.573ZM160.292 154.211C160.258 154.12 160.201 153.956 160.122 153.718C160.043 153.48 159.963 153.236 159.884 152.987C159.816 152.726 159.759 152.528 159.714 152.392C159.657 152.619 159.595 152.851 159.527 153.089C159.47 153.316 159.408 153.525 159.34 153.718C159.283 153.911 159.232 154.075 159.187 154.211L157.81 157.883H161.652L160.292 154.211ZM174.499 153.701C174.499 154.528 174.238 155.186 173.717 155.673C173.195 156.149 172.498 156.455 171.626 156.591V156.659C172.646 156.795 173.422 157.112 173.955 157.611C174.487 158.11 174.754 158.761 174.754 159.566C174.754 160.28 174.572 160.909 174.21 161.453C173.847 161.986 173.303 162.405 172.578 162.711C171.852 163.017 170.946 163.17 169.858 163.17C169.2 163.17 168.571 163.119 167.971 163.017C167.381 162.926 166.832 162.756 166.322 162.507V161.113C166.673 161.283 167.047 161.43 167.444 161.555C167.852 161.668 168.26 161.759 168.668 161.827C169.076 161.884 169.467 161.912 169.841 161.912C170.929 161.912 171.75 161.708 172.306 161.3C172.872 160.892 173.156 160.314 173.156 159.566C173.156 158.795 172.827 158.234 172.17 157.883C171.512 157.532 170.594 157.356 169.416 157.356H167.682V156.081H169.331C170.135 156.081 170.798 155.99 171.32 155.809C171.852 155.628 172.249 155.373 172.51 155.044C172.782 154.704 172.918 154.307 172.918 153.854C172.918 153.242 172.691 152.772 172.238 152.443C171.784 152.114 171.195 151.95 170.47 151.95C169.71 151.95 169.076 152.046 168.566 152.239C168.067 152.432 167.58 152.681 167.104 152.987L166.373 151.95C166.69 151.712 167.053 151.502 167.461 151.321C167.88 151.128 168.345 150.975 168.855 150.862C169.365 150.749 169.909 150.692 170.487 150.692C171.359 150.692 172.09 150.822 172.68 151.083C173.28 151.344 173.734 151.701 174.04 152.154C174.346 152.596 174.499 153.112 174.499 153.701ZM188.42 156.914C188.42 157.855 188.301 158.71 188.063 159.481C187.825 160.24 187.468 160.898 186.992 161.453C186.527 162.008 185.943 162.433 185.241 162.728C184.549 163.023 183.745 163.17 182.827 163.17C181.875 163.17 181.047 163.023 180.345 162.728C179.642 162.422 179.058 161.997 178.594 161.453C178.129 160.898 177.783 160.235 177.557 159.464C177.33 158.693 177.217 157.838 177.217 156.897C177.217 155.65 177.421 154.562 177.829 153.633C178.237 152.704 178.854 151.978 179.682 151.457C180.52 150.936 181.574 150.675 182.844 150.675C184.056 150.675 185.076 150.936 185.904 151.457C186.731 151.967 187.354 152.692 187.774 153.633C188.204 154.562 188.42 155.656 188.42 156.914ZM178.832 156.914C178.832 157.934 178.973 158.812 179.257 159.549C179.54 160.286 179.976 160.852 180.566 161.249C181.166 161.646 181.92 161.844 182.827 161.844C183.745 161.844 184.493 161.646 185.071 161.249C185.66 160.852 186.096 160.286 186.38 159.549C186.663 158.812 186.805 157.934 186.805 156.914C186.805 155.384 186.487 154.188 185.853 153.327C185.218 152.454 184.215 152.018 182.844 152.018C181.926 152.018 181.166 152.216 180.566 152.613C179.976 152.998 179.54 153.559 179.257 154.296C178.973 155.021 178.832 155.894 178.832 156.914ZM191.62 163V150.862H198.828V152.205H193.15V155.996H194.952C196.165 155.996 197.105 156.149 197.774 156.455C198.443 156.75 198.907 157.158 199.168 157.679C199.429 158.189 199.559 158.778 199.559 159.447C199.559 160.184 199.412 160.818 199.117 161.351C198.834 161.884 198.369 162.292 197.723 162.575C197.077 162.858 196.227 163 195.173 163H191.62ZM195.02 161.691C196.108 161.691 196.873 161.51 197.315 161.147C197.757 160.773 197.978 160.206 197.978 159.447C197.978 158.926 197.87 158.512 197.655 158.206C197.451 157.889 197.111 157.662 196.635 157.526C196.17 157.39 195.547 157.322 194.765 157.322H193.15V161.691H195.02ZM205.802 150.862C207.389 150.862 208.545 151.174 209.27 151.797C209.995 152.42 210.358 153.299 210.358 154.432C210.358 154.931 210.273 155.412 210.103 155.877C209.944 156.33 209.678 156.738 209.304 157.101C208.93 157.464 208.431 157.753 207.808 157.968C207.185 158.172 206.42 158.274 205.513 158.274H204.119V163H202.589V150.862H205.802ZM205.666 152.171H204.119V156.965H205.343C206.114 156.965 206.754 156.886 207.264 156.727C207.774 156.557 208.154 156.291 208.403 155.928C208.652 155.565 208.777 155.089 208.777 154.5C208.777 153.718 208.528 153.134 208.029 152.749C207.53 152.364 206.743 152.171 205.666 152.171ZM220.161 163L218.699 159.243H213.888L212.443 163H210.896L215.639 150.811H217.016L221.742 163H220.161ZM216.88 154.211C216.846 154.12 216.79 153.956 216.71 153.718C216.631 153.48 216.552 153.236 216.472 152.987C216.404 152.726 216.348 152.528 216.302 152.392C216.246 152.619 216.183 152.851 216.115 153.089C216.059 153.316 215.996 153.525 215.928 153.718C215.872 153.911 215.821 154.075 215.775 154.211L214.398 157.883H218.24L216.88 154.211ZM226.559 163H225.029V152.205H221.238V150.862H230.333V152.205H226.559V163ZM232.674 163V150.862H234.204V155.996H236.482C237.615 155.996 238.516 156.149 239.185 156.455C239.853 156.761 240.335 157.175 240.63 157.696C240.924 158.217 241.072 158.801 241.072 159.447C241.072 160.161 240.907 160.784 240.579 161.317C240.261 161.85 239.78 162.263 239.134 162.558C238.488 162.853 237.666 163 236.669 163H232.674ZM236.516 161.691C237.502 161.691 238.244 161.51 238.743 161.147C239.241 160.773 239.491 160.206 239.491 159.447C239.491 158.926 239.366 158.512 239.117 158.206C238.879 157.889 238.522 157.662 238.046 157.526C237.581 157.39 236.997 157.322 236.295 157.322H234.204V161.691H236.516ZM65.6279 177.862C66.6366 177.862 67.4809 177.958 68.1609 178.151C68.8523 178.344 69.3679 178.661 69.7079 179.103C70.0593 179.545 70.2349 180.134 70.2349 180.871C70.2349 181.347 70.1443 181.772 69.9629 182.146C69.7929 182.509 69.5323 182.815 69.1809 183.064C68.8409 183.302 68.4216 183.466 67.9229 183.557V183.642C68.4329 183.721 68.8919 183.869 69.2999 184.084C69.7193 184.299 70.0479 184.605 70.2859 185.002C70.5239 185.399 70.6429 185.914 70.6429 186.549C70.6429 187.286 70.4729 187.915 70.1329 188.436C69.7929 188.946 69.3056 189.337 68.6709 189.609C68.0476 189.87 67.2996 190 66.4269 190H62.1599V177.862H65.6279ZM65.9339 183.03C66.9766 183.03 67.6906 182.866 68.0759 182.537C68.4613 182.197 68.6539 181.698 68.6539 181.041C68.6539 180.372 68.4159 179.896 67.9399 179.613C67.4753 179.318 66.7273 179.171 65.6959 179.171H63.6899V183.03H65.9339ZM63.6899 184.305V188.708H66.1379C67.2146 188.708 67.9626 188.498 68.3819 188.079C68.8013 187.66 69.0109 187.11 69.0109 186.43C69.0109 185.999 68.9146 185.625 68.7219 185.308C68.5406 184.991 68.2289 184.747 67.7869 184.577C67.3563 184.396 66.7669 184.305 66.0189 184.305H63.6899ZM78.9286 179.035C78.2826 179.035 77.6989 179.148 77.1776 179.375C76.6562 179.59 76.2142 179.913 75.8516 180.344C75.4889 180.763 75.2112 181.279 75.0186 181.891C74.8259 182.492 74.7296 183.172 74.7296 183.931C74.7296 184.928 74.8826 185.795 75.1886 186.532C75.5059 187.269 75.9706 187.835 76.5826 188.232C77.2059 188.629 77.9822 188.827 78.9116 188.827C79.4442 188.827 79.9486 188.782 80.4246 188.691C80.9006 188.6 81.3652 188.487 81.8186 188.351V189.677C81.3652 189.847 80.8949 189.972 80.4076 190.051C79.9316 190.13 79.3592 190.17 78.6906 190.17C77.4552 190.17 76.4239 189.915 75.5966 189.405C74.7692 188.895 74.1459 188.17 73.7266 187.229C73.3186 186.288 73.1146 185.183 73.1146 183.914C73.1146 182.996 73.2392 182.157 73.4886 181.398C73.7492 180.639 74.1232 179.981 74.6106 179.426C75.1092 178.871 75.7212 178.446 76.4466 178.151C77.1719 177.845 78.0049 177.692 78.9456 177.692C79.5689 177.692 80.1696 177.754 80.7476 177.879C81.3256 178.004 81.8412 178.179 82.2946 178.406L81.6826 179.698C81.3086 179.528 80.8892 179.375 80.4246 179.239C79.9712 179.103 79.4726 179.035 78.9286 179.035ZM91.7608 190H84.9778V177.862H91.7608V179.205H86.5078V182.996H91.4548V184.322H86.5078V188.657H91.7608V190ZM86.1168 175.397C86.1168 175.102 86.1961 174.893 86.3548 174.768C86.5135 174.632 86.7005 174.564 86.9158 174.564C87.1311 174.564 87.3181 174.632 87.4768 174.768C87.6355 174.893 87.7148 175.102 87.7148 175.397C87.7148 175.68 87.6355 175.896 87.4768 176.043C87.3181 176.179 87.1311 176.247 86.9158 176.247C86.7005 176.247 86.5135 176.179 86.3548 176.043C86.1961 175.896 86.1168 175.68 86.1168 175.397ZM89.3128 175.397C89.3128 175.102 89.3865 174.893 89.5338 174.768C89.6925 174.632 89.8795 174.564 90.0948 174.564C90.3101 174.564 90.4971 174.632 90.6558 174.768C90.8145 174.893 90.8938 175.102 90.8938 175.397C90.8938 175.68 90.8145 175.896 90.6558 176.043C90.4971 176.179 90.3101 176.247 90.0948 176.247C89.8795 176.247 89.6925 176.179 89.5338 176.043C89.3865 175.896 89.3128 175.68 89.3128 175.397ZM105.531 190L101.536 179.358H101.468C101.49 179.585 101.507 179.874 101.519 180.225C101.541 180.576 101.558 180.962 101.57 181.381C101.581 181.789 101.587 182.208 101.587 182.639V190H100.176V177.862H102.437L106.177 187.807H106.245L110.053 177.862H112.297V190H110.784V182.537C110.784 182.14 110.789 181.749 110.801 181.364C110.812 180.967 110.829 180.599 110.852 180.259C110.874 179.908 110.891 179.613 110.903 179.375H110.835L106.789 190H105.531ZM123.724 190L122.262 186.243H117.451L116.006 190H114.459L119.202 177.811H120.579L125.305 190H123.724ZM120.443 181.211C120.409 181.12 120.353 180.956 120.273 180.718C120.194 180.48 120.115 180.236 120.035 179.987C119.967 179.726 119.911 179.528 119.865 179.392C119.809 179.619 119.746 179.851 119.678 180.089C119.622 180.316 119.559 180.525 119.491 180.718C119.435 180.911 119.384 181.075 119.338 181.211L117.961 184.883H121.803L120.443 181.211ZM136.333 190H134.497L129.006 183.846V190H127.476V177.862H129.006V183.744L134.361 177.862H136.095L130.825 183.761L136.333 190ZM143.365 179.035C142.719 179.035 142.135 179.148 141.614 179.375C141.092 179.59 140.65 179.913 140.288 180.344C139.925 180.763 139.647 181.279 139.455 181.891C139.262 182.492 139.166 183.172 139.166 183.931C139.166 184.928 139.319 185.795 139.625 186.532C139.942 187.269 140.407 187.835 141.019 188.232C141.642 188.629 142.418 188.827 143.348 188.827C143.88 188.827 144.385 188.782 144.861 188.691C145.337 188.6 145.801 188.487 146.255 188.351V189.677C145.801 189.847 145.331 189.972 144.844 190.051C144.368 190.13 143.795 190.17 143.127 190.17C141.891 190.17 140.86 189.915 140.033 189.405C139.205 188.895 138.582 188.17 138.163 187.229C137.755 186.288 137.551 185.183 137.551 183.914C137.551 182.996 137.675 182.157 137.925 181.398C138.185 180.639 138.559 179.981 139.047 179.426C139.545 178.871 140.157 178.446 140.883 178.151C141.608 177.845 142.441 177.692 143.382 177.692C144.005 177.692 144.606 177.754 145.184 177.879C145.762 178.004 146.277 178.179 146.731 178.406L146.119 179.698C145.745 179.528 145.325 179.375 144.861 179.239C144.407 179.103 143.909 179.035 143.365 179.035ZM149.431 177.862H150.859V184.526C150.859 184.809 150.853 185.121 150.842 185.461C150.842 185.79 150.836 186.118 150.825 186.447C150.813 186.776 150.796 187.07 150.774 187.331C150.762 187.58 150.751 187.773 150.74 187.909H150.808L157.489 177.862H159.189V190H157.761V183.404C157.761 183.098 157.766 182.769 157.778 182.418C157.789 182.055 157.8 181.71 157.812 181.381C157.834 181.041 157.851 180.741 157.863 180.48C157.874 180.219 157.885 180.027 157.897 179.902H157.829L151.131 190H149.431V177.862ZM168.328 190L164.333 179.358H164.265C164.287 179.585 164.304 179.874 164.316 180.225C164.338 180.576 164.355 180.962 164.367 181.381C164.378 181.789 164.384 182.208 164.384 182.639V190H162.973V177.862H165.234L168.974 187.807H169.042L172.85 177.862H175.094V190H173.581V182.537C173.581 182.14 173.586 181.749 173.598 181.364C173.609 180.967 173.626 180.599 173.649 180.259C173.671 179.908 173.688 179.613 173.7 179.375H173.632L169.586 190H168.328ZM186.521 190L185.059 186.243H180.248L178.803 190H177.256L181.999 177.811H183.376L188.102 190H186.521ZM183.24 181.211C183.206 181.12 183.15 180.956 183.07 180.718C182.991 180.48 182.912 180.236 182.832 179.987C182.764 179.726 182.708 179.528 182.662 179.392C182.606 179.619 182.543 179.851 182.475 180.089C182.419 180.316 182.356 180.525 182.288 180.718C182.232 180.911 182.181 181.075 182.135 181.211L180.758 184.883H184.6L183.24 181.211ZM199.011 190H197.481V179.205H193.639C193.56 179.828 193.475 180.486 193.384 181.177C193.293 181.857 193.197 182.531 193.095 183.2C193.004 183.869 192.914 184.498 192.823 185.087C192.732 185.676 192.642 186.192 192.551 186.634C192.404 187.393 192.222 188.039 192.007 188.572C191.792 189.105 191.503 189.507 191.14 189.779C190.789 190.051 190.324 190.187 189.746 190.187C189.553 190.187 189.355 190.164 189.151 190.119C188.958 190.085 188.788 190.04 188.641 189.983V188.708C188.766 188.765 188.907 188.816 189.066 188.861C189.225 188.895 189.395 188.912 189.576 188.912C189.916 188.912 190.182 188.776 190.375 188.504C190.579 188.221 190.738 187.875 190.851 187.467C190.964 187.048 191.061 186.634 191.14 186.226C191.208 185.897 191.287 185.461 191.378 184.917C191.469 184.362 191.565 183.716 191.667 182.979C191.78 182.242 191.894 181.443 192.007 180.582C192.132 179.709 192.251 178.803 192.364 177.862H199.011V190ZM202.819 190V177.862H204.349V182.996H206.627C207.76 182.996 208.661 183.149 209.33 183.455C209.999 183.761 210.48 184.175 210.775 184.696C211.07 185.217 211.217 185.801 211.217 186.447C211.217 187.161 211.053 187.784 210.724 188.317C210.407 188.85 209.925 189.263 209.279 189.558C208.633 189.853 207.811 190 206.814 190H202.819ZM206.661 188.691C207.647 188.691 208.389 188.51 208.888 188.147C209.387 187.773 209.636 187.206 209.636 186.447C209.636 185.926 209.511 185.512 209.262 185.206C209.024 184.889 208.667 184.662 208.191 184.526C207.726 184.39 207.143 184.322 206.44 184.322H204.349V188.691H206.661ZM223.518 190H221.988V184.339H215.766V190H214.236V177.862H215.766V182.996H221.988V177.862H223.518V190ZM237.938 183.914C237.938 184.855 237.819 185.71 237.581 186.481C237.343 187.24 236.986 187.898 236.51 188.453C236.045 189.008 235.461 189.433 234.759 189.728C234.067 190.023 233.263 190.17 232.345 190.17C231.393 190.17 230.565 190.023 229.863 189.728C229.16 189.422 228.576 188.997 228.112 188.453C227.647 187.898 227.301 187.235 227.075 186.464C226.848 185.693 226.735 184.838 226.735 183.897C226.735 182.65 226.939 181.562 227.347 180.633C227.755 179.704 228.372 178.978 229.2 178.457C230.038 177.936 231.092 177.675 232.362 177.675C233.574 177.675 234.594 177.936 235.422 178.457C236.249 178.967 236.872 179.692 237.292 180.633C237.722 181.562 237.938 182.656 237.938 183.914ZM228.35 183.914C228.35 184.934 228.491 185.812 228.775 186.549C229.058 187.286 229.494 187.852 230.084 188.249C230.684 188.646 231.438 188.844 232.345 188.844C233.263 188.844 234.011 188.646 234.589 188.249C235.178 187.852 235.614 187.286 235.898 186.549C236.181 185.812 236.323 184.934 236.323 183.914C236.323 182.384 236.005 181.188 235.371 180.327C234.736 179.454 233.733 179.018 232.362 179.018C231.444 179.018 230.684 179.216 230.084 179.613C229.494 179.998 229.058 180.559 228.775 181.296C228.491 182.021 228.35 182.894 228.35 183.914ZM101.338 217V204.862H110.45V217H108.937V206.205H102.868V217H101.338ZM124.873 210.914C124.873 211.855 124.754 212.71 124.516 213.481C124.278 214.24 123.921 214.898 123.445 215.453C122.981 216.008 122.397 216.433 121.694 216.728C121.003 217.023 120.198 217.17 119.28 217.17C118.328 217.17 117.501 217.023 116.798 216.728C116.096 216.422 115.512 215.997 115.047 215.453C114.583 214.898 114.237 214.235 114.01 213.464C113.784 212.693 113.67 211.838 113.67 210.897C113.67 209.65 113.874 208.562 114.282 207.633C114.69 206.704 115.308 205.978 116.135 205.457C116.974 204.936 118.028 204.675 119.297 204.675C120.51 204.675 121.53 204.936 122.357 205.457C123.185 205.967 123.808 206.692 124.227 207.633C124.658 208.562 124.873 209.656 124.873 210.914ZM115.285 210.914C115.285 211.934 115.427 212.812 115.71 213.549C115.994 214.286 116.43 214.852 117.019 215.249C117.62 215.646 118.374 215.844 119.28 215.844C120.198 215.844 120.946 215.646 121.524 215.249C122.114 214.852 122.55 214.286 122.833 213.549C123.117 212.812 123.258 211.934 123.258 210.914C123.258 209.384 122.941 208.188 122.306 207.327C121.672 206.454 120.669 206.018 119.297 206.018C118.379 206.018 117.62 206.216 117.019 206.613C116.43 206.998 115.994 207.559 115.71 208.296C115.427 209.021 115.285 209.894 115.285 210.914ZM135.918 204.862V215.64H137.465V220.196H136.003V217H127.656V220.196H126.194V215.64H127.129C127.537 214.937 127.923 214.15 128.285 213.277C128.659 212.404 128.988 211.492 129.271 210.54C129.555 209.577 129.787 208.613 129.968 207.65C130.15 206.687 130.263 205.757 130.308 204.862H135.918ZM131.651 206.239C131.606 206.896 131.493 207.639 131.311 208.466C131.141 209.293 130.92 210.143 130.648 211.016C130.388 211.877 130.093 212.71 129.764 213.515C129.447 214.32 129.107 215.028 128.744 215.64H134.405V206.239H131.651ZM143.218 204.862C144.805 204.862 145.961 205.174 146.686 205.797C147.412 206.42 147.774 207.299 147.774 208.432C147.774 208.931 147.689 209.412 147.519 209.877C147.361 210.33 147.094 210.738 146.72 211.101C146.346 211.464 145.848 211.753 145.224 211.968C144.601 212.172 143.836 212.274 142.929 212.274H141.535V217H140.005V204.862H143.218ZM143.082 206.171H141.535V210.965H142.759C143.53 210.965 144.17 210.886 144.68 210.727C145.19 210.557 145.57 210.291 145.819 209.928C146.069 209.565 146.193 209.089 146.193 208.5C146.193 207.718 145.944 207.134 145.445 206.749C144.947 206.364 144.159 206.171 143.082 206.171ZM161.399 210.914C161.399 211.855 161.28 212.71 161.042 213.481C160.804 214.24 160.447 214.898 159.971 215.453C159.507 216.008 158.923 216.433 158.22 216.728C157.529 217.023 156.724 217.17 155.806 217.17C154.854 217.17 154.027 217.023 153.324 216.728C152.622 216.422 152.038 215.997 151.573 215.453C151.109 214.898 150.763 214.235 150.536 213.464C150.31 212.693 150.196 211.838 150.196 210.897C150.196 209.65 150.4 208.562 150.808 207.633C151.216 206.704 151.834 205.978 152.661 205.457C153.5 204.936 154.554 204.675 155.823 204.675C157.036 204.675 158.056 204.936 158.883 205.457C159.711 205.967 160.334 206.692 160.753 207.633C161.184 208.562 161.399 209.656 161.399 210.914ZM151.811 210.914C151.811 211.934 151.953 212.812 152.236 213.549C152.52 214.286 152.956 214.852 153.545 215.249C154.146 215.646 154.9 215.844 155.806 215.844C156.724 215.844 157.472 215.646 158.05 215.249C158.64 214.852 159.076 214.286 159.359 213.549C159.643 212.812 159.784 211.934 159.784 210.914C159.784 209.384 159.467 208.188 158.832 207.327C158.198 206.454 157.195 206.018 155.823 206.018C154.905 206.018 154.146 206.216 153.545 206.613C152.956 206.998 152.52 207.559 152.236 208.296C151.953 209.021 151.811 209.894 151.811 210.914ZM164.6 217V204.862H171.808V206.205H166.13V209.996H167.932C169.144 209.996 170.085 210.149 170.754 210.455C171.422 210.75 171.887 211.158 172.148 211.679C172.408 212.189 172.539 212.778 172.539 213.447C172.539 214.184 172.391 214.818 172.097 215.351C171.813 215.884 171.349 216.292 170.703 216.575C170.057 216.858 169.207 217 168.153 217H164.6ZM168 215.691C169.088 215.691 169.853 215.51 170.295 215.147C170.737 214.773 170.958 214.206 170.958 213.447C170.958 212.926 170.85 212.512 170.635 212.206C170.431 211.889 170.091 211.662 169.615 211.526C169.15 211.39 168.527 211.322 167.745 211.322H166.13V215.691H168ZM184.851 217H183.321V211.339H177.099V217H175.569V204.862H177.099V209.996H183.321V204.862H184.851V217ZM199.27 210.914C199.27 211.855 199.151 212.71 198.913 213.481C198.675 214.24 198.318 214.898 197.842 215.453C197.377 216.008 196.794 216.433 196.091 216.728C195.4 217.023 194.595 217.17 193.677 217.17C192.725 217.17 191.898 217.023 191.195 216.728C190.492 216.422 189.909 215.997 189.444 215.453C188.979 214.898 188.634 214.235 188.407 213.464C188.18 212.693 188.067 211.838 188.067 210.897C188.067 209.65 188.271 208.562 188.679 207.633C189.087 206.704 189.705 205.978 190.532 205.457C191.371 204.936 192.425 204.675 193.694 204.675C194.907 204.675 195.927 204.936 196.754 205.457C197.581 205.967 198.205 206.692 198.624 207.633C199.055 208.562 199.27 209.656 199.27 210.914ZM189.682 210.914C189.682 211.934 189.824 212.812 190.107 213.549C190.39 214.286 190.827 214.852 191.416 215.249C192.017 215.646 192.77 215.844 193.677 215.844C194.595 215.844 195.343 215.646 195.921 215.249C196.51 214.852 196.947 214.286 197.23 213.549C197.513 212.812 197.655 211.934 197.655 210.914C197.655 209.384 197.338 208.188 196.703 207.327C196.068 206.454 195.065 206.018 193.694 206.018C192.776 206.018 192.017 206.216 191.416 206.613C190.827 206.998 190.39 207.559 190.107 208.296C189.824 209.021 189.682 209.894 189.682 210.914Z" fill="#B11548"/>
</svg>
