<svg width="301" height="285" viewBox="0 0 301 285" fill="none" xmlns="http://www.w3.org/2000/svg">
<path d="M149.91 0.431839C150.261 0.174672 150.739 0.174674 151.09 0.43184L197.516 34.3906C197.654 34.4916 197.816 34.5555 197.986 34.5762L256.153 41.6441C256.605 41.699 256.962 42.0517 257.023 42.5025L264.478 97.504C264.503 97.6867 264.578 97.859 264.694 98.0019L300.484 141.868C300.784 142.236 300.784 142.764 300.484 143.132L264.694 186.998C264.578 187.141 264.503 187.313 264.478 187.496L257.023 242.497C256.962 242.948 256.605 243.301 256.153 243.356L197.986 250.424C197.816 250.444 197.654 250.508 197.516 250.609L151.09 284.568C150.739 284.825 150.261 284.825 149.91 284.568L103.484 250.609C103.346 250.508 103.184 250.444 103.014 250.424L44.847 243.356C44.3955 243.301 44.0378 242.948 43.9767 242.497L36.5219 187.496C36.4971 187.313 36.4223 187.141 36.3058 186.998L0.515789 143.132C0.215555 142.764 0.215556 142.236 0.515789 141.868L36.3058 98.0019C36.4223 97.859 36.4971 97.6867 36.5219 97.504L43.9767 42.5025C44.0378 42.0517 44.3954 41.699 44.847 41.6441L103.014 34.5762C103.184 34.5555 103.346 34.4916 103.484 34.3906L149.91 0.431839Z" fill="#FAFCB7"/>
</svg>
