<svg xmlns="http://www.w3.org/2000/svg" viewBox="0 0 74.5 73.03"><defs><style>.cls-1{fill:#acb7c9;}.cls-2{fill:#fff;}</style></defs><title>Recurso 220</title><g id="Capa_2" data-name="Capa 2"><g id="Capa_1-2" data-name="Capa 1"><rect class="cls-1" width="74.5" height="73.03" rx="16.46"/><path class="cls-2" d="M44.69,38.64V17.38a2.13,2.13,0,0,0-1.08-1.85,2.1,2.1,0,0,0-2.14,0L30.84,21.94a2.11,2.11,0,0,0-1,1.82V38.64H27.68V53.52a4.26,4.26,0,0,0,4.25,4.26H42.56a4.26,4.26,0,0,0,4.26-4.26V38.64ZM31.93,42.89H42.56v4.26H31.93ZM34.06,25l6.38-3.83v17.5H34.06ZM31.93,53.52V51.4H42.57v2.12Z"/></g></g></svg>